<?xml version="1.0" encoding="UTF-8"?><svg id="a" xmlns="http://www.w3.org/2000/svg" width="484.9" height="513.4" viewBox="0 0 484.9 513.4"><g><g><path d="M399.8,148.4c-6-.9-11.5-1.8-17.1-2.6-5.8-.8-11.7-1-17.6-.6-5.6,.3-11.2,1.3-16.6,2.9-2.9,.9-5.8,2-8.7,3-.3,.1-.7,.2-1.2,.4,.3-.8,.8-1,1.3-1.2,2.8-1.1,5.6-2.2,8.5-3,5-1.5,10.1-2.5,15.4-2.8,2.6-.1,5.2-.4,7.8-.3,3.6,.1,7.2,.5,10.7,.9,4.1,.5,8.2,1.2,12.3,1.9,1.6,.3,3.3,.8,5.2,1.3Z" fill="#c47d59"/><path d="M362.2,52.1c-5.3,20-10.7,40-12.8,60.7-.4-1.1-.3-2.3-.2-3.4,.5-5.4,1.4-10.7,2.4-15.9,1.6-8.2,3.4-16.4,5.6-24.5,1.5-5.3,3.1-10.6,4.6-15.9,0-.3,.2-.6,.3-.9Z" fill="#c47d59"/><path d="M324.8,83.4c-10.1-24.2-25.6-44.2-46.2-60.4,21.1,15.8,36.6,35.8,46.2,60.4Z" fill="#c47d59"/><path d="M353.2,134.8c.3-.8,.7-1.5,1.1-2.3,3.9-7.3,8.9-13.6,15.1-19.1,6.5-5.8,14.1-9.3,22.4-11.5,3.5-.9,7.1-1.7,10.6-2.4,.5-.1,1,0,1.2,0-4.7,1.3-9.8,2.5-14.9,4-5.7,1.7-11,4.2-15.7,7.8-6.5,5.1-12.3,11-16.5,18.3-1.1,1.8-2.1,3.6-3.1,5.5l-.3-.2Z" fill="#c47d59"/><path d="M360.8,8.2c-.6,1.1-1.2,2.2-1.8,3.3-3.6,6.3-6.7,12.8-8.5,19.9-1.2,4.7-2.1,9.5-2.7,14.3-.2,1.5-.7,2.9-.9,4.4-.3,2.4-.6,4.9-1,7.3,.1-2,.2-4,.4-6,.2-1.8,.3-3.7,.6-5.5,.4-2.5,.9-4.9,1.4-7.4,1-5.7,2.4-11.3,4.7-16.7,2-4.6,4.4-9,7.1-13.2,.1-.2,.3-.4,.5-.6,.1,0,.2,.2,.3,.2Z" fill="#c47d59"/><path d="M448.6,110.7c-1.6-.2-3.2-.5-4.8-.7-3.8-.5-7.6-1-11.4-1.5-6.3-.9-12.6-1.2-19-.9-3,.1-6,.7-8.9,1-.5,0-1,.1-1.5,.2v-.4c.3-.2,.8-.4,1.2-.5,3.5-.8,7.1-1.3,10.7-1.3,3.9,0,7.7,0,11.6,.4,7,.7,14,1.5,20.9,3.2,.4,.1,.9,.3,1.3,.4,0,0,0,0,0,.1Z" fill="#c47d59"/><path d="M380.9,66c4-8.9,8.3-17.7,11.6-26.9,1.6-4.5,3-9.1,3.6-13.9,.1-1,.2-1.9,.4-2.9,.4,1.6,.3,3.3,0,4.9-.7,5.1-2.4,10.1-4.3,14.9-3.2,7.9-6.7,15.7-10.9,23.2-.2,.3-.3,.5-.5,.8Z" fill="#c47d59"/><path d="M312,72c1,1.6,2,3.2,3,4.8,4.2,7.3,8.1,14.7,10.7,22.7,1.6,4.9,2.7,9.9,3.1,15,.2,1.9,.2,3.8,.3,5.7,0,.5-.2,1-.5,1.5-.1-1.9-.2-3.7-.4-5.6-.4-6.1-1.8-12-3.7-17.7-2.5-7.5-6.2-14.4-10-21.3-.9-1.6-1.9-3.2-2.8-4.9h.2Z" fill="#c47d59"/><path d="M320,52.2c-9.3-12.2-18.4-24.6-31.6-33,0-.1,.2-.2,.2-.3,.5,.2,1,.5,1.5,.8,4.2,2.5,7.9,5.6,11.4,9.1,6.8,6.9,12.8,14.4,18,22.5,.2,.3,.4,.7,.6,1Z" fill="#c47d59"/><path d="M303.1,164.1c1.5-1.6,2.9-3.3,4.4-4.9,2.6-2.9,5.4-5.5,8.6-7.8,2.7-1.8,5.5-3.4,8.7-4.1,.8-.2,1.6-.2,2.3-.3,.5,0,1,0,1.7,0-.9-5.3,.1-10.2,1.8-15-.4,2.6-1,5.2-1.2,7.8-.2,2.6,0,5.3,0,8.1-3.4-.6-6.4,.6-9.3,2-3.4,1.7-6.4,3.9-9.1,6.5-1.9,1.8-3.7,3.8-5.5,5.7-.7,.8-1.4,1.6-2.1,2.3l-.3-.2Z" fill="#c47d59"/><path d="M332,76.2c.6,2,1.3,4,1.7,6,1.5,6.9,2.7,13.8,2.3,20.8-.2,3.8-.9,7.5-2.3,11.1-.2,.6-.4,1.4-1.4,1.8,0-.4,0-.6,0-.8,1.7-4.2,2.5-8.7,2.7-13.2,.3-6.6-.8-13-2.1-19.5-.4-2.1-.9-4.1-1.4-6.1h.2Z" fill="#c47d59"/><path d="M352.2,115.6c6.2-15,12.4-29.9,18.5-44.9,.1,0,.2,0,.3,.1-5.8,14.5-11.6,29.1-17.7,43.5-.2,.5-.6,1-.9,1.4,0,0-.2,0-.3-.1Z" fill="#c47d59"/><path d="M256.6,107.6c1.7,.2,3.4,.4,5.1,.7,4.4,1,8.9,1.7,13.2,3.2,8.8,3,17.3,6.7,24.9,12.3,.9,.7,1.7,1.4,2.4,2.3-6.8-4.9-14-8.9-21.8-12-7.7-3.2-15.7-5-23.8-6.5Z" fill="#c47d59"/><path d="M262.3,31.1c.2,.1,.4,.2,.5,.3,2.3,4.6,5.9,8.3,9.3,12,3.6,3.9,7.4,7.5,11.1,11.3,.1,.1,.3,.3,.3,.6-.6-.5-1.3-1-1.9-1.5-5.9-5.2-11.4-10.7-16.3-16.8-.8-1.1-1.6-2.2-2.3-3.4-.4-.7-.8-1.4-.6-2.4Z" fill="#c47d59"/><path d="M346.8,160.4c1.9,0,4,.5,6.2,1.2,7.5,2.2,14.5,5.4,21.5,8.8,4,2,7.8,4.2,11.7,6.3,.5,.2,.9,.5,1.3,.9-13.2-6.8-26.4-13.7-40.7-17.2Z" fill="#c47d59"/><path d="M380.4,42.2c2.2-10.6,5.6-21,6-31.9,.1,0,.2,0,.3,0,0,.4,.1,.8,.2,1.2,.2,4.4-.5,8.6-1.6,12.8-1.4,5.6-3,11.2-4.5,16.8,0,.4-.3,.7-.4,1.1Z" fill="#c47d59"/><path d="M382,101.7c-11.2,7.3-21.3,15.8-27.3,28.2-.1,0-.2-.1-.3-.2,.2-.5,.3-1,.5-1.4,2.6-5.3,6.1-9.8,10.2-14,4.5-4.6,9.7-8.3,15.1-11.7,.5-.3,1.1-.6,1.6-1Z" fill="#c47d59"/><path d="M367.9,178.4c-8.9-6.1-17-13.3-26.8-18.1,0-.1,.1-.2,.2-.4,.5,.2,1,.3,1.5,.5,3.1,1.5,6.2,3.1,9,5.3,5,3.8,10,7.7,15.1,11.6,.4,.3,.7,.7,1.1,1Z" fill="#c47d59"/><path d="M381.5,151c-3.8-.6-7.3-1.2-10.8-1.7-5.2-.8-10.4-.9-15.7-.7-2.4,.1-4.8,.7-7.2,.9,.4-.2,.7-.4,1.1-.5,2.2-.4,4.5-.7,6.7-1,1.6-.2,3.3-.3,4.9-.3,6.8,.3,13.4,1.2,20,2.9,.3,0,.5,.2,1,.4Z" fill="#c47d59"/><path d="M385.3,182.3c7.1,4.8,13.8,10.1,20.3,15.7,1.2,1.1,1.2,1.1,1.5,2.3-7.4-6.1-14.6-12.1-21.8-18.1Z" fill="#c47d59"/><path d="M430.2,148.4c-2.7-.8-4.7-2-6.9-2.8-2.3-.9-4.6-1.8-6.9-2.6-2.3-.8-4.6-1.6-6.9-2.3-2.3-.7-4.6-1.4-6.7-2,4-.3,24.5,6.8,27.4,9.8Z" fill="#c47d59"/><path d="M400.9,41.1c-2.7,12.6-9.4,23.3-16,34,6-11,12.7-21.7,16-34Z" fill="#c47d59"/><path d="M353.1,33.7c1.9-11.1,5.6-21.3,12.6-30.2h.3c-1.8,3.3-3.8,6.4-5.5,9.7-1.6,3.2-3.1,6.6-4.3,10-1.2,3.4-2.1,7-3.1,10.5Z" fill="#c47d59"/><path d="M317.5,94c.2,.3,.4,.6,.5,.8,3.7,7.5,6.9,15.2,8.9,23.3,.3,1.4,.6,2.8,.7,4.2,0,.7-.1,1.5-.2,2.2-.1,0-.2,0-.4,0,0-.2-.1-.3-.1-.5,.1-2.3-.3-4.6-.9-6.9-1.8-7.7-4.9-14.9-8.2-22.1-.2-.4-.3-.7-.5-1.1h.2Z" fill="#c47d59"/><path d="M424.7,77.9c-.3,0-.6,.1-.8,.1-3.8,0-7.5,.8-11,2-4.2,1.4-8.3,3-12.5,4.5,.1-.1,.3-.3,.6-.4,5.8-3,11.8-5.1,18.1-6.4,1.2-.2,2.4-.3,3.6-.3,.7,0,1.4,.2,2.1,.3v.4Z" fill="#c47d59"/><path d="M397.9,207c7,4.9,13.8,10.3,21.7,13.8,0,.1,0,.2,0,.3-.3,0-.6,0-.9,0-1.5-.7-3-1.3-4.4-2.1-3.7-2.4-7.3-4.9-10.9-7.4-1.5-1-2.9-2.3-4.3-3.4-.4-.3-.8-.8-1.2-1.1Z" fill="#c47d59"/><path d="M324.3,141.6c-.2-.2-.4-.3-.5-.5-2.9-3.4-6.8-4.6-11.1-5-4.8-.4-9.1,1.2-13.4,3-.4,.2-.8,.3-1.3,.4,3.3-1.7,6.6-3.2,10.3-3.7,4-.6,7.9-.3,11.6,1.4,1.7,.8,3.2,1.9,4.3,3.4,.2,.2,.2,.5,.4,.8h-.2Z" fill="#c47d59"/><path d="M397,180.9c-3.3-2.6-6.5-5.2-10.2-7-3.7-1.8-7.4-3.6-11-5.3,6.6,1.9,18.6,7.6,21.2,12.3Z" fill="#c47d59"/><path d="M296.9,146.5c-6,5.3-11.7,10.8-15.1,18.4-.4-1-.5-1.1,0-1.8,1.5-2.3,2.8-4.7,4.5-6.9,2.8-3.4,6-6.4,9.5-9,.3-.2,.7-.4,1-.7Z" fill="#c47d59"/><path d="M226.6,95.1c8.1-2.1,16.3-1.3,24.4,.2-2.7-.2-5.4-.4-8.1-.6-2.8-.1-5.6-.2-8.4-.2-2.6,0-5.3,.7-7.9,.6Z" fill="#c47d59"/><path d="M430.3,91.5c8.1-.4,16.1,.2,23.8,2.8-.5,.5-1.1,.2-1.6,0-4.1-1.1-8.2-1.8-12.4-2.1-3.2-.3-6.4-.5-9.6-.7,0,0-.2,0-.3,0h0Z" fill="#c47d59"/><path d="M388.6,138.5c-4.3,.2-8.8,.2-13.3,.7-4.5,.5-8.9,1.5-13.4,2.3,5.4-2.4,23.2-4.3,26.7-3Z" fill="#c47d59"/><path d="M335.8,154c1.4,3.3,1.6,6.7,.7,10-1,4.1-2.9,7.9-5.4,11.4,.2-.4,.4-.7,.5-1.1,1.3-3.1,2.7-6.1,3.8-9.2,1.1-3.1,1.3-6.3,.3-9.5-.2-.5-.2-1.1-.3-1.6h.4Z" fill="#c47d59"/><path d="M295.5,129.5c-1.6,.8-3.2,1-4.9,.8-1.6-.2-3.2-.3-4.7-.5-3.4-.6-6.8-1.2-10.2-2,6.6,.6,13.1,2.4,19.9,1.7Z" fill="#c47d59"/><path d="M328.5,148.5c-5.8,2.5-10.1,6.9-14.5,11.1-.4,.4-.7,.8-1,1.2-.1,0-.2-.2-.3-.3,.9-1,1.8-2.1,2.8-3.1,2.9-2.9,5.9-5.6,9.3-7.8,1.1-.7,2.2-1.5,3.6-1.1Z" fill="#c47d59"/><path d="M261,128.1c5,3.2,10.6,4.4,16,5.7-4.2,.4-14-3-16-5.7Z" fill="#c47d59"/><path d="M362.9,98.8c-2.8,7.8-7.9,17.7-9.5,18.7,3.1-6.2,6.3-12.4,9.5-18.7Z" fill="#c47d59"/><path d="M320.1,176.4c.5-1.1,1.6-1.9,2.2-2.9,.6-1.1,1.3-2.2,1.9-3.3,.6-1.1,1.1-2.2,1.6-3.2,.6-1.1,1.1-2.3,1.9-3.3-.3,.7-.4,1.5-.8,2.2-1.1,2.4-2.2,4.9-3.4,7.3-.5,1.1-1.4,2-2.1,2.9-.2,.3-.6,.4-.9,.6,0,0-.2-.2-.3-.3Z" fill="#c47d59"/><path d="M445.7,169.2c-4.8-2.4-9.5-4.8-14-7,3.5,.6,12.8,5,14,7Z" fill="#c47d59"/><path d="M311.1,36.4c-4.2-4.2-8.1-8.8-12.9-12.4,5.4,3,9.2,7.7,12.9,12.4Z" fill="#c47d59"/><path d="M391.6,184.7c5.8,3.5,11.3,8.4,11.8,10.3-3.9-3.4-7.9-6.8-11.8-10.3Z" fill="#c47d59"/><path d="M303.7,125.8c-4.6-5.2-10.4-8.6-16.2-12.2,4.4,1.3,14.7,9,16.2,12.2Z" fill="#c47d59"/><path d="M342.1,117.6c-3.2,3.7-4.8,8-6.3,12.4,.6-4.2,2.2-8,4.6-11.4,.3-.5,.6-1.1,1.7-1Z" fill="#c47d59"/><path d="M335.6,151.4c3-3.8,4.2-8.5,6.1-12.8-1.4,4.6-2.3,9.4-6.1,12.8Z" fill="#c47d59"/><path d="M270.2,46.5c-2.7-2.3-5.1-5.1-7.2-8.1-.4-.5-.6-1.1-.9-1.6,0-.1,0-.4,0-.6,2.7,3.5,5.4,7,8,10.3Z" fill="#c47d59"/><path d="M292.3,188.9c-1.7,3.7-3.4,7.4-5.2,11.3,0-.6-.2-.8-.2-1.1,1.3-3.7,3-7.2,5.4-10.3Z" fill="#c47d59"/><path d="M386.4,26c.8-4.2,1.5-8.5,2.3-12.9,.6,.7,.4,1.4,.3,2-.6,3.7-1.3,7.4-2.7,10.8Z" fill="#c47d59"/><path d="M449.7,95.6c4.7,.5,9.4,1.2,13.9,3.3-4.7-1.1-9.4-2.2-13.9-3.3Z" fill="#c47d59"/><path d="M374.5,11.7c.8-3.7,1.6-7.3,2.4-11h.3c0,.4,.2,.8,0,1.1-.8,3.4-1.6,6.7-2.4,10.1-.1,0-.3-.1-.4-.2Z" fill="#c47d59"/><path d="M465.3,114.6c3.6,.6,7,.9,10.7,1.6-1.6,.7-7.9-.3-10.7-1.6Z" fill="#c47d59"/><path d="M334.6,153.6c.2,.7,.5,1.4,.4,2,0,3.2-1,6.2-2.2,9.1,.6-3.7,2.4-7.2,1.3-11h.5Z" fill="#c47d59"/><path d="M350.8,125.2c-.5-1.4-1.1-2.8-1.6-4.3-.6-1.7-1.5-3-3.3-3.5-.1,0-.3-.1-.4-.2,0,0,0,0,0-.1,1.4-.3,2.5,.1,3.2,1.4,1.2,2,1.9,4.3,2.1,6.7Z" fill="#c47d59"/><path d="M281.7,131c3.3,.2,6.6,.4,9.9,.6-3.4,.8-6.6-.1-9.9-.6Z" fill="#c47d59"/><path d="M438.5,167.8c2.4,.8,4.8,1.5,6.7,3.4-2.3-.9-4.5-2.1-6.7-3.4Z" fill="#c47d59"/><path d="M332,150.1c-1-2.3-.6-4.6,0-6.9v6.9Z" fill="#c47d59"/><path d="M226.1,97c2.5-.8,5.1-.4,7.6-.4-2.5,.3-5.1,.5-7.6,.8v-.4Z" fill="#c47d59"/><path d="M282.9,166.3c.7-2.5,2.3-4.4,4-6.2-1.3,2.1-2.7,4.1-4,6.2Z" fill="#c47d59"/><path d="M339.8,124.7c.4-2.2,1.2-4.2,2.4-5.9,.1,0,.2,.1,.4,.2-.9,1.9-1.9,3.8-2.8,5.7Z" fill="#c47d59"/><path d="M342.9,113.1c-.5-1.2-1-2.4-1.4-3.6,1.1,.2,1.6,1.2,1.4,3.6Z" fill="#c47d59"/></g><path d="M258.9,513.3c-.3-13.5-.6-27.1-.9-40.6-.3-11.9-.8-23.7-1-35.6-.1-6.6,0-13.2,.3-19.8,.2-6.6,.6-13.1,1.1-19.7,.3-4.3,1-8.5,1.7-12.7,3.7-23.8,13.4-45.3,25-66.1,3.3-5.9,7.1-11.6,11-17,3.2-4.4,6.5-8.9,9.7-13.3,9.7-13.5,16.3-28.5,20.8-44.5,3.5-12.3,6.3-24.7,8.3-37.3,1-6.2,1.8-12.3,2.7-18.5,0-.1,0-.3,0-.7-.8,1.2-1.6,2.1-2.3,3.2-.7,4.5-1.3,9.1-2.1,13.7-3.3,19.1-7.4,38-14.5,56.1-3.8,9.6-8.9,18.4-14.7,26.8-2.1,3-4,6.1-6.3,8.9-3.9,4.8-7.3,9.8-10.6,15-11.1,18-20,37-25.8,57.4-1.2,4.4-2.2,8.8-2.9,13.3-.9,5.9-1.5,11.9-2.1,17.8-1.3,13.3-1.8,26.7-1.5,40.1,.2,8.9,.6,17.9,.8,26.8,.3,8.4,.5,16.8,.7,25.2,.2,7.1,.5,14.3,.7,21.4h-1c0-2.2,0-4.4,0-6.7-.1-4.4-.4-8.8-.5-13.2-.3-9.3-.5-18.6-.8-27.9-.2-8-.5-16.1-.8-24.1-.3-8.9-.1-17.9,.4-26.8,.3-4.9,.5-9.7,1-14.6,.7-6.6,1.8-13.2,2.7-19.8,2.1-15.9,8.4-30.5,15-45,6.3-13.8,14-26.8,23.2-38.9,4.8-6.3,9.2-12.8,13.3-19.5,6-9.9,10.1-20.6,13.4-31.6,4.2-14.1,7.4-28.5,9.6-43,1-6.9,1.9-13.7,2.9-20.6,0-.3,.1-.5,.2-.8,1.3-1,2.6-2,4-3.1,0,.4,0,.8-.1,1.2-1.3,11.2-2.8,22.5-4.9,33.6-3,15.8-6.7,31.4-12.3,46.4-3.3,8.9-7.6,17.4-12.9,25.3-3.8,5.7-7.6,11.5-11.8,16.9-14.2,18.8-24.1,39.7-31.7,61.9-3.3,9.5-5,19.3-6.3,29.3-1,7.7-1.6,15.4-1.7,23.1,0,6.4-.5,12.8-.4,19.2,0,11.9,.3,23.7,.6,35.6,.2,10.3,.6,20.6,.9,30.9,.1,3.4,.2,6.9,.3,10.3,0,.6,.2,1.2,.3,1.9h-1Z" fill="#c47d59"/><path d="M428.6,83.9c.7-.2,1.4-.3,2.1-.5,2.9-.8,5.7-.5,8.5,.8,2.9,1.3,5.6,2.9,8,4.9,3.4,2.9,7.4,4.9,11.6,6.4,4.6,1.7,8.8,4.2,12.7,7.2,3.2,2.4,4.9,5.7,5.6,9.5,.5,2.7-.4,5.1-2.3,7.1-1.8,1.9-4,3.1-6.5,3.9-4.2,1.5-8.6,1.9-13,2-5.8,.1-11.5-.4-17.2-1.1-8.4-1-16.8-2.3-25.3-2.4-10.8,0-20.9,2.6-30.6,7.2-.5,.3-1.1,.6-1.6,.9,0,.1,0,.2,.1,.3,1.6-.1,3.1-.2,4.7-.4,6-.8,11.7,.2,17.4,2,5.8,1.8,10.9,4.8,15.8,8.4,2.2,1.6,4.6,3,7,4.4,6.3,3.7,12,8.2,16.6,13.9,1.5,1.9,2.8,3.9,3.6,6.1,.6,1.7,.8,3.5,.4,5.3-.4,1.8-1.4,3-3.1,3.5-1.5,.4-3,.7-4.5,.8-2.4,.1-4.7-.3-7.1-.9-3.2-.8-6.4-1.6-9.6-2.4-6.4-1.5-12.9-1.9-19.4-1.7-3.9,.1-7.8,.3-11.8,.5,0,.3,0,.5,.2,.7,4.8,6.2,8.1,13.3,11.3,20.4,2,4.4,4.5,8.3,7.9,11.8,4.1,4.2,7.2,9.1,9.1,14.7,.5,1.5,.9,2.9,.8,4.5-.1,2-1.2,3.4-3.2,3.8-1.5,.3-3,.2-4.4-.2-5.8-1.5-11.6-3-17.3-4.6-5-1.4-10.2-2.6-14.9-4.8-2.8-1.3-5.5-2.7-8.2-4.2-5.1-3-9.4-6.9-13.4-11.3-3.4-3.8-5.7-8.1-7.2-12.9-1.6-4.8-3.1-9.7-4.7-14.5-.5-1.6-1.3-3.1-2-4.6-.3-.7-.9-1.3-1.3-1.9-.2,2-.3,3.9-.6,5.7-.8,4.2-3.3,7.1-7,8.9-2,.9-4.1,1.6-6.3,2.1-4.1,1-8.2,1.8-12.1,3.3-5.4,2.1-10.3,5.1-15,8.6-1.7,1.3-3.4,2.7-5.3,3.8-1.8,1.1-3.7,2.1-5.8,2.6-3.2,.7-6.1-.4-8.4-2.7-1.7-1.6-2.6-3.6-3-5.9-.6-3.5-.2-7,.4-10.4,.4-2.2,.3-4.1-1-6.1-2.2-3.4-2.8-7.3-3.2-11.2-.5-5.6,.3-11,2-16.3,.4-1.2,1-2.3,1.5-3.5,.2-.4,.4-.8,.6-1.4-1.2-.3-2.4-.5-3.4-1-1.9-.8-4-1.5-5.7-2.7-3.3-2.2-6.5-4.5-9.6-7-6.1-5-12.6-9.3-19.8-12.5-2.1-.9-4.3-1.7-6.4-2.8-5-2.6-10.5-3.4-16-4.3-5.3-.9-10.6-.7-16,.3-.8,.2-1.7,.3-2.5,.2-1.3,0-1.8-.7-1.7-2,0-1.7,.7-3.2,1.8-4.5,1.5-1.7,3.2-2.9,5.2-3.9,1.4-.7,2.8-1.2,4.3-1.7,1.6-.5,3.3-.9,4.9-1.4,3-1.1,6-1.1,9.1-.5,.4,0,.7,0,1.3,.2-.2-.6-.3-1-.5-1.4-.7-1.5-.5-3,.6-4.1,.9-.9,1.8-1.8,2.9-2.4,4.9-3.1,10.2-4,15.8-3.3,3.8,.4,7.5,1.1,11.3,1.7,2.7,.4,5.3,.9,8,1.2,6.7,.7,12.7,3.3,18.4,6.9,7.4,4.6,13.6,10.4,18.9,17.3,2.1,2.7,3.9,5.5,5.8,8.3,1,1.5,1.3,1.6,3.5,1.8-.2-.6-.2-1.2-.5-1.6-1-1.7-2-3.4-3.2-4.9-2.7-3.7-5.9-7-9.1-10.3-5.4-5.5-10.9-11-16-16.8-6.9-7.9-12.6-16.6-17-26.1-3.2-6.9-5.2-14.1-4.8-21.8,.1-2.3,.6-4.5,1-6.7,.1-.6,.4-1.3,.8-1.7,1-1.1,.8-2.3,.6-3.6-.6-2.9-1.3-5.8-1.6-8.7-.3-2.7,.3-5.4,1.6-7.8,1.2-2.4,3.3-3.7,6-3.9,3.4-.3,6.7,.5,9.8,1.8,4.5,1.9,8.9,4.2,13.3,6.3,4.9,2.3,9.8,4.7,14.8,6.9,3.9,1.8,7.4,4.1,10.6,6.9,5.2,4.8,10.1,10,14.3,15.7,1.5,2.1,2.7,4.4,4.1,6.6,.2,.4,.5,.8,1,1.1,0-.8,.2-1.5,.2-2.3,.3-4.8,1.5-9.4,3-13.9,1.1-3.4,2.4-6.7,3.8-10.1,1.3-3.4,3.2-6.4,5.5-9.2,3.5-4.4,7.1-8.9,10.7-13.2,2.6-3.2,5.6-5.9,9.5-7.5,1.5-.6,3.1-1.1,4.7-1.3,3.9-.5,7.2,.7,9.8,3.7,1.1,1.3,2,2.7,3.1,4,1.5,1.9,2.8,3.8,4.5,5.6,8,8.5,10.8,18.7,10.5,30-.2,6.6-1.9,12.8-4,19-2.3,6.5-5.3,12.7-9.2,18.4-1,1.4-2.1,2.8-3.2,4.1-.3,.4-.6,.7-.9,1.1l.2,.3c.5-.3,1-.6,1.5-.9,5.9-3.6,12-6.5,18.7-8.2,4.9-1.3,9.8-2.1,14.9-1.7,3,.2,5.9,.9,8.5,2.3,.8,.4,1.6,.9,2.2,1.6,1.1,1,1,2.2-.2,3.1-.4,.4-.9,.7-1.3,1,0,0,0,.2,.1,.3Zm-103.5,57.3h.3c0-.5,0-.9,0-1.2-.4-7.9,.8-15.4,5-22.3,.7-1.1,1.5-2.4,2.6-3.1,2-1.3,3.1-3.3,4.9-4.5,.4-3.2,.8-6.1,1.3-9.1,.2-1.1,.6-2.2,.7-3.4,.2-1.9,.3-3.8,.3-5.7,.1-4.8-.3-9.5-1-14.2-.7-4-1.2-8.1-2-12-1.1-5.4-3.2-10.5-6.6-15-4.6-6-9.6-11.5-15.3-16.5-2.6-2.3-5.4-4.2-8.6-5.6-5.5-2.5-10.9-5.1-16.4-7.7-4.3-2-8.5-4.2-12.9-6.1-2.8-1.2-5.8-1.8-8.8-1.6-2.4,.2-4.2,1.3-5.4,3.4-.5,.9-.8,1.8-1.1,2.8-.8,2.8-.5,5.7,.1,8.5,.4,1.9,.9,3.7,1.3,5.6,.2,1,.2,1.9-.4,2.7-1.4,1.7-1.7,3.8-1.9,5.9-.8,8,.9,15.5,4,22.7,.4,.9,.9,1.7,1.5,2.4,3,3.5,6.4,6.6,10.3,9.1,3,1.9,6,3.7,9.1,5.6,5.6,3.4,11.3,6.7,16.3,11,4.9,4.1,9.2,8.8,12,14.6,2.1,4.5,3,9.3,3.7,14.2,.4,3.1,.7,6.2,1.3,9.3,.3,1.4,.8,2.9,1.6,4.1,1.1,1.9,2.5,3.6,3.7,5.3,.2,.2,.4,.4,.6,.7Zm13.8-31.7c2.4-.4,4.6-1.1,6.8,0,2.1,.9,3.8,2.2,4.7,4.5,3.7,1.5,3.9,5.2,5,8.7,.4-.8,.7-1.2,.9-1.6,1.4-3.1,2.6-6.4,4.3-9.4,4.1-7.5,9.6-13.8,16.1-19.3,4.2-3.6,8-7.7,11.1-12.4,5.4-8.1,9-17,11.2-26.4,1.3-5.6,1.9-11.1,1.2-16.8-1.1-8.6-4-16.3-10.2-22.6-2-2.1-3.6-4.6-5.4-6.9-.9-1.2-1.8-2.4-2.8-3.4-1.3-1.4-2.9-2.3-4.8-2.6-2.6-.4-5.1,0-7.5,1-3.8,1.6-6.8,4.2-9.4,7.4-3.7,4.5-7.4,9-10.9,13.6-2.5,3.2-4.6,6.7-6.1,10.5-1.4,3.7-2.7,7.4-3.9,11.2-.6,2-.9,4.1-1.3,6.2-.9,4.9-.9,9.8,.4,14.6,.8,3.1,1.5,6.3,2,9.4,.5,3.3,.7,6.7,.9,10.1,.3,5.2,.2,10.4-.6,15.5-.3,1.7-.4,3.5-1.1,5.2-.4,1-.3,2.1-.5,3.5Zm11.4,33.4c.1,0,.2,.2,.4,.3,4-2.5,7.9-5.1,10.8-8.9,2.5-3.4,4.9-6.9,7.3-10.4,2.4-3.5,5.1-6.7,8.7-9.1,6.8-4.6,14.4-6.8,22.6-6.7,6.6,0,13,1.5,19.3,3.5,2.8,.9,5.6,1.8,8.4,2.8,2.7,.9,5.3,1.9,7.9,2.8,2.1,.7,4.2,1.6,6.4,2.2,6,1.7,12,2.8,18.2,3.6,5.2,.7,9.6-.8,13.4-4.3,1.7-1.5,2.7-3.6,2.3-6-.6-3.7-2.2-6.8-5.2-9.2-3.6-2.7-7.4-5.2-11.6-6.8-4.9-1.8-9.6-4.2-13.6-7.6-1.8-1.5-3.9-2.5-5.9-3.7-3.3-1.9-6.7-2-10.3-.7-1.2,.4-2.4,.9-3.6,1.2-.5,.1-1,.1-1.6,.2,0-.2-.1-.3-.2-.5,1.4-2.1,4-2.8,5.7-4.5-.4-1.3-1.4-1.8-2.3-2.3-3.6-2-7.6-2.5-11.7-2.3-6,.3-11.8,1.6-17.5,3.8-9.7,3.8-18.1,9.4-25.5,16.7-5.3,5.2-9.7,11-13,17.7-1.3,2.8-2.5,5.6-3.8,8.4-.5,1.1-.9,2.2-.9,3.5,0,5.4-1.6,10.3-4.2,15-.2,.4-.5,.9-.7,1.3Zm-8.1,25.8c0-5.3-1.8-9.3-5.6-13-1.5-1.5-3.2-2.9-4.9-4.3-2.2-1.8-4.1-3.9-5.6-6.4-1.1-1.8-2.1-3.5-3.3-5.2-2.3-3.5-4.8-6.8-8-9.6-2.8-2.4-6-3.7-9.8-3.5-2.4,.1-4.6,.9-6.7,1.9-8.8,4.2-14.9,10.9-18.8,19.8-1.9,4.3-1.7,8.5,.7,12.6,1,1.7,2.1,3.4,3,5.2,.9,1.8,1.8,3.7,2.4,5.7,1.2,3.9,.6,7.9-.1,11.8-.6,3-1.1,5.9-1.6,8.9-.3,1.6,0,3.2,.8,4.6,1.4,2.7,3.3,3.6,5.8,3.3,1.9-.2,3.4-1.1,4.8-2.3,2.1-2,3.7-4.3,5.2-6.8,1.3-2.2,2.5-4.5,4-6.7,4.8-7,11.4-9.7,19.7-7.8,2.7,.6,5.3,1.3,8,2.1,3.4,1,7.7-1.3,8.9-4.3,.8-2,1.3-4.1,1.3-5.9Zm-1.2-9.8c1.3-.4,2.5-.8,3.7-1,5.5-1,11-.7,16.4,.4,1.2,.3,2.5,.4,3.7,.6,2.4,.3,4.7,.6,7.1,1,5.2,.9,10.4,1.4,15.6,1,3.9-.4,7.9-.7,11.9-.8,3.6,0,7.1,.4,10.4,1.9,3.5,1.5,7,3.1,10.4,4.6,4.4,1.9,8.8,3.9,13.2,5.7,2.9,1.2,5.9,1.1,8.9,.1,1.8-.6,2.7-1.8,2.9-3.6,.2-1.5,0-2.9-.6-4.2-1-2-2.1-3.9-3.4-5.7-4.2-5.3-9.4-9.5-15.1-12.9-3.8-2.3-7.6-4.6-11.2-7.2-3.7-2.7-7.8-4.6-12.2-6.1-6.6-2.2-13.4-2.6-20.2-1.6-7.8,1.2-15.2,3.6-22.1,7.5-3.1,1.8-6.3,3.5-9.4,5.4-1.5,.9-2.9,2.1-4.4,3.1-.9,.7-1.9,1.4-2.9,2-1.4,.8-2.9,1.3-4.2,2.2-1.1,.7-2.2,1.3-3.5,1.2-.2,0-.4,.2-.7,.3,2,2.1,3.8,4.1,5.8,6.1Zm-34.8-33.4c-.2-.4-.2-.6-.3-.8-2.2-3.2-4.3-6.4-6.7-9.4-5.6-7-12.3-12.7-20.1-17.1-4.8-2.8-10-4.4-15.6-5.2-4.6-.7-9.2-1.4-13.8-2.1-2.7-.4-5.4-.8-8-.8-5.1-.1-9.8,1.3-13.9,4.5-2.2,1.7-2.3,2.9-.9,5.3,.3,.5,.5,1,.8,1.7-.6,0-1,.2-1.3,.1-1.2-.1-2.3-.3-3.5-.5-1.9-.4-3.7-.3-5.5,.2-2.2,.6-4.4,1.2-6.6,1.9-2.3,.7-4.5,1.6-6.5,3-1.4,1-2.8,2.2-3.6,3.7-.5,1-1,2.1-.3,3.3,.3,0,.5,.1,.8,.1,.4,0,.9,0,1.3-.1,5.1-1.2,10.1-2.3,15.1-3.5,3-.7,6-1.8,9-2.5,8.6-2,16.2,0,22.6,6.1,1.7,1.6,3.3,3.4,4.8,5.2,2.8,3.4,5.5,6.9,8.2,10.3,1.5,1.9,2.9,3.9,4.4,5.8,2.4,3.1,5.3,5.6,9,7,1.7,.6,3.4,1.6,5.4,1.2,.3-.5,.7-.9,1-1.4,3.3-4.8,7.3-8.8,12.1-12,2.7-1.8,5.6-2.9,8.8-3.5,1-.2,2-.3,3.1-.5Zm35.3,34.7c.1,.2,.2,.3,.4,.4,2.4,.9,4.5,2.4,6.4,4,3.3,2.7,6,5.9,8.2,9.4,2.1,3.3,4,6.7,5.9,10.1,2.1,3.8,5,6.6,9.1,8.1,3.5,1.2,6.5,3.3,9.2,5.8,4.4,3.9,7.8,8.6,11.6,13,2.3,2.7,4.6,5.4,7.7,7.3,2.7,1.6,5.5,3.1,8.4,4.4,2.1,1,4.4,1.8,6.8,1.8,2.8,0,4.2-1.7,3.6-4.4-.7-3.6-2.3-6.8-4.1-9.9-1.8-3-4-5.6-6.4-8.1-2.8-2.9-5-6.2-6.7-10-1.3-2.9-2.7-5.7-4.1-8.6-2-4.2-4.4-8.2-7.1-12-1-1.4-2.2-2.2-4-2.5-2.2-.4-4.4-1-6.5-1.8-2.5-1-4.9-2.3-7.3-3.5-6.6-3.5-13.6-5.5-21.1-5.4-2.6,0-5.3,.4-7.9,.7-.8,.1-1.8,.2-2.2,1.2Zm19.1-23.3c.1,0,.2,.2,.2,.1,.2,0,.4,0,.6-.2,4.8-2.5,9.8-4.4,15.1-5.7,.5-.1,1-.3,1.4-.6,5.9-4,12.5-6.2,19.3-8,9.3-2.4,18.8-2.1,28.2-1,6.5,.8,13,1.7,19.5,2.2,4,.4,8.1,.2,12.2,.3,.5,0,1.2,.1,1.7-.4-4.4-.8-8.7-1.4-12.9-2.5-4.6-1.1-9.1-2.5-13.6-4.3-5-2.1-10.3-3.5-15.5-5.2-5.9-1.9-11.9-2.9-18.1-2.7-9.3,.3-17.7,3-24.4,9.7-1.9,1.9-3.5,3.9-5.1,6-2.8,3.7-5.6,7.6-8.4,11.4-.1,.2-.3,.4-.4,.6Zm43.2,85.1v-.3c0,0,0-.2-.1-.2-.4-.2-.8-.5-1.2-.7-4.1-1.9-7.3-4.9-10.1-8.3-2.4-2.8-4.7-5.7-7.1-8.5-4.3-5.1-9.2-9.3-15.6-11.6-2.4-.9-4.3-2.5-5.8-4.5-1-1.4-1.9-2.9-2.8-4.4-1.9-3.2-3.7-6.4-5.7-9.6-3-4.8-6.9-8.8-11.8-11.8-.4-.2-.8-.5-1.2-.7l-.3,.3c.3,.7,.5,1.5,.9,2.2,.5,.9,1.2,1.7,1.7,2.6,1.1,2.3,2.4,4.5,3.2,6.9,1.7,4.8,3.2,9.6,4.8,14.5,1.6,4.9,4.2,9.2,7.8,12.9,3.7,3.8,7.6,7.3,12.2,10,2.9,1.7,5.9,3.3,9,4.7,5.6,2.4,11.6,3.6,17.4,5.3,1.6,.5,3.2,.9,4.9,1.3ZM268.2,70.3c0,0-.1,0-.2,.1,.1,.4,.3,.8,.4,1.1,4.7,8.6,10.3,16.6,17.1,23.8,4.4,4.8,9.1,9.3,13.6,14,2.7,2.9,5.3,5.9,7.9,8.9,2.2,2.6,4,5.4,4.7,8.6,1.2,.8,2.3,1.5,3.4,2.3,1,.8,1.9,1.6,3,2.5,.1-.4,.2-.5,.2-.6-.7-4.8-1.3-9.7-2.1-14.4-1.1-6.1-3.6-11.5-7.5-16.2-2.9-3.4-6.1-6.4-9.7-9.1-5.2-4-10.9-7.3-16.6-10.6-4.8-2.9-9.5-6-13.4-10-.2-.2-.4-.3-.6-.5Zm58.1,66.5c0,.9,.1,2,.1,3.1,.1,4.5,2.3,7.8,5.9,10.3,.9,.6,2,1,3,1.2,2.2,.5,3.7-1.1,5-2.5,2.2-2.4,3.8-5.4,4.9-8.4,1.8-5.1,1.7-10.4,.8-15.7-.2-1.5-.8-3-1.7-4.2-1.1-1.5-2.2-2.9-2.9-4.7-.4-.9-1-1.6-2.1-1.8-2.8-.7-6.1,.6-7.6,3-3.8,5.9-5.4,12.5-5.5,19.6Zm-61.6-2.3c0,0,.2-.2,.3-.2-.1-.2-.2-.4-.4-.6-1.7-2.3-3.3-4.7-5-6.9-2.3-2.9-4.7-5.6-7-8.4-1.9-2.5-4.1-4.7-6.7-6.5-1.9-1.3-4-2.5-6.1-3.3-3.4-1.3-6.9-1.3-10.5-.8-5,.7-9.7,2.6-14.5,3.9-.1,0-.3,.2-.5,.5,2.2,.3,4.2,.4,6.2,.8,4.5,1,9.1,2,13.6,3.3,2.7,.8,5.2,2.3,7.8,3.4,7.6,3.2,14.4,7.6,20.6,13,.8,.6,1.6,1.2,2.4,1.8Zm103.6,25.5c0,0,0,.2-.1,.3,.1,.1,.2,.3,.3,.3,3.3,1.6,6.5,3.2,9.8,4.8,3.4,1.6,6.9,2.8,10.6,2.9,2.5,0,5.1,0,7.6-.1,9.4-.6,18.8-.3,28,2.1,.3,0,.7,0,1.1,0-.3-.4-.6-.6-.9-.7-3.5-1.6-7-3.3-10.5-4.9-3.1-1.5-6.3-2.7-9.7-3.3-4.4-.8-8.9-.6-13.3,0-7.1,.9-14,.6-20.9-1.1-.7-.2-1.3-.3-2-.4Zm-33.5,20.4c-2.9-.7-5.3-1.4-7.7-2-.6-.2-1.2-.3-1.8-.5-2.9-.7-5.8-1.1-8.8-.6-4.3,.7-7.7,2.9-10.3,6.3-1.2,1.5-2.2,3.2-3.2,4.9-1.6,2.5-3.2,5.1-4.8,7.7-.1,.2-.2,.4-.2,.6,1.3-.6,2.4-1.5,3.5-2.3,6.8-5.1,14.1-9.2,22.5-11.1,2.1-.5,4.3-.9,6.4-1.4,1.5-.4,2.9-.9,4.7-1.5Zm7.6-31.9c.4-.1,.7-.1,.8-.2,1.3-1.1,2.9-2,4-3.3,4.5-5.1,6.6-11.2,7-18,.2-3.3-.2-6.5-1.6-9.6-1.2-2.5-3.2-3.1-5.4-1.5-.4,.3-.9,.6-1.3,.9-1.1,.9-1.3,2-.5,3.2,1,1.5,1.6,3.1,1.8,4.9,.3,2.3,.5,4.5,.5,6.8,0,5.2-1,10.2-4.1,14.5-.5,.6-.7,1.5-1.1,2.4Zm-64.7,8.4h-.3c0,.2-.2,.4-.2,.6-.5,6.7-.2,13.2,3.5,19.2,.8,1.4,1.1,2.8,.8,4.4-.4,2.6-.8,5.1-.8,7.7,0,1.9,.3,3.8,.7,5.6,.3,1.4,1.1,2.6,2.3,3.5,0-.2,.1-.3,0-.4-1.2-2.7-1-5.5-.5-8.3,.6-3.2,1.2-6.3,1.7-9.5,.7-4.2,0-8.2-2-12-1.9-3.6-4.3-6.9-5.3-10.9Zm71.3-43.1c-1-2.5-4.5-4.1-6.7-3.9-2.1,.3-4.2,.7-5.6,3,2.4,0,4.5,.2,5.6,2.1,2.7,1.1,4.6-.4,6.7-1.3Z" fill="#c47d59"/></g><g><g><path d="M116.4,319.7v1.9h-.3c-.7-1.9-1.3-4-2-6-.8-2-1.6-4-2.5-6-1-2-2-3.9-3.1-5.9-1.1-1.9-2.2-3.7-3.2-5.6,3.9,4.9,6.8,10.4,9.4,16.4,0-.4,.2-.6,.2-.7,0-.2,0-.4-.1-.6-1.9-8.2-5.6-15.4-10.4-22.3-4.3-6.1-10-10.7-15.7-15.3-.3-.2-.6-.5-.8-.9,.3,.1,.6,.2,.8,.4,5.6,4,10.9,8.3,15.1,13.7,5.5,7.1,9.6,14.9,11.6,23.7,.3,1.4,.2,2.8,.5,4.2,.1,1,.4,1.9,.7,2.8h0Z" fill="#fff"/><path d="M176.3,261.1c-3.2,3.2-6.5,6.3-9.7,9.6-5.2,5.4-10,11.1-13.7,17.6-3.6,6.4-6.9,13-8.6,20.2-.5,1.9-.7,3.9-1.1,6-.5-1.2-.3-2.4-.1-3.5,1.1-6.7,4-12.8,6.9-18.8,4.7-9.6,11.8-17.3,19.2-24.9,2.2-2.3,4.6-4.4,6.8-6.6l.3,.4Z" fill="#fff"/><path d="M125.1,295c0-1.1,0-2.2,0-3.2,.1-2.1,.5-4.1,.5-6.1,.2-7.6,.3-15.1,.3-22.7,0-5.6-.2-11.2-.3-16.8,0-3.6-.2-7.2,0-10.8,.2,5.8,.5,11.5,.7,17.3,.2,7.5,.5,15,.5,22.5,0,4.9-.3,9.8-.6,14.7,0,1.7-.4,3.4-.6,5.1h-.5Z" fill="#fff"/><path d="M124.4,333.8c-.2-.1-.5-.2-.6-.4-6.2-5.6-13.6-9.1-21.4-11.7-6.6-2.2-13.3-3.8-20-5.1-1.4-.3-2.8-.4-4.4-.5,3.3,0,6.4,.3,9.4,.9,7.5,1.5,14.8,3.4,21.8,6.3,4.7,1.9,9,4.4,12.9,7.6,.9,.8,2,1.5,2.3,2.9Z" fill="#fff"/><path d="M170.7,319.9c.5-.5,.9-1,1.4-1.3,3.2-2.3,6.7-4.1,10.3-5.5,4.9-1.9,9.9-3.2,15.1-3.9,4.7-.6,9.3-1.2,14-1.2,3.4,0,6.9,0,10.3,.2-.8,0-1.7,0-2.5,0-5.2,0-10.3,.5-15.5,.9-6.9,.6-13.7,1.9-20.2,4.4-4.3,1.6-8.4,3.7-12.1,6.4-.2,.1-.3,.2-.5,.3-.1-.1-.2-.2-.3-.4Z" fill="#fff"/><path d="M159,252.7c2.4-4.3,5.4-8.1,8.6-11.7,5.7-6.4,11.7-12.4,19-16.9,2.6-1.6,5.4-2.9,8.1-4.3,.6-.3,1.4-.3,2.1-.5v.3c-.3,.2-.6,.3-1,.5-5.6,2.3-10.7,5.6-15.4,9.4-6.2,5-11.6,11-16.7,17.1-1.7,2-3.2,4.1-4.8,6.1Z" fill="#fff"/><path d="M54.8,243.6c.5,0,1,0,1.5,.2,5.7,1.2,10.8,3.8,15.9,6.5,11.3,6,20.1,14.8,27.2,25.4-.2-.2-.5-.4-.6-.6-3.6-4.7-7.2-9.4-11.7-13.4-8.8-7.9-18.9-13.6-30.3-17-.7-.2-1.4-.4-2.1-.6,0-.2,0-.3,0-.5Z" fill="#fff"/><path d="M97.5,229.9c.1,1.1,.3,2.2,.4,3.4,1.1,12.3,4.6,24,8.5,35.6,1.2,3.4,2.4,6.9,3.6,10.3,0,.1,0,.3-.1,.5-.5-1.2-1.1-2.3-1.5-3.5-3.7-9.8-7-19.7-9.2-29.9-.9-4.5-1.6-9-1.7-13.6,0-.9-.1-1.8-.2-2.7,0,0,.2,0,.3,0Z" fill="#fff"/><path d="M105.3,190c-.3,1-.5,2-.8,3-1.2,3.9-1.6,8-1.7,12,0,2.8,.3,5.6,.5,8.4,.3,3,.7,6,1.2,8.9,.6,3.9,1.4,7.8,2.1,11.8-.6-2.3-1.4-4.6-1.8-6.9-.8-4.5-1.6-9-2.2-13.5-.6-4.3-.7-8.7-.4-13.1,.3-3.3,1-6.5,2-9.6,0-.3,.2-.6,.4-.9,0-.1,.2-.2,.4-.3,.1,0,.2,0,.3,.1Z" fill="#fff"/><path d="M104.8,325.1c-2.8-.7-5.5-1.3-8.3-2-5-1.2-10.1-2.1-15.2-2.8-5.2-.7-10.5-1.1-15.8-.9-3.5,.2-7,.7-10.5,1.1-.3,0-.6,0-1,0,.7-.2,1.5-.4,2.2-.6,.8-.2,1.6-.3,2.3-.4,4.5-.7,8.9-.8,13.4-.7,4.8,.1,9.6,.7,14.3,1.5,5.6,.9,11,2.2,16.4,3.8,.7,.2,1.4,.5,2.1,.7v.2Z" fill="#fff"/><path d="M145.3,325.3c2.3-1.1,4.4-1.5,6.5-1.6,3.6-.2,7,1,10.1,2.7,4.9,2.7,8.8,6.6,12,11.2,1.9,2.7,3.6,5.4,4.6,8.6-.2-.4-.5-.8-.7-1.3-2.7-4.6-5.6-9.1-9.5-12.9-2.8-2.6-5.9-4.8-9.5-6.3-3.7-1.5-7.4-1.7-11.2-.7-.6,.1-1.1,.3-1.7,.4,0,0-.2,0-.7-.1Z" fill="#fff"/><path d="M139.3,194.7c1.3,1.7,1.6,3.6,1.9,5.6,.7,5.3,.5,10.7,.3,16-.1,3.3-.5,6.6-.9,9.9-.4,3.3-.9,6.7-1.3,10,0,.6-.2,1.2-.5,1.8,.1-1,.2-2.1,.3-3.1,.5-4.9,1.2-9.9,1.5-14.8,.3-4.9,.4-9.7,.3-14.6,0-3.3-.4-6.6-1.4-9.8-.1-.3,0-.7-.1-1.1Z" fill="#fff"/><path d="M160.3,356.6c-1.7-3.4-3.3-6.7-5.1-9.8-1.7-2.9-3.5-5.6-5.4-8.4-.9-1.3-2.1-2.4-3.2-3.5-2.2-2-4.7-3.6-8-3.6,.8-.6,2-.7,3.1-.4,1.8,.5,3.4,1.5,4.8,2.7,2.1,1.8,4,3.8,5.5,6.1,3.3,5,6.2,10.3,8.1,16.1,0,.2,0,.4,.2,.7Z" fill="#fff"/><path d="M118.9,292.6c-5.5-12.5-10-25.4-11.9-39.2,1.8,6.8,3.3,13.4,5.3,19.9,2,6.5,4.4,12.9,6.6,19.3Z" fill="#fff"/><path d="M18.2,253.8c1-.1,1.9-.3,2.9-.4,4-.2,7.9,.2,11.8,.9,5.3,1,10.5,2.2,15.6,3.9,.8,.3,1.7,.6,2.4,1.1-3.6-.9-7.2-1.9-10.8-2.7-3.6-.8-7.2-1.5-10.9-1.9-3.7-.4-7.4-.4-11.1-.5v-.4Z" fill="#fff"/><path d="M225.9,295.8c-.4,0-.7,0-1,0-6.1-.1-12,.9-17.8,2.4-5.9,1.5-11.7,3.1-17.4,4.6,.4-.2,.8-.4,1.3-.6,7.2-2.7,14.7-4.6,22.2-6.1,3.6-.7,7.3-1.1,11-.9,.4,0,.8,0,1.3,0,0,0,.2,.1,.4,.4Z" fill="#fff"/><path d="M31.5,271.9c-4.8,.4-9.5,.7-14.2,.2-2-.2-4.1-.2-6.2-.4-3.1-.3-6.1-.8-8.9-2.2-.5-.2-.9-.6-1.3-.9,0-.1,.1-.3,.2-.4,.4,0,.8,.2,1.1,.3,3,1.3,6.1,2,9.3,2.2,3.4,.3,6.8,.5,10.3,.6,3.2,.2,6.3,.3,9.6,.4Z" fill="#fff"/><path d="M168,290c8.7-6.8,17.3-13.6,26-20.5-7.9,7.8-16.6,14.5-26,20.5Z" fill="#fff"/><path d="M80.1,333.4c2.1-.4,4.2-1,6.3-1.2,3.3-.3,6.7-.4,10-.3,4.8,.2,9.7,.8,14.5,1.2,.5,0,1,.2,1.5,.5-1.6-.1-3.2-.3-4.8-.3-3.9-.2-7.8-.5-11.7-.6-4.9-.1-9.7,0-14.5,1.2-.4,.1-.9,0-1.3,0,0-.2,0-.4,0-.6Z" fill="#fff"/><path d="M120.8,243.7c-.4-15.6-.7-31.1-3.2-46.6,.3,1.4,.8,2.7,.9,4.1,.5,4.1,1,8.2,1.3,12.3,.4,5.1,.7,10.1,.9,15.2,.1,5,0,10,0,15Z" fill="#fff"/><path d="M227,237.1c-.3,.5-.5,1.1-.9,1.5-1.1,1.2-2.2,2.4-3.5,3.4-5.7,4.4-11.5,8.8-17.3,13.2-.1,0-.3,.1-.7,.3,7.2-6.7,15.5-11.7,22.1-18.7,.1,0,.2,.2,.3,.3Z" fill="#fff"/><path d="M216.9,321.5c-1.4,1.6-3.3,2.2-5.1,2.6-3.5,.8-7,1.1-10.5,1.4-4.2,.3-8.4,.6-12.7,.5-.5,0-1.1,0-1.6-.2,1,0,1.9-.2,2.9-.3,3.8-.2,7.6-.4,11.4-.7,3.9-.4,7.9-.8,11.7-1.9,1.3-.4,2.6-.9,4-1.4Z" fill="#fff"/><path d="M86.2,308.3c-6.1-1.3-12.1-3-18.3-3.2-6.2-.2-12.3,.3-18.4,1.6,.3-.2,.6-.4,1-.5,2.5-.5,5.1-1,7.6-1.3,2.4-.3,4.8-.3,7.3-.4,5.5-.2,10.8,1,16,2.4,1.6,.4,3.2,.9,4.8,1.4Z" fill="#fff"/><path d="M132.9,335.3c0,.2,0,.4-.1,.6-1.9,3.4-1.9,7-1.2,10.6,.9,4.8,2.1,9.6,4,14.1-1.8-2.9-2.9-6-3.7-9.2-.4-1.5-.7-3-1-4.5-.2-1.1-.5-2.2-.7-3.3-.5-2.8,.5-5.3,1.7-7.7,.2-.3,.5-.6,.8-.8,.1,0,.2,.2,.3,.2Z" fill="#fff"/><path d="M134.1,265.5c.2,4.2,0,8.4-.5,12.5-.4,3-.6,6.1-1,9.1-.2,1.6-.7,3.2-1.1,4.8-.1,.5-.6,.9-1.1,1.2-.3-1.4,.8-2.3,.8-3.6,0-1.4,.5-2.7,.8-4,.2-1.3,.4-2.6,.6-3.9,.2-1.4,.3-2.7,.4-4.1,.1-1.3,.2-2.6,.3-3.9,.1-1.4,.2-2.7,.4-4.1,.1-1.3,.3-2.6,.4-3.9Z" fill="#fff"/><path d="M187.4,241.8c.3-.3,.4-.5,.6-.7,7.2-6.1,14.5-12.2,22.7-16.9,3.8-2.2,7.8-4.2,12-5.6,.2,0,.4,0,.6,0-6.7,2.6-13,5.9-18.9,10.1-5.7,4.2-11.3,8.6-17.1,13Z" fill="#fff"/><path d="M175.3,377.5c-.1-.3-.4-.6-.4-.8,0-.9,0-1.8,0-2.7,.3-5-.8-9.8-1.8-14.7-.4-1.8-.8-3.6-1.2-5.7,2.4,4.9,4.7,16.6,3.3,23.9Z" fill="#fff"/><path d="M147,358c4,10,10.1,18.7,16.2,27.4-3.8-2.6-15.3-21.8-16.2-27.4Z" fill="#fff"/><path d="M142.1,307.1c0-.4-.1-.8,0-1.1,.6-4.7,1.9-9.2,3.7-13.5,1.6-3.9,3.5-7.7,5.7-11.3,.3-.5,.6-.9,1-1.3-4.7,8.6-8.8,17.4-10.1,27.3-.1,0-.2,0-.3,0Z" fill="#fff"/><path d="M20.8,321.6c2-2.8,16.3-8.2,20.5-8.1-3.5,1.2-7,2.4-10.5,3.6-3.5,1.2-6.7,2.8-10,4.4Z" fill="#fff"/><path d="M133.7,320.4c-.1-2.6-.2-5.3-.4-7.9-.3-2.8-.7-5.5-1.3-8.3-.3-1.3-1.1-2.4-1.6-3.7,.7-.1,1,.5,1.3,.9,1.2,1.7,1.7,3.6,1.9,5.6,.3,2.3,.5,4.7,.6,7.1,0,2.1-.2,4.2-.2,6.3h-.1Z" fill="#fff"/><path d="M192.8,313.5c-7.2,2.4-14.2,4.4-20.6,8.2,.1-.3,.2-.7,.4-.8,.8-.6,1.6-1.2,2.5-1.6,5.4-2.6,11-4.5,16.9-5.8,.2,0,.3,0,.8,0Z" fill="#fff"/><path d="M106.8,189.8c-.4,3.7-.9,7.4-1.2,11.1-.3,3.7-.3,7.4-.5,10.2-.9-7.1,0-19.1,1.7-21.3Z" fill="#fff"/><path d="M116.5,319.7c0-3.4,.1-6.7,1.3-10,.9-2.7,2.2-5.1,3.8-7.5,.2-.2,.4-.4,.6-.6-1.6,3.1-3.4,6.2-4.3,9.6-.8,3.5-1.2,6.9-.3,10.5-.1,0-.2,0-.3,0-.3-.7-.6-1.5-.9-2.2h0Z" fill="#fff"/><path d="M45.8,254.7c-5.8-1-11.4-2.8-17.5-2.1,.3-.9,.9-.9,1.4-.9,2.2,0,4.5,0,6.6,.4,2.9,.5,5.7,1.4,8.6,2.2,.3,0,.6,.2,.9,.4Z" fill="#fff"/><path d="M155.2,339c-2-1.9-4-3.8-6-5.6-2.2-2-4.7-3.4-7.8-3.4-.2,0-.4-.1-.7-.2,1.3-.8,2.5-.3,3.6,0,1.1,.3,2.2,.8,3.1,1.5,2.6,1.7,5.9,5,7.8,7.7Z" fill="#fff"/><path d="M19.1,325.1c1.2-1.8,8.3-5.2,13.1-6.1-1.5,.6-2.9,1.3-4.4,1.9-1.5,.7-3,1.4-4.4,2-1.4,.6-2.7,1.6-4.2,2.1Z" fill="#fff"/><path d="M216,250.5c3.8-3.6,7.3-6.9,10.8-10.2,0,.2,0,.5-.1,.7-.4,.6-.9,1.4-1.5,1.9-2.8,2.4-5.6,4.8-8.4,7.2-.1,.1-.3,.2-.8,.5Z" fill="#fff"/><path d="M210.6,326.5c-2.1,1.4-8.1,2-14.2,1.7,4.2-.5,9.1-1.1,14.2-1.7Z" fill="#fff"/><path d="M178,370.8c-.1-1.3-.2-2.5-.3-3.8-.2-1.2-.5-2.5-.8-3.7-.3-1.3-.6-2.5-.8-3.8,1.6,3.6,2.9,7.2,2.6,11.2-.2,0-.4,0-.6,.1Z" fill="#fff"/><path d="M246.8,312.1c-4.1-1-8.1-2-12-3,2.7-.1,10.9,1.6,12,2.6,0,.1,0,.2,0,.4Z" fill="#fff"/><path d="M132.6,292.9c.8-3.7,1.6-7.5,2.4-11.1,.2,3.3-1,9.7-2.4,11.1Z" fill="#fff"/><path d="M132.2,299.7c1.7,1.3,3.6,6.8,3.5,10.7-.5-1.9-.9-3.7-1.5-5.5-.6-1.8-1.4-3.5-2-5.2Z" fill="#fff"/><path d="M205.1,230.6c3.9-2.9,8-5.6,12.5-7.5-4.2,2.5-8.3,5-12.5,7.5Z" fill="#fff"/><path d="M152.7,366.4c1.9,3.2,3.7,6.4,5.6,9.5-.1,0-.2,.1-.3,.2-2-3.1-3.9-6.3-5.3-9.7Z" fill="#fff"/><path d="M129.1,298.4c0-1.4,.1-2.8,.2-4.2,.8,1.7,.7,3.4-.2,4.2Z" fill="#fff"/></g><path d="M220.3,512.6c-1.2-3.9-2.2-7.8-3.6-11.7-5.6-15.8-14.2-29.9-25.4-42.3-4.1-4.6-8.4-9-12.7-13.4-3.6-3.7-7.5-7.3-11.1-11.1-4.9-5.2-9.8-10.6-14.4-16.1-5.1-6-9.2-12.7-12-20.1-2.5-6.5-4.8-13.1-6.2-19.9-.1-.5-.3-1-.4-1.6-.7-.4-1.4-.7-2.2-1.2,0,.5,0,.9,0,1.2,1.7,8,4.4,15.8,7.4,23.4,4,10.2,10.5,18.7,17.8,26.8,1,1.1,2,2.2,3,3.2,5.3,5.6,10.7,11.2,16,16.7,3.6,3.7,7.3,7.3,10.9,11.1,13.9,14.8,24,31.9,29.6,51.5,.3,1.1,.7,2.2,1,3.3h-1c-1.7-5.2-3.2-10.5-5.2-15.6-4.9-12.4-11.9-23.6-20.6-33.7-4-4.7-8.4-9.1-12.7-13.6-5.1-5.2-10.4-10.2-15.4-15.6-6.3-6.7-12.7-13.3-17.6-21.2-1.6-2.6-3.4-5.2-4.6-8-3.2-7.4-6.3-14.8-8.1-22.7-1-4.3-1.8-8.6-2.7-12.9,0-.5,0-.9-.1-1.7,1.2,1.3,2.5,1.4,3.9,1.5,.2,.8,.4,1.6,.5,2.3,1.3,7.2,3.4,14.2,5.6,21.1,3.6,11.4,10.1,21.1,17.9,30,1,1.1,2,2.2,3,3.3,5.2,5.5,10.4,11,15.7,16.4,4,4.1,8.1,8.2,12.1,12.3,15.2,15.9,25.9,34.4,31.8,55.7,.2,.8,.4,1.5,.7,2.3h-1Z" fill="#fff"/><path d="M121.6,342c-.8-.5-1.5-1-2.3-1.4-4.4-2-9-3-13.8-3.5-6.4-.6-12.6,.7-18.8,2.3-4.1,1.1-8.2,1.7-12.4,1.1-2.6-.4-5.2-1-7.7-1.7-5.1-1.4-10.2-2.9-15.4-3.7-4.2-.7-8.4-.9-12.6-.9-3.3,0-6.7,.2-10,0-2.1-.1-4.2-.8-6.3-1.2-.5-.1-1-.4-1.4-.6-2.9-1.6-3.6-3.3-2.9-6.8,.4-1.9,1.4-3.4,2.7-4.8,2.5-2.8,5.5-5,8.7-6.9,4.8-2.8,9.8-5.1,15.2-6.6,2.8-.8,5.5-1.8,8.2-2.9,6.9-2.9,14-4.3,21.5-4,3.9,.2,7.7,.7,11.3,2.1,1.5,.6,3.2,1.1,4.9,1.4-.4-.4-.9-.8-1.3-1.2-9.3-7.5-19.7-12.7-31.5-14.8-2.9-.5-5.9-1.2-8.8-1.7-2.4-.4-4.9-.6-7.4-.8-9-1-18.1-1.9-26.8-4.8-3.2-1.1-6.2-2.5-8.9-4.4-1.8-1.3-3.3-2.8-4.4-4.7-1.5-2.5-1.6-5-.3-7.6,1.8-3.6,4.5-6.2,8.2-7.8,4.9-2.1,10-3.5,15.3-4,4.1-.4,7.9-1.9,11.5-3.8,3.3-1.7,6.8-2.6,10.5-2.8,1.5,0,3.1,.5,4.6,1,1.1,.4,2.1,1,3.3,1.4-.4-.4-.8-.9-1.2-1.3-1-1.3-.8-2.5,.6-3.3,1.6-.9,3.5-1.3,5.3-1.4,4.8-.4,9.3,.7,13.8,2.4,8.5,3.3,15.7,8.4,22.2,14.8,.6,.6,1.2,1.2,2,1.6-.2-.4-.3-.8-.5-1.2-3.3-6.3-5.2-13-6.3-20-.8-5.1-1.3-10.2-1.2-15.3,.2-9.4,2.6-18.2,7.9-26,2.3-3.4,5-6.4,8.5-8.7,3.3-2.2,6.4-4.7,9.3-7.4,1.6-1.4,3.3-2.6,5.4-3.3,3.2-.9,6.2-.3,9,1.2,3.1,1.8,5.8,4,7.9,7,2.6,4,10.4,20.4,11.8,25.1,1,3.5,1.5,7,1.8,10.6,.2,2.8,.4,5.7,.5,8.5,.2,3.7-.1,7.3-.7,10.9,0,.4-.1,.7-.2,1.1,0,.1,0,.3,.5,.7,0-.3,.1-.5,.3-.8,2.2-3,5-5.5,8-7.7,4.1-2.9,8.2-5.7,12.4-8.5,5.3-3.5,11.2-5.5,17.5-6.7,7-1.3,14-3,21-4.6,4.1-.9,8.2-1.7,12.4-1.4,1.3,0,2.5,.3,3.7,.6,3.1,.7,5.5,3,5.8,7.4,.2,3.2-.4,6.3-1.8,9.2-.7,1.5-1.5,2.9-2.2,4.4-.4,.8-.7,1.6-1.1,2.3,1.5,3.4,1.1,6.8,.5,10.1-1.6,8.4-5.8,15.6-11.2,22.1-4.7,5.6-10,10.5-15.4,15.3-7.7,6.9-16.6,11.9-25.1,17.4-3.6,2.3-7.2,4.7-10.6,7.2-1.7,1.3-3.2,2.9-4.7,4.4-.4,.4-.6,.9-1,1.5,1.7,.3,2.9,0,4.1-1,5.2-4.8,10.6-9.4,16.8-13,6.3-3.6,12.9-6.3,20-7.8,3.9-.8,7.8-1,11.8-.6,4.6,.5,9.2,.7,13.8,1.1,4.6,.4,9.3,.7,13.7,2.5,3.2,1.3,5.9,3.2,8.3,5.8,.7,.8,1.3,1.8,1.8,2.8,.6,1.3,.4,2.6-.5,3.7-.3,.4-.6,.7-1,1.2,1.5,.2,2.9,.2,4.2,.5,1.3,.2,2.6,.5,3.8,1.1,2.7,1.4,5.3,2.9,7.9,4.4,2.3,1.4,4.2,3.2,5.8,5.4,1.3,1.8,2,3.7,1.7,6,0,.6-.4,1.2-.5,1.6-1.4,.6-2.5,0-3.6-.3-3-1.1-5.9-2.3-9-3-2.7-.7-5.6-.9-8.4-1.2-1.8-.2-3.6-.3-5.4-.3-12.7,.1-24.9,2.6-36.4,8.1-3.6,1.7-7.2,3.4-10.8,4.9-3.9,1.6-7.9,2.7-12.4,2.2,0,.5,.1,1,.2,1.4,2.1,9.4,.7,18.3-3.8,26.7-.8,1.5-1.9,2.8-3.1,4-1.5,1.5-2,3.2-2.1,5.3-.1,3.5-.5,7.1-1.9,10.4-1.5,3.4-4,5.7-7.7,6.4-2.1,.4-4.2,0-6-1-1.5-.9-2.9-1.9-4.2-3.1-1.5-1.5-2.8-3.2-4.2-4.7-2.9-3.1-5.6-6.4-8.8-9.1-2.8-2.4-5.8-4.6-9.3-6.1-2.7-1.1-5.3-2.5-7.8-3.8-1.3-.7-2.5-1.5-3.7-2.4-3.2-2.4-4.6-5.8-4.8-9.8-.2-4,1.1-7.6,3.2-10.9,.3-.4,.6-.9,1-1.5Zm19.8-14.2c.5-.4,.8-.6,1.1-.9,1.3-1.1,2.4-2.4,3.8-3.4,1.7-1.3,2.9-3,3.6-4.9,1-2.5,1.9-5,2.9-7.6,1.6-4.3,3.5-8.5,6.1-12.3,4-5.8,9.9-9.4,15.8-13,1.3-.8,2.8-1.3,4.2-1.9,6.3-2.7,12.8-4.6,19.3-6.6,6-1.9,11.8-4.3,16.9-8.1,.8-.6,1.5-1.2,2.1-1.9,5-6.6,8.5-13.8,9.4-22,.2-1.6,.2-3.4-.3-4.8-.6-1.7-.4-3,.4-4.5,1-1.9,1.9-3.8,2.8-5.7,1-2.3,1.6-4.8,1.4-7.4-.4-3.8-1.7-6.1-5.5-7-1.1-.3-2.3-.4-3.4-.5-3.5-.2-6.9,.4-10.4,1.1-7.9,1.8-15.9,3.6-23.8,5.2-4.6,1-9.1,2.3-13.2,4.7-5.5,3.2-10.7,6.7-15.8,10.6-4.6,3.5-8.2,7.9-10.9,13.1-3.1,5.9-5.3,12.1-7.3,18.4-1.4,4.5-2.5,9.1-3.1,13.7-.5,4.1-.8,8.3-1.1,12.3,.7,1.3,1.4,2.6,2.1,3.8,.2,.3,.3,.5,.6,.7,1.8,1.7,2.8,3.8,3.4,6.1,1.4,5.3,1.3,10.7,.4,16-.4,2.2-1,4.3-1.6,6.6Zm-5.8-34.1c.2-2.6,.4-5,.7-7.4,.2-2.4,.3-4.8,.8-7.1,1.8-9.6,4.6-18.8,8.9-27.5,3-6,4.2-12.4,4.2-19,0-3.4-.3-6.9-.5-10.3-.3-4.8-1.3-9.4-3.3-13.8-2.7-6.1-5.7-12.1-8.6-18.1-1.7-3.5-4.3-6.2-7.4-8.5-.9-.7-2-1.3-3-1.7-3.7-1.6-7.2-1.3-10.4,1.2-.8,.6-1.5,1.3-2.3,1.9-2.5,2-5,4.1-7.6,6-2.3,1.7-4.5,3.3-6.4,5.5-6.4,7.6-9.9,16.4-10.5,26.3-.4,6.5,0,13,1.2,19.4,1.2,6.1,2.8,12.1,5.7,17.7,1.8,3.5,3.8,6.9,6.1,10.2,6.1,8.4,10.3,17.5,12.1,27.8,.3,2,.8,4,1.2,6.1,.9-1.6,1.7-3.1,2.7-4.5,1-1.4,2.4-2.4,4.2-2.6,1.3-2,3.3-2.8,5.6-3.3,2.3-.5,4.3,.7,6.6,1.5Zm-18.9,30c0,0,.1-.1,.2-.2,0-.3-.2-.6-.3-.9-1.5-5.1-2.1-10.2-1-15.5,.4-1.8,.4-3.4-.2-5.1-.2-.7-.4-1.4-.5-2.2-.8-4.9-2-9.7-3.7-14.4-3.4-9-8.6-16.8-15.2-23.8-7-7.5-15.1-13.4-24.9-16.9-4.3-1.5-8.6-2.6-13.2-1.7-1.6,.3-3.2,.5-4.5,2,.5,.6,.9,1.1,1.3,1.6,.9,1,1.9,2,2.7,3.1,.3,.3,.3,.9,.5,1.3l-.3,.3c-.5-.2-1.1-.4-1.6-.7-1.7-1-3.3-2-5.1-3-1.7-.9-3.4-1.4-5.3-1.1-3.3,.4-6.5,1.1-9.4,2.7-3.9,2.1-8.1,3.4-12.5,3.9-4.9,.5-9.6,1.9-14.2,3.8-3.5,1.4-6,3.9-7.7,7.2-1.2,2.3-1.1,4.6,.3,6.8,1.3,2.1,3.1,3.8,5.2,5.1,1.5,.9,3.1,1.8,4.9,2.1,4.5,.6,9,1.1,13.6,1,4.4,0,8.9-.2,13.3-.4,2.8-.2,5.7-.6,8.5-.9,2.9-.3,5.9-.5,8.8-.7,5.7-.5,11.3-.5,16.9,.5,8.1,1.4,15.3,4.5,21.2,10.5,3.6,3.7,6.6,7.7,8.4,12.5,1.2,3.2,2.5,6.3,3.7,9.4,1.9,5.1,5.2,9.1,9,12.9,.3,.3,.6,.5,.8,.7Zm68.1,25.6c0-.8,0-1.7,0-2.5-.6-4.9-1.9-9.5-4.3-13.8-3.1-5.6-7.2-10.5-12.9-13.7-4-2.2-8.1-2.5-12.2-.6-2.3,1.1-4.6,2.5-6.6,4.1-3.4,2.8-6.4,6-9.7,8.9-1.4,1.3-3,2.4-4.6,3.4-2.4,1.4-5,2.4-7.3,3.8-5.3,3.1-8.2,7.9-8.6,14-.3,4.3,1,7.9,4.6,10.6,1,.8,2.1,1.5,3.2,2.1,2.4,1.3,4.9,2.6,7.4,3.6,4.2,1.8,7.8,4.5,11.1,7.5,3.2,2.8,5.8,6.2,8.6,9.3,1.3,1.4,2.4,2.9,3.8,4.1,1.3,1.1,2.8,2.1,4.3,2.9,2.1,1,4.3,.9,6.4,0,2.2-1,3.7-2.7,4.7-4.9,1.2-2.8,1.7-5.8,1.8-8.8,.1-3.1,.7-5.9,3.2-8.1,1.3-1.2,2.3-2.9,3.1-4.6,2.7-5.3,3.8-11.1,3.8-17Zm-60.2-16.4c-2.1-.9-3.5-2.5-4.8-4.2-1.2-1.5-2.4-3-3.7-4.3-1.7-1.7-3.5-3.3-5.2-4.9-7.4-7.2-15.7-12.8-25.6-15.9-3-.9-6-1.8-9.1-2-8-.5-15.7,.7-23.1,3.9-2.6,1.1-5.2,2-7.9,2.8-5.6,1.6-10.8,4-15.7,7-1.7,1-3.4,2.2-4.9,3.5-1.5,1.3-2.8,2.7-4,4.2-1,1.1-1.4,2.6-1.6,4.1-.1,1.6,.4,3,1.8,3.8,1.1,.6,2.3,1.1,3.5,1.6,3.3,1.1,6.6,.5,9.9-.1,5.6-1.1,11.3-2.3,16.9-3.5,4.4-.9,8.8-1.2,13.2-.2,3.2,.8,6.4,1.6,9.4,2.7,6.5,2.4,13.1,3.6,20,3.7,.7,0,1.5,.1,2.2,.2,2.9,.3,5.7,.9,8.7,.8,1.4,0,2.9,.2,4.3,.4,4.8,.8,9.6,1.9,13.6,4.8,2.3-1.6,4.6-3.2,7.1-5-2.3-.1-3.8-1.3-4.7-3.2Zm121.3-21c.3-.6,.4-1,.6-1.3,.3-.4,.8-.7,1.1-1.1,1.2-1.3,1.3-2.3,.4-3.7-.5-.9-1.2-1.7-2-2.5-2.9-3-6.5-4.9-10.5-5.9-4.5-1.2-9.1-1.2-13.7-1.6-3-.3-6-.5-9-.8-3.9-.4-7.8-.5-11.7,.3-7.4,1.4-14.3,4.3-20.9,8.1-5.9,3.4-11,7.9-16,12.4-.2,.2-.3,.4-.5,.7,.6,.2,1.1,.4,1.6,.6,2.8,1,5.3,2.4,7.5,4.4,3.8,3.5,6.9,7.6,9.1,12.3,.8,1.8,1.6,3.7,2.4,5.5,.6,.1,1.1,.2,1.6,.3,.2,0,.4,0,.6,0,4.5-.3,8.8-1.5,12.4-4.4,2.5-2,5-4.1,7.4-6.2,5.1-4.4,10.4-8.5,16.4-11.7,6.7-3.6,13.7-3.9,20.6-1,3.1,1.3,6.1,3,9,4.7,4.9,2.8,9.9,5.3,15,7.5,.7,.3,1.5,.5,2.4,.8,.2-.8,.4-1.4,.4-2,.1-1.7-.7-3.1-1.6-4.4-1.5-2.2-3.4-3.9-5.7-5.2-2.5-1.5-5.1-2.9-7.7-4.4-1.4-.7-2.9-1-4.4-1.1-1.5,0-3-.2-5-.4ZM15.2,279.5c.2,.1,.3,.2,.4,.3,.5,.2,1.1,.4,1.6,.6,7.4,2.2,15,3,22.6,3.8,3.2,.3,6.4,.6,9.6,1.1,4,.6,7.9,1.4,11.9,2.3,10.1,2.6,19.2,7.2,27.3,13.6,1.3,1,2.5,2.3,3.7,3.4,.7,.6,1.3,1.2,2.1,1.6,4.6,2.3,8.8,5.2,12.7,8.6,.3,.2,.5,.4,1,.7,0-.4,0-.5-.2-.7-1.9-4.5-4-8.9-5.7-13.4-2.4-6.4-6.6-11.4-11.8-15.6-2.2-1.8-4.8-3.1-7.4-4.3-5.9-2.8-12.2-3.6-18.7-3.8-2.3,0-4.5,0-6.8,.3-4.2,.3-8.4,.7-12.6,1-5.1,.4-10.1,.8-15.2,1.1-2,.1-4,0-6-.2-2.9-.1-5.8-.3-8.7-.5Zm198.4-8v-.2c-1.3,.7-2.4,1.3-3.5,2-4.9,2.7-10.2,4.4-15.5,6.1-7.5,2.4-15.1,4.6-21.9,8.9-4.5,2.8-8.8,5.8-12.2,10-2.8,3.6-4.7,7.6-6.4,11.8-1.1,2.9-2.2,5.7-3.3,8.6-.1,.4-.3,.7-.4,1.2,2.5-1.2,5-2.3,7.2-3.3,1.2-1.5,2.3-3.1,3.6-4.4,1.3-1.4,2.8-2.6,4.3-3.7,3-2.1,6.1-4.2,9.2-6.2,8.5-5.5,17.3-10.4,24.8-17.2,4.6-4.1,9.2-8.3,13.3-12.9,.2-.2,.4-.5,.6-.7Zm-91.7,48.1c.2,1.6,.3,3.3,.6,4.9,.7,3.2,1.6,6.2,3.5,8.9,1,1.5,2.6,2.1,4.1,1.7,4.8-1,8.5-3.4,10.2-8.3,2.1-6.4,2.9-12.9,1.6-19.5-.4-1.9-1.1-3.8-1.9-5.5-1-2-2.8-3.2-5.1-3.5-1.4-.2-2.5,.2-3.5,1.4-.8,.9-1.6,1.8-2.6,2.5-1.9,1.4-3.2,3.1-4,5.2-1.5,3.9-2.7,7.9-2.8,12.2Zm134.8,5.3c-.2-.2-.5-.4-.8-.5-2.2-1.3-4.4-2.6-6.6-3.8-2.4-1.3-4.8-2.6-7.4-3.6-6-2.3-12.1-2.1-17.8,1-3,1.6-5.9,3.5-8.8,5.4-4.9,3.3-9.2,7.4-13.7,11.3,0,0,0,.2,0,.4,17.2-9.4,35.4-12.7,55-10.2Zm-161.2,11.5c0-.2,0-.3,0-.5-1.3,0-2.5,0-3.8,0-5.1-.1-10.1-.8-15-2.4-2.9-.9-5.7-2-8.6-2.9-5-1.5-10-2.1-15.2-1.1-3.5,.7-6.9,1.4-10.4,2.1-2,.4-3.9,.8-5.9,1.2,.9,.3,1.7,.3,2.6,.3,5.3,0,10.5,.4,15.6,1.6,4.7,1.1,9.3,2.3,13.9,3.6,4.9,1.4,9.8,1.9,14.9,.8,3.3-.7,6.7-1.6,10-2.4,.6-.1,1.3-.2,1.9-.4Zm32-34.8c.3-.9,0-1.6-.5-2.1-.3-.3-.6-.7-.9-1.1-1.8-2.1-3.6-2.1-5.5-.2-1.4,1.4-2.1,3.1-2.8,4.9-1.9,5.4-2.1,11-.9,16.6,.9,3.9,2.4,7.4,5.2,10.3,.3,.3,.6,.5,.9,.7,0-.6-.1-1.1-.3-1.6-1.8-4.9-2.4-10-1.1-15.1,1.1-4.6,2-9.3,5.9-12.4Zm-3-5.9c.6,.4,1.2,.7,1.6,1.1,1.2,1.4,2.8,1.8,4.7,1.7,1.6-1.9,3.8-1.4,5.9-1.1-1.3-3.9-8.3-6.1-12.2-1.8Z" fill="#fff"/></g><g><g><path d="M312.6,274.9c.6,.6,1.1,1,1.4,1.5,1.2,1.9,2.5,3.7,3.4,5.7,3.1,6.4,5.3,13.1,7.2,19.9,2.3,8.4,4.4,16.8,6.6,25.2,.5,1.9,.8,3.8,1.1,5.7-1.9-7-3.7-14-5.6-21-2.5-9-5-17.9-8.6-26.5-1.4-3.4-3-6.7-5.4-9.5-.1-.1-.2-.3-.2-.4,0,0,0-.2,.1-.7Z" fill="#fff"/><path d="M417.2,367.9c14-11.9,26-25.3,38.1-38.7-1.3,1.7-2.6,3.4-4,5-6.9,8.2-14.2,16.2-21.8,23.7-3,3-6.2,5.8-9.4,8.8-.7,.7-1.5,1.3-2.9,1.2Z" fill="#fff"/><path d="M326,403.7c-.7,.2-1.3,.5-2,.7-2,.4-3.9,.7-5.9,.9-4.5,.4-9.1,.4-13.6,0-5.5-.5-10.9-1.7-16.2-3.3-4.2-1.3-8.4-2.8-12.6-4.3-.5-.2-1-.4-1.4-.8,.3,0,.6,.2,.9,.3,7.6,2.8,15.4,5.1,23.4,6.5,2.4,.4,4.8,.6,7.2,.8,3.3,.3,6.5,.4,9.8,0,3-.4,6.1-.8,9.1-1.1,.4,0,.7,0,1.1-.1,0,.2,0,.3,.1,.5Z" fill="#fff"/><path d="M305,304.6c1.2,4,2.3,8.1,3.6,12.1,1.3,4,2.7,8,4.3,11.9,1.6,3.9,3.4,7.7,5.3,11.5,1.9,3.8,4.1,7.4,6.2,11.1,2.1,3.6,4.6,6.9,6.7,10.6-2.3-2.2-4.1-4.9-5.8-7.6-9.7-15.3-16.5-31.8-20.3-49.6Z" fill="#fff"/><path d="M414.2,309.8c-2.7,8.3-6.5,16-10.4,23.6-3.5,6.7-7.5,13.1-12.2,19.1-1.5,1.9-3.2,3.7-4.8,5.5-.4,.4-.8,.8-1.4,1.3-.2-.9,.4-1.2,.7-1.6,4.7-5,8.7-10.5,12.3-16.3,6-9.8,11-20.1,15.4-30.7,.1-.3,.3-.6,.4-.9Z" fill="#fff"/><path d="M335.8,464.8c1.5-2,3.1-3.9,4.6-6,2.6-3.5,5-7.1,7.7-10.5,3.2-4,5.8-8.4,8.1-13,1.5-3.1,2.8-6.4,4.1-9.6,.1-.3,.3-.7,.7-1,0,.5,0,.9-.1,1.3-1.2,3.2-2.4,6.4-3.8,9.5-1.9,4.2-4.3,8.2-7.1,12-4,5.3-8.3,10.6-12.4,15.8-.4,.6-1,1-1.5,1.6l-.2-.2Z" fill="#fff"/><path d="M294.2,331.2c2.4,4.7,4.7,9.3,7.1,14,3.4,6.5,7.5,12.6,12.6,18,2.5,2.7,5.1,5.2,8.1,7.3,.3,.2,.5,.5,.7,.7l-.2,.3c-.6-.3-1.3-.6-1.8-1-3.8-2.8-7-6.2-10-9.9-5.4-6.5-9.4-13.9-13-21.5-1.3-2.6-2.4-5.3-3.6-7.9h.2Z" fill="#fff"/><path d="M224,388.8c.9,.2,1.6,.9,2.3,1.5,4.4,3.6,9.3,6.5,14.6,8.6,4.7,1.8,9.5,3.6,14.3,5.3,2.9,1,5.9,1.8,8.8,2.9-2.1-.5-4.2-.9-6.3-1.5-6.3-1.9-12.6-4-18.6-6.6-5.3-2.2-10.1-5.2-14.4-8.9-.3-.3-.6-.6-.9-.9,0,0,.2-.2,.2-.3Z" fill="#fff"/><path d="M398.3,430.1c.2,.3,.4,.7,.6,1,3.3,7.6,8.2,14.2,13.7,20.3,3.5,3.9,7.1,7.7,10.8,11.6-.2-.1-.4-.1-.5-.2-7.4-6.7-14.3-13.9-19.9-22.2-1.8-2.7-3.2-5.7-4.7-8.6-.3-.5-.4-1.2-.5-1.7h.4Z" fill="#fff"/><path d="M415.4,414.1c.5,0,1.1,0,1.6,.1,5.4,1.1,10.7,2.9,15.9,4.8,6.8,2.5,13.5,5.1,20,8.3,.6,.3,1.3,.7,1.9,1.1-6.5-2.6-13-5.2-19.5-7.6-6.5-2.5-13.1-4.6-19.9-6.2,0-.2,0-.3,0-.5Z" fill="#fff"/><path d="M425.8,356.2c-.4,.5-.9,1-1.3,1.5-5.6,6-11.7,11.4-17.8,16.9-2.5,2.2-5.1,4.4-7.9,6.1-.8,.5-1.7,1-2.7,1.1,0-.1-.1-.2-.2-.3,.3-.2,.6-.4,.9-.6,2.3-1.6,4.8-2.9,6.9-4.7,5-4.3,9.8-8.8,14.7-13.2,2.2-2,4.3-4.1,6.4-6.1,.3-.3,.6-.5,.9-.8l.2,.2Z" fill="#fff"/><path d="M363.5,461.6c2.3-6.1,4.4-12.2,6.3-18.4,1.7-5.9,2.4-12,2.1-18.2,0-1.1-.4-2.1-.6-3.3,1,.3,1.1,1.1,1.1,1.6,.2,2.8,.5,5.7,.3,8.5-.9,10-4.3,19.3-8.4,28.4-.2,.4-.4,.8-.6,1.1,0,0-.1,.2-.2,.2Z" fill="#fff"/><path d="M373.9,350.3c3.3-6.6,6.1-13.1,8.2-19.8,2.1-6.7,4-13.4,5.8-19.6,.1,1.4-2.2,10.6-5.2,19.9-3.1,9.6-6.9,18.3-8.8,19.5Z" fill="#fff"/><path d="M384.3,258.1c.2,1.1,.4,2.2,.5,3.3,.1,3.9,0,7.7-.5,11.5-.5,3.6-.8,7.3-1.4,11-.4,3-1.1,6.1-1.8,9.1,.2-2,.5-4.1,.7-6.1,.3-2.4,.6-4.8,.8-7.2,.3-2.6,.6-5.2,.8-7.9,.3-4.1,.8-8.2,.2-12.3,0-.4,0-.9,0-1.3,.2,0,.4,0,.6,0Z" fill="#fff"/><path d="M364.6,327c.1-1.1,.2-2.2,.4-3.2,.7-5.2,1.5-10.4,2.1-15.7,.6-5.2,1-10.4,1.3-15.6,.3-5.2,.4-10.3,.5-15.7,.1,1.1,.3,2,.3,2.9,0,5.2,0,10.5-.4,15.7-.3,4.6-.9,9.1-1.5,13.7-.5,4.1-1.1,8.3-1.7,12.4-.3,1.9-.6,3.7-1,5.6h-.2Z" fill="#fff"/><path d="M442.7,325.1c6.4-8.8,13.2-17.3,17-27.8,.6,.7,.5,1.3,.3,1.8-.7,1.7-1.3,3.5-2.2,5.1-4,7.1-8.6,13.8-14,19.9-.3,.4-.7,.7-1.1,1Z" fill="#fff"/><path d="M395.1,324.5c4.6-12.4,9.7-24.3,11.1-37.4,0,.3,.3,.6,.2,.9-.3,2.7-.4,5.4-1.1,8-2.3,9.7-5.7,19-9.9,28,0,0-.1,.2-.4,.6Z" fill="#fff"/><path d="M367.4,469.6c-.1,.3-.2,.6-.3,.8-3.2,6.7-7,12.9-12,18.4-1.4,1.6-3.1,2.9-4.7,4.2-.5,.4-1.1,1-2.2,.6,.7-.5,1.2-.9,1.8-1.3,3.9-3.1,7.1-6.8,9.8-10.9,2.4-3.6,4.6-7.3,6.9-11,.2-.3,.4-.6,.6-.9h.2Z" fill="#fff"/><path d="M338.6,352.2c0-.4,0-.7,.1-1.1,1-3.5,1.3-7.1,.9-10.7-.2-1.8-.3-3.6-.4-5.4-.4-3.7-.8-7.4-1.2-11.2-.1-1.3-.3-2.5-.3-3.8,1,4.3,1.7,8.6,2.1,13,.3,3.9,.8,7.8,.9,11.7,0,2-.5,4.1-.9,6.1,0,.5-.2,1.2-1.2,1.2Z" fill="#fff"/><path d="M406.3,472.5c6,7.7,12.1,15.3,20.5,20.7l-.2,.4c-.3,0-.7,0-1-.3-1.6-1.1-3.3-2.1-4.8-3.4-5.3-4.7-9.9-9.9-13.6-15.9-.3-.5-.6-1-.8-1.5Z" fill="#fff"/><path d="M321.2,377.7c-.3,0-.7,.1-.9,0-1.8-.9-3.9-1.1-5.6-2.5-2.1-1.6-4.5-2.7-6.7-4.3-6.1-4.4-11.8-9.5-17-15-.1-.1-.2-.3-.2-.5,.3,.3,.7,.5,1,.8,5,4.8,10,9.4,15.6,13.4,2.6,1.8,5.4,3.3,8.1,5,1.8,1.1,3.6,2.2,5.8,2.6v.4Z" fill="#fff"/><path d="M355.8,279.2c-1.2,10.4-1.4,20.8-1.6,31.2-1.1-10.5-.3-28.4,1.6-31.2Z" fill="#fff"/><path d="M283.4,334.2c-1.1-1.8-2.2-3.6-3.2-5.4-2.8-5.6-5.4-11.2-6.9-17.3-.5-2-.7-4.1-1-6.2,0-.4,.1-.8,.4-1.2,1.2,10.9,6.1,20.4,10.7,30.1Z" fill="#fff"/><path d="M285.7,495.7c.3-.7,.4-1.4,.8-1.9,1.2-1.6,2.3-3.3,3.6-4.8,4.9-5.5,9.8-10.9,15.4-15.8,.2-.2,.5-.4,.7-.5-6.9,7.6-14.5,14.6-20.2,23.2l-.4-.2Z" fill="#fff"/><path d="M276.2,371.3c-8.1-4-15.9-8.7-24.6-11.9,0-.5,.6-.5,1-.4,1.1,.3,2.3,.5,3.3,1,5.5,2.6,11.1,5.3,16.2,8.6,1.4,.9,2.7,1.8,4.1,2.7Z" fill="#fff"/><path d="M465.9,347.9c-1,1.3-1.9,2.7-2.9,3.9-4.3,5.1-9.5,9.1-14.8,13-1.4,1-2.9,1.9-4.5,2.7,2.6-2,5.2-3.9,7.7-6,2.6-2.2,5.2-4.3,7.6-6.7,2.3-2.3,4.4-4.9,6.5-7.3l.4,.4Z" fill="#fff"/><path d="M431.3,446.7c-8.6-3.9-23.4-14.5-25.6-19,1.2,.5,1.9,1.6,2.9,2.4,1,.9,2,1.9,3.1,2.8,1,.9,2,1.7,3.1,2.5,1.1,.9,2.2,1.7,3.3,2.5,1.1,.8,2.1,1.5,3.2,2.3,1.1,.7,2.2,1.5,3.3,2.2,1.1,.8,2.2,1.6,3.4,2.3,1.1,.7,2.3,1.3,3.4,1.9Z" fill="#fff"/><path d="M418.8,325.3c2.9-8.5,6-16.9,6.9-26,.9,.5,.7,1.3,.6,2-.3,3.4-1.1,6.8-2.1,10-1.2,4.2-2.6,8.2-4.5,12.1-.3,.6-.6,1.2-.9,1.8Z" fill="#fff"/><path d="M383.4,415c.4-1.2,.9-2.3,1.2-3.6,.8-3.2,.2-6.3-.5-9.4-.9-3.9-2.7-7.4-4.4-11-.4-.9-.9-1.8-1.2-2.8,.2,.2,.4,.5,.6,.7,2.7,4.7,5.2,9.4,6.3,14.8,.6,3,.8,6.1-.2,9.1-.3,.9-.6,1.8-1.7,2.1Z" fill="#fff"/><path d="M262.9,422c9.5,1.5,18.7-.2,28.1-1.4-2.2,.5-4.3,1.1-6.5,1.4-5,.7-9.9,1.5-14.9,1.3-1.9,0-3.9-.4-5.8-.6-.3,0-.6-.3-.9-.4,0-.1,0-.2,0-.4Z" fill="#fff"/><path d="M442.2,413.5c8.3,2.5,15.8,6.5,22.8,11.4,0,.1-.1,.3-.2,.4-.3,0-.7-.1-1-.3-.9-.5-1.8-.9-2.6-1.5-5.8-3.9-12.1-6.9-18.5-9.7-.2,0-.4-.2-.5-.3Z" fill="#fff"/><path d="M472.8,450.8c-7-4.3-13.7-8.6-20.5-12.8v-.2c1.9,.9,3.7,1.7,5.4,2.7,4.6,2.8,9.2,5.6,13.8,8.4,.6,.4,1.3,.7,1.3,1.8Z" fill="#fff"/><path d="M364.7,423.4c2-2.9,2.2-6.1,2.2-9.4,0-4.6-.5-9.1-1.2-13.7,0-.4,0-.7,.2-1.1,.4,2,.9,4,1.2,6,.5,3.7,.9,7.4,.7,11.2,0,2.1-.5,4.1-1.4,6-.3,.6-.6,1.3-1.6,1.1Z" fill="#fff"/><path d="M311.9,336.2c5,9.2,9.8,18.5,17.1,26.2-.1,.1-.3,.2-.4,.3-.6-.6-1.3-1.1-1.8-1.8-2.2-2.9-4.5-5.7-6.3-8.7-2.9-4.8-5.4-9.9-8.1-14.9-.2-.4-.3-.7-.5-1.1Z" fill="#fff"/><path d="M258.6,418.5c7.8,.5,15.6,.4,23.3-.3-3.9,.9-7.8,1.4-11.7,1.4-3.9,0-7.8,.4-11.7-.5,0-.2,0-.4,0-.6Z" fill="#fff"/><path d="M410.1,382.9c1.4-1.3,2.8-2.6,4.4-3.8,1.4-1.1,3.1-2,4.4-3.2,1.8-1.6,3.9-2.5,6-3.3,.5-.2,1-.2,1.5-.3,.3,0,.5,.2,1.1,.4-1.3,.5-2.5,.7-3.5,1.2-1.3,.6-2.4,1.4-3.6,2.1-3.4,2-6.5,4.3-9.5,6.7-.2,.1-.4,.3-.6,.4,0,0-.1-.2-.2-.2Z" fill="#fff"/><path d="M324.4,278.4c.4,.4,1,.7,1.3,1.2,.9,1.5,1.9,2.9,2.6,4.5,2.4,5,4.3,10.2,5.6,15.6,0,.2,0,.4,0,.8-2.9-7.5-5.1-15.2-9.9-21.8,0,0,.2-.2,.3-.2Z" fill="#fff"/><path d="M445.2,384.7c-.8,.4-1.6,.8-2.5,1.2-4.7,1.9-9.6,3.1-14.6,3.9-1.1,.2-2.3,0-3.5,0-.4,0-.8-.2-1.1-.4v-.4c1.9,0,3.7,0,5.5-.3,1.8-.2,3.6-.7,5.4-1.1,1.8-.4,3.7-.9,5.5-1.4,1.8-.5,3.5-1.1,5.2-1.7v.2Z" fill="#fff"/><path d="M328.8,446.1c-6.2,3.6-10.8,9-16.1,13.7,.2-.3,.4-.6,.7-.9,.2-.3,.5-.6,.7-.9,3.1-3.6,6.5-6.9,10.2-10,1-.8,2.1-1.4,3.2-2.1,.4-.2,.8-.2,1.3-.4,0,.1,0,.3,.1,.4Z" fill="#fff"/><path d="M328.2,406.1c-3.3-5.7-.9-15.4,5.1-21.7-.2,.4-.5,.8-.7,1.2-1.7,2.7-3.3,5.6-4.3,8.6-1.1,3.4-1.2,6.8-.4,10.3,.1,.5,.2,1,.3,1.5Z" fill="#fff"/><path d="M350.6,377.2c-2.4,6.8-3.2,13.8-2.5,20.9-.2-1.5-.5-2.9-.6-4.4-.2-3.9,0-7.8,.7-11.7,.3-1.8,1.3-3.4,2.4-4.9Z" fill="#fff"/><path d="M324.4,401.5c-7.1,1.4-14,.4-20.9-1.4,2.3,.3,4.7,.7,7,.9,2.3,.2,4.6,.3,6.9,.3,2.3,0,4.7-.2,7-.3,0,.2,0,.4,0,.5Z" fill="#fff"/><path d="M333.5,433.2c4.5-4.5,9.7-8.5,12-15.1,.4,.8,.4,1.4,0,1.9-.7,1.4-1.3,2.9-2.3,4.1-2.7,3.6-6,6.7-9.8,9.1Z" fill="#fff"/><path d="M306.3,444.7c-4.7,4.4-10,8.1-14.2,13.1,.1-.4,.1-1,.4-1.3,.5-.8,1.1-1.5,1.8-2.2,3.7-3.6,7.6-6.9,12-9.6Z" fill="#fff"/><path d="M307.5,424.5c.4,.1,.9,.2,1.3,.3,2.9,1.2,6,1.1,9.1,.7,2.8-.3,5.6-.9,8.4-1.3-2.2,1.1-4.6,1.6-7.1,1.9-2.1,.3-4.2,.3-6.3,.4-1.7,0-3.2-.5-4.7-1.2-.3-.1-.5-.4-.8-.6,0,0,0-.2,.1-.3Z" fill="#fff"/><path d="M236,373c4.6,3,9.2,6,13.8,8.9-5-2.1-9.7-4.6-13.9-8.1-.1-.1-.1-.4-.2-.7l.3-.2Z" fill="#fff"/><path d="M356,443.9c2.6-6.3,5.8-12.3,7.5-18.9,.1,0,.2,0,.3,0,0,.5,0,1-.2,1.4-.5,1.6-.9,3.3-1.6,4.8-1.6,3.6-3.4,7.2-5.1,10.7-.3,.7-.7,1.3-1.1,1.9Z" fill="#fff"/><path d="M407.4,376.3c-3,4.2-7.5,6.2-12,8.4,.2-.3,.2-.6,.5-.8,.4-.3,.9-.6,1.3-.8,3-1.7,5.9-3.4,8.5-5.7,.5-.4,1.2-.7,1.7-1Z" fill="#fff"/><path d="M303.2,485.6c-3.5,5.4-9.7,11.8-11.6,12.1,3.8-3.9,7.6-7.9,11.6-12.1Z" fill="#fff"/><path d="M386,258.3c1.4,2.5,1.3,10.3,0,16.3v-16.3Z" fill="#fff"/><path d="M311.2,356c3.8,4.7,7.7,9.2,12.4,13,0,.1-.1,.2-.2,.3-.5-.3-1-.5-1.4-.9-4.2-3.6-7.8-7.7-10.9-12.3,0,0,0,0,.1-.2Z" fill="#fff"/><path d="M374.6,377.1c-3.7-3-7.4-5.7-12.4-6.2,.6-.7,1.2-.8,1.9-.6,1,.3,2.1,.5,3,1,1.5,.7,3,1.5,4.4,2.5,1.2,.8,2.3,1.9,3.4,2.9l-.3,.4Z" fill="#fff"/><path d="M370.6,361.7c1.5-1.3,3.2-1.9,5-2.4,2.1-.6,4.2-.9,6.4-.6,1.8,.3,3.3,1.2,4.6,2.4-.3,0-.6-.2-.8-.3-3.6-2-7.3-1.8-11-.6-1.4,.5-2.8,1-4.3,1.5Z" fill="#fff"/><path d="M462.4,439.8c4.4,2.1,8.2,4.6,11.9,7.4,.5,.4,1.1,.8,.7,1.5-4.1-2.9-8.2-5.8-12.6-8.8Z" fill="#fff"/><path d="M357.1,380.1c-.7,4.9-1.5,9.8-.8,15-1.5-4.4-1.1-13.4,.8-15Z" fill="#fff"/><path d="M390.2,429.4c.6,2.6,1.2,5.2,1.8,7.8,.6,2.7,1.4,5.3,2.1,8-1.5-2.1-4.5-13.9-3.9-15.8Z" fill="#fff"/><path d="M345.5,492.5c4-3,7.6-6.4,10.8-10.2-2.8,4.3-6,8-10.4,10.7-.1-.2-.3-.3-.4-.5Z" fill="#fff"/><path d="M385.4,397.8c2.2,4.2,3.5,12.7,.8,14.8,.6-2.6,1.1-5.1,.6-7.6-.4-2.4-1-4.8-1.5-7.2Z" fill="#fff"/><path d="M299.7,446.3c-2.8,2.6-5.6,5.3-8.7,8.1,.1-.6,0-1,.2-1.1,.8-.9,1.5-1.8,2.3-2.6,1.8-1.8,3.9-3.3,6.2-4.5Z" fill="#fff"/><path d="M407.5,426.7c4.6,3.2,8.9,6.3,13.4,9.4-3.9-1.6-12.3-7.5-13.4-9.4Z" fill="#fff"/><path d="M389.1,409.5c4.7-.2,9.4-.4,13.5-.6-3.3,1.3-11.6,1.8-13.5,.6Z" fill="#fff"/><path d="M377.4,332.8c-1.2,5.6-2.7,11-5.2,16.2-.2-1.2,.6-2.1,.9-3.1,.3-1.1,.7-2.2,1.1-3.3,.4-1.1,.8-2.2,1.1-3.3,.4-1.1,.7-2.2,1-3.3,.3-1.1,.7-2.1,1-3.2Z" fill="#fff"/><path d="M341.2,370.7c-1.8,.4-3.7,.5-5.3,1.5-1.5,.9-3.2,1.8-4.9,2.7,2.7-3.4,7.5-5.4,10.2-4.2Z" fill="#fff"/><path d="M350.2,356.6c2.4,2.5,4.6,5.3,6,8.4,.2,.4,.2,.8,.2,1.2,0,0-.2,.2-.3,.3-2-3.3-4-6.6-5.9-9.9Z" fill="#fff"/><path d="M420.1,492.2c-2-.3-6.7-4.5-9.3-8.4,3.1,2.8,6.1,5.5,9.3,8.4Z" fill="#fff"/><path d="M362.1,365.9c0-2.3,4-6.3,7.3-7.7-2.7,2.5-5.3,4.8-7.3,7.7Z" fill="#fff"/><path d="M342.3,427.9c1.9-3.1,4.2-6,5-9.7h.4c0,.6,.2,1.2,0,1.7-1,3.1-2.8,5.8-5.3,8Z" fill="#fff"/><path d="M334.1,424c2.7-2,5.3-4,8-6.1,.2,.5-.2,.9-.5,1.3-2,2.3-4.6,3.8-7.5,4.8Z" fill="#fff"/><path d="M369,311.4c.3-2.9,.7-5.7,1-8.6,.3-2.9,.5-5.8,.8-8.7,.3,5.8-.7,11.5-1.8,17.2Z" fill="#fff"/><path d="M447.7,450.5c4.3,1.6,8,4.3,8.4,5.9-2.9-2-5.6-4-8.4-5.9Z" fill="#fff"/><path d="M277.1,312.7c-1.3-3.8-2.6-7.7-2.7-11.8h.3c.8,3.9,1.6,7.9,2.4,11.8Z" fill="#fff"/><path d="M453.3,305.9c1.3-3.1,2.6-6.3,4.1-9.8,.1,.6,.3,.8,.2,1-.9,3.2-2.3,6.1-4.4,8.7Z" fill="#fff"/><path d="M327.9,386.3c-1.5,3.7-3.4,7-3.4,11.2-1.1-2,.6-7.6,3.4-11.2Z" fill="#fff"/><path d="M323,427.6c-3.2,1.5-9,1.7-10.7,.6,1.9,0,3.6,0,5.3,0,1.8,0,3.6-.3,5.3-.5Z" fill="#fff"/><path d="M422.6,391.7h10.2c-3.8,1-8.8,1.3-10.3,.4v-.4Z" fill="#fff"/><path d="M426.8,376.7c-2.8,1.3-5.5,2.5-8.2,3.7h0c.3-.4,.6-.6,.9-.8,2-1.3,4-2.5,6.3-3,.3,0,.5,0,.8-.1,0,0,.2,0,.4,.2Z" fill="#fff"/><path d="M327.5,279c2,2.6,3.4,5.5,4.5,8.6-1.6-2.8-3.1-5.6-4.7-8.4l.3-.2Z" fill="#fff"/><path d="M355.1,368.5c-1.3-2-2.5-4-3.8-6,1.9,1.3,3.9,4.2,4.1,5.8l-.3,.2Z" fill="#fff"/><path d="M398.1,405.8c-2.2,1.2-4.6,2.1-7.2,2,0-.1,0-.3,0-.4,2.4-.6,4.8-1.1,7.3-1.7Z" fill="#fff"/><path d="M359.2,378.9c-.4,2.5-.8,5-1.2,7.2-.4-2.8,0-5.7,1.2-7.2Z" fill="#fff"/><path d="M292.3,492.8c-1.3,1.7-2.7,3.3-4,5-.2-1,1.9-3.7,4-5Z" fill="#fff"/><path d="M242.5,374.7c-1.7-.7-3.3-1.4-4.9-2.7,1.3,0,2.9,.8,4.9,2.7Z" fill="#fff"/></g><path d="M409,513.4c-4.8-5.7-9-11.8-13.1-18.1-3.1-4.8-5.6-9.8-8-14.9-2-4.4-3.7-9-5.4-13.5-.2-.6-.4-1.3-.5-2,.5-.5,1-.9,1.4-1.4,.3,.3,.5,.4,.7,.6,.2,.3,.3,.6,.5,.8,3.2,4.7,5.1,10.1,7.4,15.2,1.2,2.6,2.7,5.1,4.1,7.7,4.7,8.9,10.4,17.2,17.1,24.8,.2,.3,.4,.6,.6,.9h-1.3c-.3-.4-.5-.9-.8-1.3-2.3-3-4.9-5.9-7-9-3.4-5.1-6.7-10.2-9.9-15.5-1.5-2.5-2.9-5.2-3.9-8-.8-2.4-2.7-3.5-4.3-5.2,.7,2.2,1.6,4.3,2.5,6.3,2.7,6.1,6.1,11.7,9.6,17.2,3.5,5.4,7.3,10.5,11.6,15.3h-1.3Z" fill="#fff"/><path d="M286.5,366.6c-.4-.5-.8-1.1-1.2-1.6-6.8-9.4-11.9-19.6-15.2-30.7-1.6-5.3-2.1-10.8-1.7-16.3,.2-4.1,.8-8.1,2.5-11.9,.3-.7,.6-1.3,.9-2,2.3-4.8,6.1-7.6,11.3-8.5,.6,0,1.1-.2,1.7-.3,3.5-.7,6.2-2.4,8-5.5,1.2-2.1,2.3-4.1,3.5-6.2,1.3-2.4,2.8-4.6,4.9-6.4,1.8-1.6,3.8-2.8,6.2-3,1.9,0,3.8,.2,5.6,.6,1.9,.4,3.7,1.2,5.5,1.9,2.1,.8,4.2,1.4,6.5,1.4,.7,0,1.5,.1,2.2,.4,4.8,1.8,9.1,4.3,11.9,8.8,2.8,4.3,4.8,9,6.3,14,.2,.5,.3,1,.6,1.8,.3-1.4,.4-2.5,.6-3.6,.6-3,1.8-5.8,3.7-8.2,2.1-2.8,3.3-5.8,3.8-9.3,.2-1.4,.6-2.8,.9-4.2,1.1-4.7,3.5-8.7,6.4-12.4,3.4-4.3,8.1-6.6,13.3-7.7,4.3-.9,8.5-.4,12.6,1.1,5.2,1.9,9.7,4.9,13.7,8.7,1.8,1.7,3.6,3.5,5.2,5.3,1.8,2,3.9,3.8,6.2,5.2,.3,.2,.6,.4,.9,.6,6.8,3.7,10.6,9.6,12.6,16.9,1.6,5.8,1.9,11.7,1.3,17.6-.1,1.4-.2,2.7-.2,4.1,.6-1.3,1.2-2.6,1.7-3.8,3.3-7.2,8.5-12.6,15.6-16.1,4.6-2.3,9.5-2.9,14.5-1.2,2.7,.9,5,2.5,7,4.5,5.8,5.8,9.7,12.6,10.6,21,.4,3.3,.7,6.6,1.5,9.7,1.1,4.1,2.6,8.1,4,12.2,1.3,3.6,2.3,7.2,2.6,10.9,.3,3.4-.2,6.6-1.1,9.9-2.1,7.2-5.3,13.9-9.6,20-4.9,6.9-11.4,11.7-18.9,15.4-6.2,3-12.6,5.2-19.4,6.4-.3,0-.6,.2-.9,.5,.5,.2,1,.3,1.6,.4,9,1.9,16.6,6.3,23.3,12.6,.2,.2,.5,.4,.7,.7,2.8,3.6,6.6,6.1,10,8.9,1.4,1.1,2.8,2.3,4.1,3.5,4.6,4.2,8.1,9.2,9.4,15.3,1.1,5,.3,9.7-2.6,14.1-3.6,5.4-8.4,8.9-14.6,10.4-3.4,.9-6.8,1.9-10.2,3-4.6,1.6-8.1,4.4-10.2,8.9-.2,.5-.5,.9-.7,1.4-2.4,5.1-6.7,7.4-12.1,8.1-6,.9-11.7-.5-17.2-2.5-11.3-4-20.9-10.6-28.5-19.9-1.6-2-3.1-4.2-4-6.6,0-.2-.2-.3-.4-.7-.2,.5-.4,.9-.6,1.4-3.8,10.9-9.5,20.8-17,29.5-1.6,1.9-3.5,3.6-5.3,5.2-2.6,2.3-5.7,3.8-8.9,5-3.8,1.5-7.7,1.2-11.5,.2-6.4-1.7-12.8-3.6-19.2-5.4-3-.8-6-1.6-9-1.6-2.7,0-5.4,.3-8,.7-3.6,.5-7.2,1.4-10.9,1.1-1.4-.1-2.8-.4-4.2-.8-2.2-.7-3.7-2.3-4.3-4.5-.3-1.3-.5-2.6-.6-3.9-.1-1.5,0-3.1,0-4.6-.2-4.7-.4-9.3-.6-14-.2-5.2-.7-10.5,0-15.7,.8-6.2,2.1-12.2,4.9-17.8,1.1-2.1,2.6-4,3.9-6,.3-.4,.6-.7,1.1-1.3-1.6,.3-2.9,.6-4.3,.9-6.4,1.3-12.7,.6-18.8-1.3-12-3.8-23-9.6-31.9-18.8-7.4-7.7-12.6-16.8-16-26.9-.8-2.4-1.1-4.9-.9-7.5,.3-3.3,1.9-4.9,5.3-5.1,2.1,0,4.2-.1,6.4,0,2.5,.2,4-.8,5.3-3,4.1-7.5,10.6-11.7,19-13,7.5-1.1,14.5,.3,21,4.2,2.5,1.5,4.8,3.3,7.2,4.9,.3,.2,.6,.4,.8,.6l.2-.2Zm62.2-19.9c0-.5,0-.7,0-1-.3-3.4-.7-6.8-.9-10.3-.2-3.4-.3-6.9-.3-10.3,0-5.7-.7-11.4-1.6-17-1.1-6.4-3.2-12.5-6.3-18.2-2.7-4.9-6.7-8.1-11.8-10.1-1.3-.5-2.7-.8-4-.9-1.9,0-3.6-.6-5.4-1.2-2.1-.8-4.3-1.5-6.4-2.2-4.2-1.3-7.7,0-10.7,3-1.1,1.1-2,2.3-2.8,3.6-1.1,1.6-1.9,3.4-2.9,5.1-.9,1.5-1.8,3-2.8,4.4-1.2,1.8-2.9,3.1-5,3.7-1.1,.4-2.2,.8-3.3,.9-6.4,.8-10.4,4.6-12.7,10.4-1.2,3-1.9,6.1-2.1,9.2-.6,6.4-.1,12.7,1.8,18.8,3.1,10,7.6,19.4,13.6,28,2.1,3,4.5,5.9,7,8.6,2.2,2.4,4.6,4.6,7,6.9,3.9,3.6,7.8,7.2,11.8,10.6,2.9,2.5,6.2,4.6,9.7,6.2,.7,.3,1.4,.5,2.4,.9-.2-.8-.3-1.3-.5-1.8-1.8-6.7-2.4-13.5-.7-20.4,1.3-5.2,3.7-9.7,8.5-12.5,.1,0,.2-.2,.4-.4,0-2.7,1.1-4.9,3.5-6.1,4.9-2.5,9.1-6.4,14.6-8.1Zm48,31.3c0,0,.2,0,.3,0,.4-.5,.7-1,1.1-1.5,2.7-3.4,4.8-7.2,6.3-11.3,2.2-5.7,4.4-11.5,6.6-17.1,1.8-4.6,4.5-8.8,8.1-12.2,2.6-2.4,4.1-5.2,4.9-8.5,2-8,3.2-16.1,2.5-24.5-.4-5-2.8-8.7-7.5-10.7-1.1-.5-2.3-.9-3.4-1.3-2.4-.9-4.8-1.7-7.1-2.7-4.5-1.9-7.7-5.2-9.4-9.8-.8-2-1.5-4.1-2.2-6.1-1.4-3.8-3.3-7.3-6.1-10.3-.5-.6-1.2-1.1-1.9-1.4-3.9-1.7-8-2.8-12.3-2.1-5.8,.8-10.7,3.1-14.5,7.7-2.8,3.5-4.5,7.7-6.1,11.9-.3,.7-.4,1.4-.5,2.2-1.8,7.6-.9,6.5-5.1,12.6-3.4,5-3.9,10.6-3.3,16.5,.5,4.7,1.1,9.3,1.3,14,.3,5.1,.3,10.3,.4,15.4,0,1.6,.2,3.3,.4,4.9,.1,.9,.4,1.7,.6,2.5,5.6-.7,10.6,0,15,3,1.4-.3,2.6-.6,3.8-.8,3.5-.3,6.6,1.1,9.2,3.3,4.2,3.5,8.3,7,12.2,10.8,3.5,3.4,5.7,7.6,6.2,12.5,0,.9,.2,1.9,.3,2.8Zm-10.3,51.4c.3,2.7,.7,5.2,.7,7.6,0,3.2-.1,6.4-.2,9.7-.2,4.8-1.2,9.5-2.4,14.2-.3,1.1-.3,2.2,.2,3.2,1,2.4,2.3,4.5,3.9,6.5,6.8,8.5,15.4,14.6,25.4,18.8,5.6,2.3,11.4,3.9,17.5,3.8,2,0,3.6-.7,4.9-2.2,1.6-1.9,3-3.9,3.5-6.3,.6-2.8,1-5.7,1.3-8.6,.3-3.3,.8-6.6,1.8-9.8,1.5-4.6,4.5-7.6,9-9,3.5-1.1,7.1-1.3,10.8-1.1,1.2,0,2.4,.1,3.6,.1,1.1,0,2-.4,2.4-1.5,.7-1.5,1.7-2.6,3-3.7,.7-.5,1.3-1.1,1.9-1.7,4-3.9,5-9.3,1.3-14.1-1.4-1.8-3.1-3.4-4.8-4.9-2-1.8-4.2-3.3-6.3-5-.7-.6-1.4-1.2-2-1.8-8.4-9.8-19.1-15.1-31.8-16.6-3.8-.5-7.6-.9-11-2.7-.2-.1-.5,0-.8-.1-.3,1-.6,2-.8,3-1.3,5.3-3,10.3-5.9,15-1.9,3-4.4,5.3-7.3,7.2-1.7,1.1-3.6,1.7-5.6,1.6-2.5-.1-5.1-.3-7.6-.6-1.6-.2-3.2-.5-4.9-.8Zm-83-1.7c-5.7,1.1-10.5,5.1-11.9,11.4-1.1,5-.9,10.1,.2,15.1,.9,4.7,1.9,9.3,2.8,14,.4,2.3,.2,4.6-.4,6.9-.8,3-2.5,5.4-4.3,7.9-1.3,1.8-2.6,3.7-3.8,5.7-1,1.7-1.1,3.6-.6,5.5,1,3.8,3.1,4.1,5.9,3.7,.7-.1,1.3-.4,1.9-.7,1.3-.7,2.6-1.4,3.9-2.2,3.1-2.1,6-4.3,9.1-6.4,3.4-2.3,7-4.2,11-5,2.4-.5,4.8-.9,7.2-1.1,3.4-.3,6.8,.2,10,1.5,1.9,.8,2.2,1.5,1.7,3.5-.3,1.2-.8,2.3-1.1,3.5-.1,.4-.1,.8-.2,1.2,1.5-.4,2.9-.8,4.3-1,2.1-.3,4,.4,5.8,1.1,3.4,1.3,7,1.6,10.6,1,7.6-1.3,13.3-5.6,18.4-11.1,.6-.6,1-1.3,1.5-2.1,3.8-6.4,6.5-13.3,8.4-20.5,1.5-5.7,2.4-11.5,2.3-17.4,0-3.4-.2-6.9-.4-10.3,0-.9-.4-1.8-.6-2.7-5.2-1.7-9.9-4.1-14.1-7.3-3.8,3.3-8.1,4.3-12.9,3.4-.5,1.8-.9,3.4-1.3,5-.9,3.7-2.4,7-5.1,9.7-2.1,2.1-4.6,3.3-7.6,3.4-1.9,0-3.9,.3-5.7,1.1-3.5,1.6-7.3,2.1-11.1,2.1-7.2,0-13-2.9-17.3-8.6-1.8-2.4-3.2-5.1-4.8-7.6-.5-.8-1-1.7-1.5-2.5Zm115.5-25c1.9,1.3,3.9,1.9,5.9,2.3,3.3,.7,6.5,1.2,9.9,.4,1.7-.4,3.5-.8,5.2-1.2,6.9-1.6,13.1-4.4,18-9.7,3-3.2,5.8-6.6,7.5-10.7,2.5-6.1,2.8-12.4,2.1-18.8-.6-5.5-1.2-10.9-1.9-16.4-.4-3.3-.2-6.7,.3-10,.7-3.8,1.6-7.5,2.5-11.3,1.4-5.8,2.1-11.6,1.1-17.6-.6-3.8-2.5-6.9-5.3-9.3-5.1-4.4-10.9-5.3-17.1-2.9-10.1,3.9-15.7,12-19.2,21.7-1.2,3.3-1.9,6.7-2.9,10-.8,2.5-2.1,4.7-4,6.5-4,3.7-7,8.1-9,13.1-2.3,5.7-4.5,11.5-6.7,17.3-2,5.3-5.1,9.9-8.5,13.9-.7,3.1-1.1,5.9-2,8.6-1,2.6-.8,5-.8,7.9,.3-.5,.4-.7,.5-.9,2.6-7.1,6.9-13.2,11.7-18.9,3-3.6,6.8-6.5,11.1-8.5,1.5-.7,3.1-1.1,4.7-1.5,2.4-.5,5,.7,5.6,2.6,.5,1.6,1.1,3.2,1,5,0,1.2-.6,2.3-.7,3.5-.1,1.8-.6,3.4-1.3,5-1.7,4.1-3.5,8.3-5.3,12.4-1,2.3-1.9,4.7-2.4,7.3Zm-95.4-5.4c-.9-.2-1.6-.3-2.4-.4-4-.5-8-.9-11.9-1.6-5.3-.9-10.4-2.7-15.1-5.4-4.1-2.4-7.2-5.7-9.1-10.1-.8-1.8-1.4-3.8-2.2-5.6-.9-2.2-1.7-4.6-2.9-6.7-2.7-4.8-6.7-8-12.2-9-3.7-.7-7.3-.8-11,0-6.1,1.2-11.3,3.8-15.1,8.9-1,1.4-1.9,2.8-2.8,4.2-1,1.8-2.6,2.6-4.5,2.7-1.1,0-2.2,0-3.3,0-1.6,0-3.3,0-4.9,.1-2.1,.2-3,1.3-3.4,3.3-.5,2.1,0,4.2,.4,6.3,1.9,7.7,5.8,14.2,12.5,18.6,2.3,1.5,4.7,2.8,7.1,4.2,1.5,.9,3.1,1.6,4.6,2.5,5.7,3.2,10.7,7.3,15.2,12.1,2.9,3,6.2,5.6,9.8,7.7,3.8,2.2,7.9,3.6,12.4,3.2,1.1-.1,2.2-.2,3.3-.3,3.4-.6,6.8-1.3,9.9-3.2,1.2-.7,2.5-1.1,3.8-1.6,.4-.2,.7-.3,1.2-.5-.3-.6-.6-1-.8-1.5-1.2-2.2-1.9-4.6-2-7.1,0-2.7,1.4-4.1,4.1-4.2,1.9,0,3.7,.5,5.4,1.2,1.8,.8,3.7,1.7,5.5,2.4,3.1,1.2,6.3,2.1,9.7,1.6,3.6-.5,7.2-1.2,10.6-2.7,.4-.2,.8-.4,1.3-.7-6.4-4.7-10.3-11-13-18.2Zm24.9-20.1c-.2,0-.3-.2-.5-.3-.8,1-1.6,1.9-2.4,2.9-1.4,1.8-2.4,3.8-3.2,6-1.8,5.1-2,10.3-1.3,15.7,1.2,8.7,5.3,15.5,12.5,20.4,2.5,1.7,5.2,2.5,8.2,2.3,4.5-.2,7.9-2.2,10.2-6.1,3.5-6.1,4.1-12.7,3-19.5-.9-5.2-3.1-9.9-5.9-14.3-.9-1.4-2.1-2.7-3.4-3.8-2-1.7-4.3-2.1-6.8-1.2-2,.7-3.9,.6-5.8-.4-.7-.4-1.6-.7-2.2-1.2-.8-.7-1.6-.7-2.5-.6Zm24.2,44.3c.4,.3,.6,.6,.9,.8,4.6,3,9.5,5.3,14.9,6.4,2.5,.5,5.1,.6,7.7,1.1,1.6,.3,2.8-.3,3.8-1.3,2-2,3.5-4.3,4.1-7,.9-4.5,1.8-9.1,2.5-13.7,.9-5.8,3-11.1,7-15.5,2.1-2.3,4.3-4.5,6.3-6.9,1.7-2,3.4-4.1,4.9-6.2,1-1.5,1.8-3.3,2.4-5,1.1-3.1-1.1-6.1-4.4-6.1-1.7,0-3.2,.5-4.7,1.2-4.5,2.2-8.3,5.3-11.6,9.2-4.8,5.7-8.8,11.8-11.4,18.9-1.2,3.2-2.3,6.3-3.8,9.4-3.6,7.5-9.1,12.6-17.4,14.4-.4,0-.8,.3-1.3,.5Zm-35-5.3c-3.1,1.8-6.5,2.7-9.9,3.4-4.6,.9-9.1,.7-13.5-1.3-1.7-.8-3.4-1.6-5.1-2.2-1.4-.5-2.9-1-4.4-1.2-1.7-.3-2.7,.3-3.6,1.9,.3,.7,.7,1.4,1.1,2.2,2.3,4,5.8,6.7,10,8.5,5.1,2.2,9.4,5.4,13.6,8.9,2.3,1.9,4.9,3.5,7.4,5.1,1.7,1.1,3.7,1.5,5.8,1.3,1.4-.2,2.7-.3,4.1-.3,3.3-.2,6.1-1.5,8.3-4,2.5-2.9,3.9-6.4,4.6-10.1,.2-1.1,.3-2.3,.4-3.1-1.7-1.1-3.1-2-4.5-3-1.4-1-2.7-2.2-4.2-3.4-3.6,.4-6.9-.6-10.2-2.5Zm132.8-108.5c0,0-.2,0-.2,.1,0,.2,0,.5,0,.7,.8,3.3,1,6.7,.7,10.1-.3,4.2-1.2,8.2-2.3,12.3-1.1,4.3-2,8.6-2.1,13.1-.1,6.2,.9,12.3,1.7,18.4,.6,4.5,.8,9,.2,13.6-.8,6-3,11.3-6.9,15.9-1.4,1.6-2.9,3.1-4.3,4.6-.3,.3-.6,.7-.9,1,.3,.1,.5,0,.7,0,3.8-2.1,7.5-4.4,10.6-7.5,4-3.9,7.3-8.3,9.9-13.3,2.1-4.1,3.9-8.2,5.2-12.6,1.1-3.8,1.4-7.7,.8-11.6-.5-3.4-1.6-6.6-2.7-9.9-1.3-3.8-2.8-7.7-3.7-11.6-.8-3.4-1-6.9-1.5-10.3-.6-4.2-1.9-8.1-4.2-11.7-.3-.5-.6-.9-1-1.4Zm-139.6,54.8c-2.7,1.6-4.5,3.8-5.9,6.4-1.8,3.4-2.6,7-2.8,10.8-.3,4.5,0,8.9,1.3,13.2,1.9,7,4.9,13.3,10,18.5,2.8,2.9,6.1,5.1,10.1,6,1,.2,2.1,.5,3.4,.2-.4-.6-.7-1-1-1.4-2.4-3.2-4.2-6.7-5.1-10.6-1.1-4.5-1.5-9.1-.9-13.7,.7-5.2,2.3-10,5.8-14,1.7-1.9,3.4-2.5,5.7-1.4,.5,.2,1,.4,1.5,.7,1.5-2.5,1.5-4,0-5.6-4.3,1.9-8.6,1.4-12.7-.4-4-1.7-7.6-3.9-9.3-8.5Zm41.3,57.8c4-.8,7.5-2.1,10.4-4.4,6.7-5.4,10-12.4,10.4-20.9,.2-4.3-1.4-8.2-4.1-11.6-1.3-1.6-2.4-3.4-3.5-5.1-.4-.6-.7-1.3-1.1-1.9-2.9-3.9-6.6-6.6-11.3-7.7-2.9-.7-5.8-.7-8.6,.1-2,.6-3.1,2.6-2.4,4.5,.8,2.3,2.1,4.4,4.1,5.9,1.7,1.3,3.1,2.7,4.2,4.5,4.4,7.2,7.2,14.9,6.3,23.6-.4,3.8-1.2,7.5-3.1,10.9-.3,.6-.7,1.2-1.1,2.1Zm-36.9,65.1c-1.2-.4-2.2-.9-3.3-1.2-3.9-1-7.9-.8-11.8-.2-5.3,.8-10,3-14.3,6.1-2.8,2-5.5,3.9-8.3,5.8-1.8,1.2-3.7,2.2-5.9,2.6-.1,0-.3,.2-.5,.5,3.4,.4,6.5,.2,9.7-.3,2.6-.4,5.2-.9,7.8-1.1,5-.5,9.9,.7,14.7,2,6.1,1.7,12.2,3.5,18.3,5.1,3.8,1,7.6,.8,11.2-.9,3.7-1.7,7.1-3.8,9.9-6.7,2.8-2.9,5.4-5.9,7.7-9.3,.3-.4,.4-.8,.7-1.2-1.4,.7-2.6,1.6-3.8,2.5-4.8,3.6-10.3,5.3-16.3,5.2-2.7,0-5.2-.8-7.7-1.8-2.4-1-4.6-.8-6.9,.2-.5,.2-1,.5-1.5,.6-.4,0-.8,0-1.2,0-.3-2.9,1.7-5.1,1.7-8Zm143.3-47.1h-.4c0,.4,0,.8,.2,1.1,.8,3.1,.1,6-1.7,8.6-1,1.3-2.2,2.5-3.3,3.6-1.3,1.2-2.6,2.3-3.3,4-.5,1.2-1.5,1.7-2.8,1.7-2.5,0-5.1-.1-7.6,0-1.8,0-3.7,.2-5.5,.7-5,1.2-8.5,4.1-9.9,9.2-.3,1.1-.7,2.2-.9,3.4-.5,3.6-.9,7.1-1.3,10.7-.5,3.8-1.7,7.2-4.2,10.1-.2,.2-.3,.5-.6,1,3.4-1.1,5.9-2.9,7.5-5.9,.6-1.2,1.3-2.4,1.9-3.6,1.1-2.1,2.7-3.9,4.7-5.3,2-1.4,4.2-2.5,6.5-3.2,2.9-.9,5.9-1.8,8.8-2.6,5.6-1.5,10.1-4.3,13.5-9.1,3.1-4.2,4.2-8.8,3.3-13.9-.7-3.8-2.6-7.1-4.7-10.2Zm-85.1-48.8c.3-.7,.5-1.1,.6-1.5,.5-2.7,1.2-5.4,1.5-8.1,.2-1.8,.2-3.7-.1-5.5-.8-4.6-3.2-8.5-6.6-11.7-3.3-3.1-6.7-6-10.1-8.9-1.6-1.4-3.4-2.7-5.5-3.5-3.3-1.2-6.4-.9-9.1,1.4-2.5,2-4,4.7-4.7,7.7-.4,1.8-.4,3.9,1.2,5.1,1.1,.9,2.2,1.7,2.8,3,0,0,.2,0,.3,.2,.2,0,.5,0,.8,0,4-1,8-.6,11.8,1,4.1,1.6,7.2,4.5,9.6,8.1,.7,1.1,1.2,2.4,2,3.4,2.1,2.9,4.5,5.6,5.6,9.5Zm-29.5-39.5c-.5-.3-.9-.6-1.3-.9-3.7-1.9-7.7-2.3-11.7-1.7-2.9,.4-5.5,1.8-8,3.4-2.4,1.5-4.9,3-7.3,4.5-.6,.4-1.3,.8-1.8,1.2-1.6,1.3-2.2,3-1.8,5.1,.5,2.3,1.6,4.1,3.5,5.4,3.1,2.2,6.3,3.9,10.1,4.3,4.1,.4,7.8-.3,10.1-4.4,.3-.6,1.1-.9,1.6-1.4,.4-.3,.9-.6,1.3-.9-2-6.3,1.1-10.6,5.2-14.7Zm-86.6,11.8l-.3,.4c3.6,3.1,5.3,7.3,6.9,11.6,.6,1.6,1.1,3.3,1.8,4.9,2.1,4.9,5.7,8.4,10.4,10.9,6.2,3.2,12.8,4.8,19.7,5.7,.8,.1,1.6,.2,2.5,.3-.2-.4-.5-.6-.8-.8-1.5-1-3.1-2-4.6-3-4.8-3.4-9-7.6-13.2-11.6-2-1.8-3.8-3.9-5.8-5.6-2.8-2.4-5.6-4.8-8.6-7.1-2.5-2-5.2-3.7-7.9-5.6Zm123.5,67.5c1.3,0,2.2-.6,3.1-1.1,2.9-1.9,5.4-4.2,7.2-7.2,2.6-4.3,4.2-9,5.4-13.8,1.4-5.5,3-10.9,5.5-16,1.7-3.5,3-7.3,4.5-11,.4-1,.6-2.1,.8-3.2h-.3c-1.6,3.7-4.2,6.8-7,9.8-2.1,2.2-4.1,4.4-6.1,6.7-3,3.6-5.1,7.6-5.9,12.3-.7,4.2-1.4,8.3-2.2,12.5-.7,3.9-1.9,7.7-4.9,10.6-.1,0-.1,.3-.3,.5Zm-115.5,58.4c1.8-2.6,3.5-5,5.3-7.4,3-4.1,3.8-8.6,2.9-13.5-.7-3.5-1.5-6.9-2.2-10.4-1.2-5.3-1.8-10.7-.8-16.2,.2-1.2,.6-2.3,.8-3.5,0,0-.2,0-.3-.1-.5,.9-1.1,1.9-1.6,2.8-3.3,6.9-5,14.1-5.1,21.7,0,6.9,.4,13.7,.7,20.6,0,1.9,.2,3.9,.3,5.9Zm51-43.9c-1.7-.8-3.4-1.4-4.9-2.4-2.3-1.4-4.5-3-6.6-4.7-3.9-3.3-7.9-6.3-12.7-8.3-1-.4-1.9-1-2.8-1.5-3.3-1.8-5.9-4.4-7.8-7.8-.1-.2-.3-.5-.5-.7,0,1.3,.3,2.6,.6,3.7,.3,1.1,.7,2.1,1.3,3.1,2.6,4.1,5.2,8.2,8,12.2,2.4,3.3,5.7,5.5,9.5,6.8,3.7,1.2,7.6,1.4,11.4,.7,1.5-.3,3-.4,4.3-1.2Zm57.2-180.8l-.2,.2c.2,.3,.3,.6,.5,.9,1.8,2.4,3.2,5.1,4.2,8,.7,1.9,1.4,3.9,2.1,5.8,1.7,4.6,4.9,7.9,9.5,9.7,2.3,.9,4.6,1.7,7,2.6,2.9,1,5.6,2.2,7.8,4.5,0,0,.2,0,.3,0,0-.1,0-.2,0-.3-1.7-5.3-4.3-9.9-9.1-13-1.1-.7-2.2-1.5-3.3-2.2-2.5-1.6-4.8-3.5-6.8-5.7-3.1-3.5-6.6-6.7-10.5-9.4-.5-.3-1-.6-1.5-1Zm-163.4,136.4c1.6,5,11,15.2,18.5,20.4,7.5,5.2,21.6,11.3,25.2,11.1-1.6-1-3.2-1.8-4.7-2.9-2.9-2-5.5-4.3-7.9-6.8-5.7-5.9-12.3-10.6-19.8-14.1-3.4-1.6-6.6-3.8-9.5-6.3-.5-.5-1.1-.9-1.7-1.5Z" fill="#fff"/></g></svg>