<svg xmlns="http://www.w3.org/2000/svg" width="484.9" height="513.4" viewBox="0 0 484.9 513.4"><g fill="#c47d59"><path d="M399.8 148.4c-6-.9-11.5-1.8-17.1-2.6-5.8-.8-11.7-1-17.6-.6-5.6.3-11.2 1.3-16.6 2.9-2.9.9-5.8 2-8.7 3-.3.1-.7.2-1.2.4.3-.8.8-1 1.3-1.2 2.8-1.1 5.6-2.2 8.5-3 5-1.5 10.1-2.5 15.4-2.8 2.6-.1 5.2-.4 7.8-.3 3.6.1 7.2.5 10.7.9 4.1.5 8.2 1.2 12.3 1.9 1.6.3 3.3.8 5.2 1.3zm-37.6-96.3c-5.3 20-10.7 40-12.8 60.7-.4-1.1-.3-2.3-.2-3.4.5-5.4 1.4-10.7 2.4-15.9 1.6-8.2 3.4-16.4 5.6-24.5 1.5-5.3 3.1-10.6 4.6-15.9 0-.3.2-.6.3-.9zm-37.4 31.3c-10.1-24.2-25.6-44.2-46.2-60.4 21.1 15.8 36.6 35.8 46.2 60.4zm28.4 51.4c.3-.8.7-1.5 1.1-2.3 3.9-7.3 8.9-13.6 15.1-19.1 6.5-5.8 14.1-9.3 22.4-11.5 3.5-.9 7.1-1.7 10.6-2.4.5-.1 1 0 1.2 0-4.7 1.3-9.8 2.5-14.9 4-5.7 1.7-11 4.2-15.7 7.8-6.5 5.1-12.3 11-16.5 18.3-1.1 1.8-2.1 3.6-3.1 5.5l-.3-.2zm7.6-126.6l-1.8 3.3c-3.6 6.3-6.7 12.8-8.5 19.9-1.2 4.7-2.1 9.5-2.7 14.3-.2 1.5-.7 2.9-.9 4.4-.3 2.4-.6 4.9-1 7.3.1-2 .2-4 .4-6 .2-1.8.3-3.7.6-5.5.4-2.5.9-4.9 1.4-7.4 1-5.7 2.4-11.3 4.7-16.7 2-4.6 4.4-9 7.1-13.2.1-.2.3-.4.5-.6.1 0 .2.2.3.2zm87.8 102.5c-1.6-.2-3.2-.5-4.8-.7l-11.4-1.5c-6.3-.9-12.6-1.2-19-.9-3 .1-6 .7-8.9 1-.5 0-1 .1-1.5.2v-.4c.3-.2.8-.4 1.2-.5 3.5-.8 7.1-1.3 10.7-1.3 3.9 0 7.7 0 11.6.4 7 .7 14 1.5 20.9 3.2.4.1.9.3 1.3.4v.1zM380.9 66c4-8.9 8.3-17.7 11.6-26.9 1.6-4.5 3-9.1 3.6-13.9.1-1 .2-1.9.4-2.9.4 1.6.3 3.3 0 4.9-.7 5.1-2.4 10.1-4.3 14.9-3.2 7.9-6.7 15.7-10.9 23.2-.2.3-.3.5-.5.8zM312 72l3 4.8c4.2 7.3 8.1 14.7 10.7 22.7 1.6 4.9 2.7 9.9 3.1 15 .2 1.9.2 3.8.3 5.7 0 .5-.2 1-.5 1.5-.1-1.9-.2-3.7-.4-5.6-.4-6.1-1.8-12-3.7-17.7-2.5-7.5-6.2-14.4-10-21.3-.9-1.6-1.9-3.2-2.8-4.9h.2zm8-19.8c-9.3-12.2-18.4-24.6-31.6-33 0-.1.2-.2.2-.3.5.2 1 .5 1.5.8 4.2 2.5 7.9 5.6 11.4 9.1 6.8 6.9 12.8 14.4 18 22.5.2.3.4.7.6 1zm-16.9 111.9c1.5-1.6 2.9-3.3 4.4-4.9 2.6-2.9 5.4-5.5 8.6-7.8 2.7-1.8 5.5-3.4 8.7-4.1.8-.2 1.6-.2 2.3-.3h1.7c-.9-5.3.1-10.2 1.8-15-.4 2.6-1 5.2-1.2 7.8-.2 2.6 0 5.3 0 8.1-3.4-.6-6.4.6-9.3 2-3.4 1.7-6.4 3.9-9.1 6.5-1.9 1.8-3.7 3.8-5.5 5.7-.7.8-1.4 1.6-2.1 2.3l-.3-.2zM332 76.2c.6 2 1.3 4 1.7 6 1.5 6.9 2.7 13.8 2.3 20.8-.2 3.8-.9 7.5-2.3 11.1-.2.6-.4 1.4-1.4 1.8v-.8c1.7-4.2 2.5-8.7 2.7-13.2.3-6.6-.8-13-2.1-19.5-.4-2.1-.9-4.1-1.4-6.1h.2zm20.2 39.4c6.2-15 12.4-29.9 18.5-44.9.1 0 .2 0 .3.1-5.8 14.5-11.6 29.1-17.7 43.5-.2.5-.6 1-.9 1.4 0 0-.2 0-.3-.1zm-95.6-8c1.7.2 3.4.4 5.1.7 4.4 1 8.9 1.7 13.2 3.2 8.8 3 17.3 6.7 24.9 12.3.9.7 1.7 1.4 2.4 2.3-6.8-4.9-14-8.9-21.8-12-7.7-3.2-15.7-5-23.8-6.5zm5.7-76.5c.2.1.4.2.5.3 2.3 4.6 5.9 8.3 9.3 12 3.6 3.9 7.4 7.5 11.1 11.3.1.1.3.3.3.6-.6-.5-1.3-1-1.9-1.5-5.9-5.2-11.4-10.7-16.3-16.8-.8-1.1-1.6-2.2-2.3-3.4-.4-.7-.8-1.4-.6-2.4zm84.5 129.3c1.9 0 4 .5 6.2 1.2 7.5 2.2 14.5 5.4 21.5 8.8 4 2 7.8 4.2 11.7 6.3.5.2.9.5 1.3.9-13.2-6.8-26.4-13.7-40.7-17.2zm33.6-118.2c2.2-10.6 5.6-21 6-31.9h.3c0 .4.1.8.2 1.2.2 4.4-.5 8.6-1.6 12.8-1.4 5.6-3 11.2-4.5 16.8 0 .4-.3.7-.4 1.1z"/><path d="M382 101.7c-11.2 7.3-21.3 15.8-27.3 28.2-.1 0-.2-.1-.3-.2.2-.5.3-1 .5-1.4 2.6-5.3 6.1-9.8 10.2-14 4.5-4.6 9.7-8.3 15.1-11.7.5-.3 1.1-.6 1.6-1zm-14.1 76.7c-8.9-6.1-17-13.3-26.8-18.1 0-.1.1-.2.2-.4.5.2 1 .3 1.5.5 3.1 1.5 6.2 3.1 9 5.3 5 3.8 10 7.7 15.1 11.6.4.3.7.7 1.1 1zm13.6-27.4c-3.8-.6-7.3-1.2-10.8-1.7-5.2-.8-10.4-.9-15.7-.7-2.4.1-4.8.7-7.2.9.4-.2.7-.4 1.1-.5 2.2-.4 4.5-.7 6.7-1 1.6-.2 3.3-.3 4.9-.3 6.8.3 13.4 1.2 20 2.9.3 0 .5.2 1 .4zm3.8 31.3c7.1 4.8 13.8 10.1 20.3 15.7 1.2 1.1 1.2 1.1 1.5 2.3-7.4-6.1-14.6-12.1-21.8-18.1zm44.9-33.9c-2.7-.8-4.7-2-6.9-2.8-2.3-.9-4.6-1.8-6.9-2.6-2.3-.8-4.6-1.6-6.9-2.3-2.3-.7-4.6-1.4-6.7-2 4-.3 24.5 6.8 27.4 9.8zM400.9 41.1c-2.7 12.6-9.4 23.3-16 34 6-11 12.7-21.7 16-34zm-47.8-7.4c1.9-11.1 5.6-21.3 12.6-30.2h.3c-1.8 3.3-3.8 6.4-5.5 9.7-1.6 3.2-3.1 6.6-4.3 10-1.2 3.4-2.1 7-3.1 10.5zM317.5 94c.2.3.4.6.5.8 3.7 7.5 6.9 15.2 8.9 23.3.3 1.4.6 2.8.7 4.2 0 .7-.1 1.5-.2 2.2h-.4c0-.2-.1-.3-.1-.5.1-2.3-.3-4.6-.9-6.9-1.8-7.7-4.9-14.9-8.2-22.1-.2-.4-.3-.7-.5-1.1h.2zm107.2-16.1c-.3 0-.6.1-.8.1-3.8 0-7.5.8-11 2-4.2 1.4-8.3 3-12.5 4.5.1-.1.3-.3.6-.4 5.8-3 11.8-5.1 18.1-6.4 1.2-.2 2.4-.3 3.6-.3.7 0 1.4.2 2.1.3v.4zM397.9 207c7 4.9 13.8 10.3 21.7 13.8v.3h-.9c-1.5-.7-3-1.3-4.4-2.1-3.7-2.4-7.3-4.9-10.9-7.4-1.5-1-2.9-2.3-4.3-3.4-.4-.3-.8-.8-1.2-1.1zm-73.6-65.4c-.2-.2-.4-.3-.5-.5-2.9-3.4-6.8-4.6-11.1-5-4.8-.4-9.1 1.2-13.4 3-.4.2-.8.3-1.3.4 3.3-1.7 6.6-3.2 10.3-3.7 4-.6 7.9-.3 11.6 1.4 1.7.8 3.2 1.9 4.3 3.4.2.2.2.5.4.8h-.2zm72.7 39.3c-3.3-2.6-6.5-5.2-10.2-7-3.7-1.8-7.4-3.6-11-5.3 6.6 1.9 18.6 7.6 21.2 12.3zm-100.1-34.4c-6 5.3-11.7 10.8-15.1 18.4-.4-1-.5-1.1 0-1.8 1.5-2.3 2.8-4.7 4.5-6.9 2.8-3.4 6-6.4 9.5-9 .3-.2.7-.4 1-.7zm-70.3-51.4c8.1-2.1 16.3-1.3 24.4.2l-8.1-.6c-2.8-.1-5.6-.2-8.4-.2-2.6 0-5.3.7-7.9.6zm203.7-3.6c8.1-.4 16.1.2 23.8 2.8-.5.5-1.1.2-1.6 0-4.1-1.1-8.2-1.8-12.4-2.1-3.2-.3-6.4-.5-9.6-.7h-.3zm-41.7 47c-4.3.2-8.8.2-13.3.7-4.5.5-8.9 1.5-13.4 2.3 5.4-2.4 23.2-4.3 26.7-3zM335.8 154c1.4 3.3 1.6 6.7.7 10-1 4.1-2.9 7.9-5.4 11.4.2-.4.4-.7.5-1.1 1.3-3.1 2.7-6.1 3.8-9.2 1.1-3.1 1.3-6.3.3-9.5-.2-.5-.2-1.1-.3-1.6h.4zm-40.3-24.5c-1.6.8-3.2 1-4.9.8-1.6-.2-3.2-.3-4.7-.5-3.4-.6-6.8-1.2-10.2-2 6.6.6 13.1 2.4 19.9 1.7zm33 19c-5.8 2.5-10.1 6.9-14.5 11.1-.4.4-.7.8-1 1.2-.1 0-.2-.2-.3-.3.9-1 1.8-2.1 2.8-3.1 2.9-2.9 5.9-5.6 9.3-7.8 1.1-.7 2.2-1.5 3.6-1.1zM261 128.1c5 3.2 10.6 4.4 16 5.7-4.2.4-14-3-16-5.7zm101.9-29.3c-2.8 7.8-7.9 17.7-9.5 18.7 3.1-6.2 6.3-12.4 9.5-18.7zm-42.8 77.6c.5-1.1 1.6-1.9 2.2-2.9.6-1.1 1.3-2.2 1.9-3.3.6-1.1 1.1-2.2 1.6-3.2.6-1.1 1.1-2.3 1.9-3.3-.3.7-.4 1.5-.8 2.2-1.1 2.4-2.2 4.9-3.4 7.3-.5 1.1-1.4 2-2.1 2.9-.2.3-.6.4-.9.6l-.3-.3zm125.6-7.2c-4.8-2.4-9.5-4.8-14-7 3.5.6 12.8 5 14 7zM311.1 36.4c-4.2-4.2-8.1-8.8-12.9-12.4 5.4 3 9.2 7.7 12.9 12.4zm80.5 148.3c5.8 3.5 11.3 8.4 11.8 10.3-3.9-3.4-7.9-6.8-11.8-10.3zm-87.9-58.9c-4.6-5.2-10.4-8.6-16.2-12.2 4.4 1.3 14.7 9 16.2 12.2zm38.4-8.2c-3.2 3.7-4.8 8-6.3 12.4.6-4.2 2.2-8 4.6-11.4.3-.5.6-1.1 1.7-1zm-6.5 33.8c3-3.8 4.2-8.5 6.1-12.8-1.4 4.6-2.3 9.4-6.1 12.8zM270.2 46.5c-2.7-2.3-5.1-5.1-7.2-8.1-.4-.5-.6-1.1-.9-1.6v-.6c2.7 3.5 5.4 7 8 10.3zm22.1 142.4c-1.7 3.7-3.4 7.4-5.2 11.3 0-.6-.2-.8-.2-1.1 1.3-3.7 3-7.2 5.4-10.3zM386.4 26c.8-4.2 1.5-8.5 2.3-12.9.6.7.4 1.4.3 2-.6 3.7-1.3 7.4-2.7 10.8zm63.3 69.6c4.7.5 9.4 1.2 13.9 3.3-4.7-1.1-9.4-2.2-13.9-3.3zm-75.2-83.9c.8-3.7 1.6-7.3 2.4-11h.3c0 .4.2.8 0 1.1-.8 3.4-1.6 6.7-2.4 10.1-.1 0-.3-.1-.4-.2zm90.8 102.9c3.6.6 7 .9 10.7 1.6-1.6.7-7.9-.3-10.7-1.6z"/><path d="M334.6 153.6c.2.7.5 1.4.4 2 0 3.2-1 6.2-2.2 9.1.6-3.7 2.4-7.2 1.3-11h.5zm16.2-28.4c-.5-1.4-1.1-2.8-1.6-4.3-.6-1.7-1.5-3-3.3-3.5-.1 0-.3-.1-.4-.2v-.1c1.4-.3 2.5.1 3.2 1.4 1.2 2 1.9 4.3 2.1 6.7zm-69.1 5.8l9.9.6c-3.4.8-6.6-.1-9.9-.6zm156.8 36.8c2.4.8 4.8 1.5 6.7 3.4-2.3-.9-4.5-2.1-6.7-3.4zM332 150.1c-1-2.3-.6-4.6 0-6.9v6.9zM226.1 97c2.5-.8 5.1-.4 7.6-.4-2.5.3-5.1.5-7.6.8V97zm56.8 69.3c.7-2.5 2.3-4.4 4-6.2-1.3 2.1-2.7 4.1-4 6.2zm56.9-41.6c.4-2.2 1.2-4.2 2.4-5.9.1 0 .2.1.4.2-.9 1.9-1.9 3.8-2.8 5.7zm3.1-11.6c-.5-1.2-1-2.4-1.4-3.6 1.1.2 1.6 1.2 1.4 3.6zm-84 400.2l-.9-40.6c-.3-11.9-.8-23.7-1-35.6-.1-6.6 0-13.2.3-19.8.2-6.6.6-13.1 1.1-19.7.3-4.3 1-8.5 1.7-12.7 3.7-23.8 13.4-45.3 25-66.1 3.3-5.9 7.1-11.6 11-17 3.2-4.4 6.5-8.9 9.7-13.3 9.7-13.5 16.3-28.5 20.8-44.5 3.5-12.3 6.3-24.7 8.3-37.3 1-6.2 1.8-12.3 2.7-18.5v-.7c-.8 1.2-1.6 2.1-2.3 3.2-.7 4.5-1.3 9.1-2.1 13.7-3.3 19.1-7.4 38-14.5 56.1-3.8 9.6-8.9 18.4-14.7 26.8-2.1 3-4 6.1-6.3 8.9-3.9 4.8-7.3 9.8-10.6 15-11.1 18-20 37-25.8 57.4-1.2 4.4-2.2 8.8-2.9 13.3-.9 5.9-1.5 11.9-2.1 17.8-1.3 13.3-1.8 26.7-1.5 40.1.2 8.9.6 17.9.8 26.8.3 8.4.5 16.8.7 25.2.2 7.1.5 14.3.7 21.4h-1v-6.7c-.1-4.4-.4-8.8-.5-13.2-.3-9.3-.5-18.6-.8-27.9-.2-8-.5-16.1-.8-24.1-.3-8.9-.1-17.9.4-26.8.3-4.9.5-9.7 1-14.6.7-6.6 1.8-13.2 2.7-19.8 2.1-15.9 8.4-30.5 15-45 6.3-13.8 14-26.8 23.2-38.9 4.8-6.3 9.2-12.8 13.3-19.5 6-9.9 10.1-20.6 13.4-31.6 4.2-14.1 7.4-28.5 9.6-43 1-6.9 1.9-13.7 2.9-20.6 0-.3.1-.5.2-.8 1.3-1 2.6-2 4-3.1 0 .4 0 .8-.1 1.2-1.3 11.2-2.8 22.5-4.9 33.6-3 15.8-6.7 31.4-12.3 46.4-3.3 8.9-7.6 17.4-12.9 25.3-3.8 5.7-7.6 11.5-11.8 16.9-14.2 18.8-24.1 39.7-31.7 61.9-3.3 9.5-5 19.3-6.3 29.3-1 7.7-1.6 15.4-1.7 23.1 0 6.4-.5 12.8-.4 19.2 0 11.9.3 23.7.6 35.6.2 10.3.6 20.6.9 30.9l.3 10.3c0 .6.2 1.2.3 1.9h-1z"/><path d="M428.6 83.9c.7-.2 1.4-.3 2.1-.5 2.9-.8 5.7-.5 8.5.8 2.9 1.3 5.6 2.9 8 4.9 3.4 2.9 7.4 4.9 11.6 6.4 4.6 1.7 8.8 4.2 12.7 7.2 3.2 2.4 4.9 5.7 5.6 9.5.5 2.7-.4 5.1-2.3 7.1-1.8 1.9-4 3.1-6.5 3.9-4.2 1.5-8.6 1.9-13 2-5.8.1-11.5-.4-17.2-1.1-8.4-1-16.8-2.3-25.3-2.4-10.8 0-20.9 2.6-30.6 7.2-.5.3-1.1.6-1.6.9 0 .1 0 .2.1.3 1.6-.1 3.1-.2 4.7-.4 6-.8 11.7.2 17.4 2 5.8 1.8 10.9 4.8 15.8 8.4 2.2 1.6 4.6 3 7 4.4 6.3 3.7 12 8.2 16.6 13.9 1.5 1.9 2.8 3.9 3.6 6.1.6 1.7.8 3.5.4 5.3-.4 1.8-1.4 3-3.1 3.5-1.5.4-3 .7-4.5.8-2.4.1-4.7-.3-7.1-.9l-9.6-2.4c-6.4-1.5-12.9-1.9-19.4-1.7-3.9.1-7.8.3-11.8.5 0 .3 0 .5.2.7 4.8 6.2 8.1 13.3 11.3 20.4 2 4.4 4.5 8.3 7.9 11.8 4.1 4.2 7.2 9.1 9.1 14.7.5 1.5.9 2.9.8 4.5-.1 2-1.2 3.4-3.2 3.8-1.5.3-3 .2-4.4-.2-5.8-1.5-11.6-3-17.3-4.6-5-1.4-10.2-2.6-14.9-4.8-2.8-1.3-5.5-2.7-8.2-4.2-5.1-3-9.4-6.9-13.4-11.3-3.4-3.8-5.7-8.1-7.2-12.9-1.6-4.8-3.1-9.7-4.7-14.5-.5-1.6-1.3-3.1-2-4.6-.3-.7-.9-1.3-1.3-1.9-.2 2-.3 3.9-.6 5.7-.8 4.2-3.3 7.1-7 8.9-2 .9-4.1 1.6-6.3 2.1-4.1 1-8.2 1.8-12.1 3.3-5.4 2.1-10.3 5.1-15 8.6-1.7 1.3-3.4 2.7-5.3 3.8-1.8 1.1-3.7 2.1-5.8 2.6-3.2.7-6.1-.4-8.4-2.7-1.7-1.6-2.6-3.6-3-5.9-.6-3.5-.2-7 .4-10.4.4-2.2.3-4.1-1-6.1-2.2-3.4-2.8-7.3-3.2-11.2-.5-5.6.3-11 2-16.3.4-1.2 1-2.3 1.5-3.5.2-.4.4-.8.6-1.4-1.2-.3-2.4-.5-3.4-1-1.9-.8-4-1.5-5.7-2.7-3.3-2.2-6.5-4.5-9.6-7-6.1-5-12.6-9.3-19.8-12.5-2.1-.9-4.3-1.7-6.4-2.8-5-2.6-10.5-3.4-16-4.3-5.3-.9-10.6-.7-16 .3-.8.2-1.7.3-2.5.2-1.3 0-1.8-.7-1.7-2 0-1.7.7-3.2 1.8-4.5 1.5-1.7 3.2-2.9 5.2-3.9 1.4-.7 2.8-1.2 4.3-1.7 1.6-.5 3.3-.9 4.9-1.4 3-1.1 6-1.1 9.1-.5.4 0 .7 0 1.3.2-.2-.6-.3-1-.5-1.4-.7-1.5-.5-3 .6-4.1.9-.9 1.8-1.8 2.9-2.4 4.9-3.1 10.2-4 15.8-3.3 3.8.4 7.5 1.1 11.3 1.7 2.7.4 5.3.9 8 1.2 6.7.7 12.7 3.3 18.4 6.9 7.4 4.6 13.6 10.4 18.9 17.3 2.1 2.7 3.9 5.5 5.8 8.3 1 1.5 1.3 1.6 3.5 1.8-.2-.6-.2-1.2-.5-1.6-1-1.7-2-3.4-3.2-4.9-2.7-3.7-5.9-7-9.1-10.3-5.4-5.5-10.9-11-16-16.8-6.9-7.9-12.6-16.6-17-26.1-3.2-6.9-5.2-14.1-4.8-21.8.1-2.3.6-4.5 1-6.7.1-.6.4-1.3.8-1.7 1-1.1.8-2.3.6-3.6-.6-2.9-1.3-5.8-1.6-8.7-.3-2.7.3-5.4 1.6-7.8 1.2-2.4 3.3-3.7 6-3.9 3.4-.3 6.7.5 9.8 1.8 4.5 1.9 8.9 4.2 13.3 6.3 4.9 2.3 9.8 4.7 14.8 6.9 3.9 1.8 7.4 4.1 10.6 6.9 5.2 4.8 10.1 10 14.3 15.7 1.5 2.1 2.7 4.4 4.1 6.6.2.4.5.8 1 1.1 0-.8.2-1.5.2-2.3.3-4.8 1.5-9.4 3-13.9 1.1-3.4 2.4-6.7 3.8-10.1 1.3-3.4 3.2-6.4 5.5-9.2 3.5-4.4 7.1-8.9 10.7-13.2 2.6-3.2 5.6-5.9 9.5-7.5 1.5-.6 3.1-1.1 4.7-1.3 3.9-.5 7.2.7 9.8 3.7 1.1 1.3 2 2.7 3.1 4 1.5 1.9 2.8 3.8 4.5 5.6 8 8.5 10.8 18.7 10.5 30-.2 6.6-1.9 12.8-4 19-2.3 6.5-5.3 12.7-9.2 18.4-1 1.4-2.1 2.8-3.2 4.1-.3.4-.6.7-.9 1.1l.2.3 1.5-.9c5.9-3.6 12-6.5 18.7-8.2 4.9-1.3 9.8-2.1 14.9-1.7 3 .2 5.9.9 8.5 2.3.8.4 1.6.9 2.2 1.6 1.1 1 1 2.2-.2 3.1-.4.4-.9.7-1.3 1 0 0 0 .2.1.3zm-103.5 57.3h.3V140c-.4-7.9.8-15.4 5-22.3.7-1.1 1.5-2.4 2.6-3.1 2-1.3 3.1-3.3 4.9-4.5.4-3.2.8-6.1 1.3-9.1.2-1.1.6-2.2.7-3.4.2-1.9.3-3.8.3-5.7.1-4.8-.3-9.5-1-14.2-.7-4-1.2-8.1-2-12-1.1-5.4-3.2-10.5-6.6-15-4.6-6-9.6-11.5-15.3-16.5-2.6-2.3-5.4-4.2-8.6-5.6-5.5-2.5-10.9-5.1-16.4-7.7-4.3-2-8.5-4.2-12.9-6.1-2.8-1.2-5.8-1.8-8.8-1.6-2.4.2-4.2 1.3-5.4 3.4-.5.9-.8 1.8-1.1 2.8-.8 2.8-.5 5.7.1 8.5.4 1.9.9 3.7 1.3 5.6.2 1 .2 1.9-.4 2.7-1.4 1.7-1.7 3.8-1.9 5.9-.8 8 .9 15.5 4 22.7.4.9.9 1.7 1.5 2.4 3 3.5 6.4 6.6 10.3 9.1 3 1.9 6 3.7 9.1 5.6 5.6 3.4 11.3 6.7 16.3 11 4.9 4.1 9.2 8.8 12 14.6 2.1 4.5 3 9.3 3.7 14.2.4 3.1.7 6.2 1.3 9.3.3 1.4.8 2.9 1.6 4.1 1.1 1.9 2.5 3.6 3.7 5.3.2.2.4.4.6.7zm13.8-31.7c2.4-.4 4.6-1.1 6.8 0 2.1.9 3.8 2.2 4.7 4.5 3.7 1.5 3.9 5.2 5 8.7.4-.8.7-1.2.9-1.6 1.4-3.1 2.6-6.4 4.3-9.4 4.1-7.5 9.6-13.8 16.1-19.3 4.2-3.6 8-7.7 11.1-12.4 5.4-8.1 9-17 11.2-26.4 1.3-5.6 1.9-11.1 1.2-16.8-1.1-8.6-4-16.3-10.2-22.6-2-2.1-3.6-4.6-5.4-6.9-.9-1.2-1.8-2.4-2.8-3.4-1.3-1.4-2.9-2.3-4.8-2.6-2.6-.4-5.1 0-7.5 1-3.8 1.6-6.8 4.2-9.4 7.4-3.7 4.5-7.4 9-10.9 13.6-2.5 3.2-4.6 6.7-6.1 10.5-1.4 3.7-2.7 7.4-3.9 11.2-.6 2-.9 4.1-1.3 6.2-.9 4.9-.9 9.8.4 14.6.8 3.1 1.5 6.3 2 9.4.5 3.3.7 6.7.9 10.1.3 5.2.2 10.4-.6 15.5-.3 1.7-.4 3.5-1.1 5.2-.4 1-.3 2.1-.5 3.5zm11.4 33.4c.1 0 .2.2.4.3 4-2.5 7.9-5.1 10.8-8.9 2.5-3.4 4.9-6.9 7.3-10.4 2.4-3.5 5.1-6.7 8.7-9.1 6.8-4.6 14.4-6.8 22.6-6.7 6.6 0 13 1.5 19.3 3.5 2.8.9 5.6 1.8 8.4 2.8 2.7.9 5.3 1.9 7.9 2.8 2.1.7 4.2 1.6 6.4 2.2 6 1.7 12 2.8 18.2 3.6 5.2.7 9.6-.8 13.4-4.3 1.7-1.5 2.7-3.6 2.3-6-.6-3.7-2.2-6.8-5.2-9.2-3.6-2.7-7.4-5.2-11.6-6.8-4.9-1.8-9.6-4.2-13.6-7.6-1.8-1.5-3.9-2.5-5.9-3.7-3.3-1.9-6.7-2-10.3-.7-1.2.4-2.4.9-3.6 1.2-.5.1-1 .1-1.6.2 0-.2-.1-.3-.2-.5 1.4-2.1 4-2.8 5.7-4.5-.4-1.3-1.4-1.8-2.3-2.3-3.6-2-7.6-2.5-11.7-2.3-6 .3-11.8 1.6-17.5 3.8-9.7 3.8-18.1 9.4-25.5 16.7-5.3 5.2-9.7 11-13 17.7-1.3 2.8-2.5 5.6-3.8 8.4-.5 1.1-.9 2.2-.9 3.5 0 5.4-1.6 10.3-4.2 15-.2.4-.5.9-.7 1.3zm-8.1 25.8c0-5.3-1.8-9.3-5.6-13-1.5-1.5-3.2-2.9-4.9-4.3-2.2-1.8-4.1-3.9-5.6-6.4-1.1-1.8-2.1-3.5-3.3-5.2-2.3-3.5-4.8-6.8-8-9.6-2.8-2.4-6-3.7-9.8-3.5-2.4.1-4.6.9-6.7 1.9-8.8 4.2-14.9 10.9-18.8 19.8-1.9 4.3-1.7 8.5.7 12.6 1 1.7 2.1 3.4 3 5.2.9 1.8 1.8 3.7 2.4 5.7 1.2 3.9.6 7.9-.1 11.8-.6 3-1.1 5.9-1.6 8.9-.3 1.6 0 3.2.8 4.6 1.4 2.7 3.3 3.6 5.8 3.3 1.9-.2 3.4-1.1 4.8-2.3 2.1-2 3.7-4.3 5.2-6.8 1.3-2.2 2.5-4.5 4-6.7 4.8-7 11.4-9.7 19.7-7.8 2.7.6 5.3 1.3 8 2.1 3.4 1 7.7-1.3 8.9-4.3.8-2 1.3-4.1 1.3-5.9zm-1.2-9.8c1.3-.4 2.5-.8 3.7-1 5.5-1 11-.7 16.4.4 1.2.3 2.5.4 3.7.6 2.4.3 4.7.6 7.1 1 5.2.9 10.4 1.4 15.6 1 3.9-.4 7.9-.7 11.9-.8 3.6 0 7.1.4 10.4 1.9 3.5 1.5 7 3.1 10.4 4.6 4.4 1.9 8.8 3.9 13.2 5.7 2.9 1.2 5.9 1.1 8.9.1 1.8-.6 2.7-1.8 2.9-3.6.2-1.5 0-2.9-.6-4.2-1-2-2.1-3.9-3.4-5.7-4.2-5.3-9.4-9.5-15.1-12.9-3.8-2.3-7.6-4.6-11.2-7.2-3.7-2.7-7.8-4.6-12.2-6.1-6.6-2.2-13.4-2.6-20.2-1.6-7.8 1.2-15.2 3.6-22.1 7.5-3.1 1.8-6.3 3.5-9.4 5.4-1.5.9-2.9 2.1-4.4 3.1-.9.7-1.9 1.4-2.9 2-1.4.8-2.9 1.3-4.2 2.2-1.1.7-2.2 1.3-3.5 1.2-.2 0-.4.2-.7.3 2 2.1 3.8 4.1 5.8 6.1zm-34.8-33.4c-.2-.4-.2-.6-.3-.8-2.2-3.2-4.3-6.4-6.7-9.4-5.6-7-12.3-12.7-20.1-17.1-4.8-2.8-10-4.4-15.6-5.2l-13.8-2.1c-2.7-.4-5.4-.8-8-.8-5.1-.1-9.8 1.3-13.9 4.5-2.2 1.7-2.3 2.9-.9 5.3.3.5.5 1 .8 1.7-.6 0-1 .2-1.3.1-1.2-.1-2.3-.3-3.5-.5-1.9-.4-3.7-.3-5.5.2-2.2.6-4.4 1.2-6.6 1.9-2.3.7-4.5 1.6-6.5 3-1.4 1-2.8 2.2-3.6 3.7-.5 1-1 2.1-.3 3.3.3 0 .5.1.8.1.4 0 .9 0 1.3-.1 5.1-1.2 10.1-2.3 15.1-3.5 3-.7 6-1.8 9-2.5 8.6-2 16.2 0 22.6 6.1 1.7 1.6 3.3 3.4 4.8 5.2 2.8 3.4 5.5 6.9 8.2 10.3 1.5 1.9 2.9 3.9 4.4 5.8 2.4 3.1 5.3 5.6 9 7 1.7.6 3.4 1.6 5.4 1.2.3-.5.7-.9 1-1.4 3.3-4.8 7.3-8.8 12.1-12 2.7-1.8 5.6-2.9 8.8-3.5 1-.2 2-.3 3.1-.5zm35.3 34.7c.1.2.2.3.4.4 2.4.9 4.5 2.4 6.4 4 3.3 2.7 6 5.9 8.2 9.4 2.1 3.3 4 6.7 5.9 10.1 2.1 3.8 5 6.6 9.1 8.1 3.5 1.2 6.5 3.3 9.2 5.8 4.4 3.9 7.8 8.6 11.6 13 2.3 2.7 4.6 5.4 7.7 7.3 2.7 1.6 5.5 3.1 8.4 4.4 2.1 1 4.4 1.8 6.8 1.8 2.8 0 4.2-1.7 3.6-4.4-.7-3.6-2.3-6.8-4.1-9.9-1.8-3-4-5.6-6.4-8.1-2.8-2.9-5-6.2-6.7-10-1.3-2.9-2.7-5.7-4.1-8.6-2-4.2-4.4-8.2-7.1-12-1-1.4-2.2-2.2-4-2.5-2.2-.4-4.4-1-6.5-1.8-2.5-1-4.9-2.3-7.3-3.5-6.6-3.5-13.6-5.5-21.1-5.4-2.6 0-5.3.4-7.9.7-.8.1-1.8.2-2.2 1.2zm19.1-23.3c.1 0 .2.2.2.1.2 0 .4 0 .6-.2 4.8-2.5 9.8-4.4 15.1-5.7.5-.1 1-.3 1.4-.6 5.9-4 12.5-6.2 19.3-8 9.3-2.4 18.8-2.1 28.2-1 6.5.8 13 1.7 19.5 2.2 4 .4 8.1.2 12.2.3.5 0 1.2.1 1.7-.4-4.4-.8-8.7-1.4-12.9-2.5-4.6-1.1-9.1-2.5-13.6-4.3-5-2.1-10.3-3.5-15.5-5.2-5.9-1.9-11.9-2.9-18.1-2.7-9.3.3-17.7 3-24.4 9.7-1.9 1.9-3.5 3.9-5.1 6-2.8 3.7-5.6 7.6-8.4 11.4-.1.2-.3.4-.4.6zm43.2 85.1v-.3s0-.2-.1-.2c-.4-.2-.8-.5-1.2-.7-4.1-1.9-7.3-4.9-10.1-8.3-2.4-2.8-4.7-5.7-7.1-8.5-4.3-5.1-9.2-9.3-15.6-11.6-2.4-.9-4.3-2.5-5.8-4.5-1-1.4-1.9-2.9-2.8-4.4-1.9-3.2-3.7-6.4-5.7-9.6-3-4.8-6.9-8.8-11.8-11.8-.4-.2-.8-.5-1.2-.7l-.3.3c.3.7.5 1.5.9 2.2.5.9 1.2 1.7 1.7 2.6 1.1 2.3 2.4 4.5 3.2 6.9 1.7 4.8 3.2 9.6 4.8 14.5 1.6 4.9 4.2 9.2 7.8 12.9 3.7 3.8 7.6 7.3 12.2 10 2.9 1.7 5.9 3.3 9 4.7 5.6 2.4 11.6 3.6 17.4 5.3 1.6.5 3.2.9 4.9 1.3zM268.2 70.3s-.1 0-.2.1c.1.4.3.8.4 1.1 4.7 8.6 10.3 16.6 17.1 23.8 4.4 4.8 9.1 9.3 13.6 14 2.7 2.9 5.3 5.9 7.9 8.9 2.2 2.6 4 5.4 4.7 8.6 1.2.8 2.3 1.5 3.4 2.3 1 .8 1.9 1.6 3 2.5.1-.4.2-.5.2-.6-.7-4.8-1.3-9.7-2.1-14.4-1.1-6.1-3.6-11.5-7.5-16.2-2.9-3.4-6.1-6.4-9.7-9.1-5.2-4-10.9-7.3-16.6-10.6-4.8-2.9-9.5-6-13.4-10-.2-.2-.4-.3-.6-.5zm58.1 66.5c0 .9.1 2 .1 3.1.1 4.5 2.3 7.8 5.9 10.3.9.6 2 1 3 1.2 2.2.5 3.7-1.1 5-2.5 2.2-2.4 3.8-5.4 4.9-8.4 1.8-5.1 1.7-10.4.8-15.7-.2-1.5-.8-3-1.7-4.2-1.1-1.5-2.2-2.9-2.9-4.7-.4-.9-1-1.6-2.1-1.8-2.8-.7-6.1.6-7.6 3-3.8 5.9-5.4 12.5-5.5 19.6zm-61.6-2.3s.2-.2.3-.2c-.1-.2-.2-.4-.4-.6-1.7-2.3-3.3-4.7-5-6.9-2.3-2.9-4.7-5.6-7-8.4-1.9-2.5-4.1-4.7-6.7-6.5-1.9-1.3-4-2.5-6.1-3.3-3.4-1.3-6.9-1.3-10.5-.8-5 .7-9.7 2.6-14.5 3.9-.1 0-.3.2-.5.5 2.2.3 4.2.4 6.2.8 4.5 1 9.1 2 13.6 3.3 2.7.8 5.2 2.3 7.8 3.4 7.6 3.2 14.4 7.6 20.6 13l2.4 1.8zM368.3 160s0 .2-.1.3c.1.1.2.3.3.3 3.3 1.6 6.5 3.2 9.8 4.8 3.4 1.6 6.9 2.8 10.6 2.9 2.5 0 5.1 0 7.6-.1 9.4-.6 18.8-.3 28 2.1h1.1c-.3-.4-.6-.6-.9-.7-3.5-1.6-7-3.3-10.5-4.9-3.1-1.5-6.3-2.7-9.7-3.3-4.4-.8-8.9-.6-13.3 0-7.1.9-14 .6-20.9-1.1-.7-.2-1.3-.3-2-.4zm-33.5 20.4c-2.9-.7-5.3-1.4-7.7-2-.6-.2-1.2-.3-1.8-.5-2.9-.7-5.8-1.1-8.8-.6-4.3.7-7.7 2.9-10.3 6.3-1.2 1.5-2.2 3.2-3.2 4.9-1.6 2.5-3.2 5.1-4.8 7.7-.1.2-.2.4-.2.6 1.3-.6 2.4-1.5 3.5-2.3 6.8-5.1 14.1-9.2 22.5-11.1 2.1-.5 4.3-.9 6.4-1.4 1.5-.4 2.9-.9 4.7-1.5zm7.6-31.9c.4-.1.7-.1.8-.2 1.3-1.1 2.9-2 4-3.3 4.5-5.1 6.6-11.2 7-18 .2-3.3-.2-6.5-1.6-9.6-1.2-2.5-3.2-3.1-5.4-1.5-.4.3-.9.6-1.3.9-1.1.9-1.3 2-.5 3.2 1 1.5 1.6 3.1 1.8 4.9.3 2.3.5 4.5.5 6.8 0 5.2-1 10.2-4.1 14.5-.5.6-.7 1.5-1.1 2.4zm-64.7 8.4h-.3c0 .2-.2.4-.2.6-.5 6.7-.2 13.2 3.5 19.2.8 1.4 1.1 2.8.8 4.4-.4 2.6-.8 5.1-.8 7.7 0 1.9.3 3.8.7 5.6.3 1.4 1.1 2.6 2.3 3.5 0-.2.1-.3 0-.4-1.2-2.7-1-5.5-.5-8.3.6-3.2 1.2-6.3 1.7-9.5.7-4.2 0-8.2-2-12-1.9-3.6-4.3-6.9-5.3-10.9zm71.3-43.1c-1-2.5-4.5-4.1-6.7-3.9-2.1.3-4.2.7-5.6 3 2.4 0 4.5.2 5.6 2.1 2.7 1.1 4.6-.4 6.7-1.3z"/></g><g fill="#fff"><path d="M116.4 319.7v1.9h-.3c-.7-1.9-1.3-4-2-6-.8-2-1.6-4-2.5-6-1-2-2-3.9-3.1-5.9-1.1-1.9-2.2-3.7-3.2-5.6 3.9 4.9 6.8 10.4 9.4 16.4 0-.4.2-.6.2-.7 0-.2 0-.4-.1-.6-1.9-8.2-5.6-15.4-10.4-22.3-4.3-6.1-10-10.7-15.7-15.3-.3-.2-.6-.5-.8-.9.3.1.6.2.8.4 5.6 4 10.9 8.3 15.1 13.7 5.5 7.1 9.6 14.9 11.6 23.7.3 1.4.2 2.8.5 4.2.1 1 .4 1.9.7 2.8zm59.9-58.6c-3.2 3.2-6.5 6.3-9.7 9.6-5.2 5.4-10 11.1-13.7 17.6-3.6 6.4-6.9 13-8.6 20.2-.5 1.9-.7 3.9-1.1 6-.5-1.2-.3-2.4-.1-3.5 1.1-6.7 4-12.8 6.9-18.8 4.7-9.6 11.8-17.3 19.2-24.9 2.2-2.3 4.6-4.4 6.8-6.6l.3.4zM125.1 295v-3.2c.1-2.1.5-4.1.5-6.1.2-7.6.3-15.1.3-22.7 0-5.6-.2-11.2-.3-16.8 0-3.6-.2-7.2 0-10.8.2 5.8.5 11.5.7 17.3.2 7.5.5 15 .5 22.5 0 4.9-.3 9.8-.6 14.7 0 1.7-.4 3.4-.6 5.1h-.5zm-.7 38.8c-.2-.1-.5-.2-.6-.4-6.2-5.6-13.6-9.1-21.4-11.7-6.6-2.2-13.3-3.8-20-5.1-1.4-.3-2.8-.4-4.4-.5 3.3 0 6.4.3 9.4.9 7.5 1.5 14.8 3.4 21.8 6.3 4.7 1.9 9 4.4 12.9 7.6.9.8 2 1.5 2.3 2.9zm46.3-13.9c.5-.5.9-1 1.4-1.3 3.2-2.3 6.7-4.1 10.3-5.5 4.9-1.9 9.9-3.2 15.1-3.9 4.7-.6 9.3-1.2 14-1.2 3.4 0 6.9 0 10.3.2h-2.5c-5.2 0-10.3.5-15.5.9-6.9.6-13.7 1.9-20.2 4.4-4.3 1.6-8.4 3.7-12.1 6.4-.2.1-.3.2-.5.3-.1-.1-.2-.2-.3-.4zM159 252.7c2.4-4.3 5.4-8.1 8.6-11.7 5.7-6.4 11.7-12.4 19-16.9 2.6-1.6 5.4-2.9 8.1-4.3.6-.3 1.4-.3 2.1-.5v.3c-.3.2-.6.3-1 .5-5.6 2.3-10.7 5.6-15.4 9.4-6.2 5-11.6 11-16.7 17.1-1.7 2-3.2 4.1-4.8 6.1zm-104.2-9.1c.5 0 1 0 1.5.2 5.7 1.2 10.8 3.8 15.9 6.5 11.3 6 20.1 14.8 27.2 25.4-.2-.2-.5-.4-.6-.6-3.6-4.7-7.2-9.4-11.7-13.4-8.8-7.9-18.9-13.6-30.3-17l-2.1-.6v-.5zm42.7-13.7c.1 1.1.3 2.2.4 3.4 1.1 12.3 4.6 24 8.5 35.6 1.2 3.4 2.4 6.9 3.6 10.3 0 .1 0 .3-.1.5-.5-1.2-1.1-2.3-1.5-3.5-3.7-9.8-7-19.7-9.2-29.9-.9-4.5-1.6-9-1.7-13.6 0-.9-.1-1.8-.2-2.7h.3zm7.8-39.9c-.3 1-.5 2-.8 3-1.2 3.9-1.6 8-1.7 12 0 2.8.3 5.6.5 8.4.3 3 .7 6 1.2 8.9.6 3.9 1.4 7.8 2.1 11.8-.6-2.3-1.4-4.6-1.8-6.9-.8-4.5-1.6-9-2.2-13.5-.6-4.3-.7-8.7-.4-13.1.3-3.3 1-6.5 2-9.6 0-.3.2-.6.4-.9 0-.1.2-.2.4-.3.1 0 .2 0 .3.1z"/><path d="M104.8 325.1c-2.8-.7-5.5-1.3-8.3-2-5-1.2-10.1-2.1-15.2-2.8-5.2-.7-10.5-1.1-15.8-.9-3.5.2-7 .7-10.5 1.1h-1c.7-.2 1.5-.4 2.2-.6.8-.2 1.6-.3 2.3-.4 4.5-.7 8.9-.8 13.4-.7 4.8.1 9.6.7 14.3 1.5 5.6.9 11 2.2 16.4 3.8.7.2 1.4.5 2.1.7v.2zm40.5.2c2.3-1.1 4.4-1.5 6.5-1.6 3.6-.2 7 1 10.1 2.7 4.9 2.7 8.8 6.6 12 11.2 1.9 2.7 3.6 5.4 4.6 8.6-.2-.4-.5-.8-.7-1.3-2.7-4.6-5.6-9.1-9.5-12.9-2.8-2.6-5.9-4.8-9.5-6.3-3.7-1.5-7.4-1.7-11.2-.7-.6.1-1.1.3-1.7.4 0 0-.2 0-.7-.1zm-6-130.6c1.3 1.7 1.6 3.6 1.9 5.6.7 5.3.5 10.7.3 16-.1 3.3-.5 6.6-.9 9.9-.4 3.3-.9 6.7-1.3 10 0 .6-.2 1.2-.5 1.8.1-1 .2-2.1.3-3.1.5-4.9 1.2-9.9 1.5-14.8.3-4.9.4-9.7.3-14.6 0-3.3-.4-6.6-1.4-9.8-.1-.3 0-.7-.1-1.1zm21 161.9c-1.7-3.4-3.3-6.7-5.1-9.8-1.7-2.9-3.5-5.6-5.4-8.4-.9-1.3-2.1-2.4-3.2-3.5-2.2-2-4.7-3.6-8-3.6.8-.6 2-.7 3.1-.4 1.8.5 3.4 1.5 4.8 2.7 2.1 1.8 4 3.8 5.5 6.1 3.3 5 6.2 10.3 8.1 16.1 0 .2 0 .4.2.7zm-41.4-64c-5.5-12.5-10-25.4-11.9-39.2 1.8 6.8 3.3 13.4 5.3 19.9 2 6.5 4.4 12.9 6.6 19.3zM18.2 253.8c1-.1 1.9-.3 2.9-.4 4-.2 7.9.2 11.8.9 5.3 1 10.5 2.2 15.6 3.9.8.3 1.7.6 2.4 1.1-3.6-.9-7.2-1.9-10.8-2.7-3.6-.8-7.2-1.5-10.9-1.9-3.7-.4-7.4-.4-11.1-.5v-.4zm207.7 42h-1c-6.1-.1-12 .9-17.8 2.4-5.9 1.5-11.7 3.1-17.4 4.6.4-.2.8-.4 1.3-.6 7.2-2.7 14.7-4.6 22.2-6.1 3.6-.7 7.3-1.1 11-.9h1.3s.2.1.4.4zM31.5 271.9c-4.8.4-9.5.7-14.2.2-2-.2-4.1-.2-6.2-.4-3.1-.3-6.1-.8-8.9-2.2-.5-.2-.9-.6-1.3-.9 0-.1.1-.3.2-.4.4 0 .8.2 1.1.3 3 1.3 6.1 2 9.3 2.2 3.4.3 6.8.5 10.3.6 3.2.2 6.3.3 9.6.4zM168 290c8.7-6.8 17.3-13.6 26-20.5-7.9 7.8-16.6 14.5-26 20.5zm-87.9 43.4c2.1-.4 4.2-1 6.3-1.2 3.3-.3 6.7-.4 10-.3 4.8.2 9.7.8 14.5 1.2.5 0 1 .2 1.5.5-1.6-.1-3.2-.3-4.8-.3-3.9-.2-7.8-.5-11.7-.6-4.9-.1-9.7 0-14.5 1.2-.4.1-.9 0-1.3 0v-.6zm40.7-89.7c-.4-15.6-.7-31.1-3.2-46.6.3 1.4.8 2.7.9 4.1.5 4.1 1 8.2 1.3 12.3.4 5.1.7 10.1.9 15.2.1 5 0 10 0 15zm106.2-6.6c-.3.5-.5 1.1-.9 1.5-1.1 1.2-2.2 2.4-3.5 3.4-5.7 4.4-11.5 8.8-17.3 13.2-.1 0-.3.1-.7.3 7.2-6.7 15.5-11.7 22.1-18.7.1 0 .2.2.3.3zm-10.1 84.4c-1.4 1.6-3.3 2.2-5.1 2.6-3.5.8-7 1.1-10.5 1.4-4.2.3-8.4.6-12.7.5-.5 0-1.1 0-1.6-.2 1 0 1.9-.2 2.9-.3 3.8-.2 7.6-.4 11.4-.7 3.9-.4 7.9-.8 11.7-1.9 1.3-.4 2.6-.9 4-1.4zM86.2 308.3c-6.1-1.3-12.1-3-18.3-3.2-6.2-.2-12.3.3-18.4 1.6.3-.2.6-.4 1-.5 2.5-.5 5.1-1 7.6-1.3 2.4-.3 4.8-.3 7.3-.4 5.5-.2 10.8 1 16 2.4 1.6.4 3.2.9 4.8 1.4zm46.7 27c0 .2 0 .4-.1.6-1.9 3.4-1.9 7-1.2 10.6.9 4.8 2.1 9.6 4 14.1-1.8-2.9-2.9-6-3.7-9.2-.4-1.5-.7-3-1-4.5-.2-1.1-.5-2.2-.7-3.3-.5-2.8.5-5.3 1.7-7.7.2-.3.5-.6.8-.8.1 0 .2.2.3.2zm1.2-69.8c.2 4.2 0 8.4-.5 12.5-.4 3-.6 6.1-1 9.1-.2 1.6-.7 3.2-1.1 4.8-.1.5-.6.9-1.1 1.2-.3-1.4.8-2.3.8-3.6 0-1.4.5-2.7.8-4l.6-3.9c.2-1.4.3-2.7.4-4.1l.3-3.9c.1-1.4.2-2.7.4-4.1.1-1.3.3-2.6.4-3.9zm53.3-23.7c.3-.3.4-.5.6-.7 7.2-6.1 14.5-12.2 22.7-16.9 3.8-2.2 7.8-4.2 12-5.6h.6c-6.7 2.6-13 5.9-18.9 10.1-5.7 4.2-11.3 8.6-17.1 13zm-12.1 135.7c-.1-.3-.4-.6-.4-.8V374c.3-5-.8-9.8-1.8-14.7-.4-1.8-.8-3.6-1.2-5.7 2.4 4.9 4.7 16.6 3.3 23.9zM147 358c4 10 10.1 18.7 16.2 27.4-3.8-2.6-15.3-21.8-16.2-27.4zm-4.9-50.9c0-.4-.1-.8 0-1.1.6-4.7 1.9-9.2 3.7-13.5 1.6-3.9 3.5-7.7 5.7-11.3.3-.5.6-.9 1-1.3-4.7 8.6-8.8 17.4-10.1 27.3h-.3zM20.8 321.6c2-2.8 16.3-8.2 20.5-8.1l-10.5 3.6c-3.5 1.2-6.7 2.8-10 4.4zm112.9-1.2c-.1-2.6-.2-5.3-.4-7.9-.3-2.8-.7-5.5-1.3-8.3-.3-1.3-1.1-2.4-1.6-3.7.7-.1 1 .5 1.3.9 1.2 1.7 1.7 3.6 1.9 5.6.3 2.3.5 4.7.6 7.1 0 2.1-.2 4.2-.2 6.3h-.1zm59.1-6.9c-7.2 2.4-14.2 4.4-20.6 8.2.1-.3.2-.7.4-.8.8-.6 1.6-1.2 2.5-1.6 5.4-2.6 11-4.5 16.9-5.8h.8zm-86-123.7c-.4 3.7-.9 7.4-1.2 11.1-.3 3.7-.3 7.4-.5 10.2-.9-7.1 0-19.1 1.7-21.3zm9.7 129.9c0-3.4.1-6.7 1.3-10 .9-2.7 2.2-5.1 3.8-7.5l.6-.6c-1.6 3.1-3.4 6.2-4.3 9.6-.8 3.5-1.2 6.9-.3 10.5h-.3c-.3-.7-.6-1.5-.9-2.2zm-70.7-65c-5.8-1-11.4-2.8-17.5-2.1.3-.9.9-.9 1.4-.9 2.2 0 4.5 0 6.6.4 2.9.5 5.7 1.4 8.6 2.2.3 0 .6.2.9.4z"/><path d="M155.2 339c-2-1.9-4-3.8-6-5.6-2.2-2-4.7-3.4-7.8-3.4-.2 0-.4-.1-.7-.2 1.3-.8 2.5-.3 3.6 0s2.2.8 3.1 1.5c2.6 1.7 5.9 5 7.8 7.7zM19.1 325.1c1.2-1.8 8.3-5.2 13.1-6.1-1.5.6-2.9 1.3-4.4 1.9-1.5.7-3 1.4-4.4 2-1.4.6-2.7 1.6-4.2 2.1zM216 250.5c3.8-3.6 7.3-6.9 10.8-10.2 0 .2 0 .5-.1.7-.4.6-.9 1.4-1.5 1.9l-8.4 7.2c-.1.1-.3.2-.8.5zm-5.4 76c-2.1 1.4-8.1 2-14.2 1.7 4.2-.5 9.1-1.1 14.2-1.7zM178 370.8c-.1-1.3-.2-2.5-.3-3.8-.2-1.2-.5-2.5-.8-3.7-.3-1.3-.6-2.5-.8-3.8 1.6 3.6 2.9 7.2 2.6 11.2-.2 0-.4 0-.6.1zm68.8-58.7c-4.1-1-8.1-2-12-3 2.7-.1 10.9 1.6 12 2.6v.4zm-114.2-19.2c.8-3.7 1.6-7.5 2.4-11.1.2 3.3-1 9.7-2.4 11.1zm-.4 6.8c1.7 1.3 3.6 6.8 3.5 10.7-.5-1.9-.9-3.7-1.5-5.5-.6-1.8-1.4-3.5-2-5.2zm72.9-69.1c3.9-2.9 8-5.6 12.5-7.5-4.2 2.5-8.3 5-12.5 7.5zm-52.4 135.8c1.9 3.2 3.7 6.4 5.6 9.5-.1 0-.2.1-.3.2-2-3.1-3.9-6.3-5.3-9.7zm-23.6-68c0-1.4.1-2.8.2-4.2.8 1.7.7 3.4-.2 4.2zm91.2 214.2c-1.2-3.9-2.2-7.8-3.6-11.7-5.6-15.8-14.2-29.9-25.4-42.3-4.1-4.6-8.4-9-12.7-13.4-3.6-3.7-7.5-7.3-11.1-11.1-4.9-5.2-9.8-10.6-14.4-16.1-5.1-6-9.2-12.7-12-20.1-2.5-6.5-4.8-13.1-6.2-19.9-.1-.5-.3-1-.4-1.6-.7-.4-1.4-.7-2.2-1.2v1.2c1.7 8 4.4 15.8 7.4 23.4 4 10.2 10.5 18.7 17.8 26.8 1 1.1 2 2.2 3 3.2 5.3 5.6 10.7 11.2 16 16.7 3.6 3.7 7.3 7.3 10.9 11.1 13.9 14.8 24 31.9 29.6 51.5.3 1.1.7 2.2 1 3.3h-1c-1.7-5.2-3.2-10.5-5.2-15.6-4.9-12.4-11.9-23.6-20.6-33.7-4-4.7-8.4-9.1-12.7-13.6-5.1-5.2-10.4-10.2-15.4-15.6-6.3-6.7-12.7-13.3-17.6-21.2-1.6-2.6-3.4-5.2-4.6-8-3.2-7.4-6.3-14.8-8.1-22.7-1-4.3-1.8-8.6-2.7-12.9 0-.5 0-.9-.1-1.7 1.2 1.3 2.5 1.4 3.9 1.5.2.8.4 1.6.5 2.3 1.3 7.2 3.4 14.2 5.6 21.1 3.6 11.4 10.1 21.1 17.9 30l3 3.3c5.2 5.5 10.4 11 15.7 16.4 4 4.1 8.1 8.2 12.1 12.3 15.2 15.9 25.9 34.4 31.8 55.7.2.8.4 1.5.7 2.3h-1z"/><path d="M121.6 342c-.8-.5-1.5-1-2.3-1.4-4.4-2-9-3-13.8-3.5-6.4-.6-12.6.7-18.8 2.3-4.1 1.1-8.2 1.7-12.4 1.1-2.6-.4-5.2-1-7.7-1.7-5.1-1.4-10.2-2.9-15.4-3.7-4.2-.7-8.4-.9-12.6-.9-3.3 0-6.7.2-10 0-2.1-.1-4.2-.8-6.3-1.2-.5-.1-1-.4-1.4-.6-2.9-1.6-3.6-3.3-2.9-6.8.4-1.9 1.4-3.4 2.7-4.8 2.5-2.8 5.5-5 8.7-6.9 4.8-2.8 9.8-5.1 15.2-6.6 2.8-.8 5.5-1.8 8.2-2.9 6.9-2.9 14-4.3 21.5-4 3.9.2 7.7.7 11.3 2.1 1.5.6 3.2 1.1 4.9 1.4-.4-.4-.9-.8-1.3-1.2-9.3-7.5-19.7-12.7-31.5-14.8-2.9-.5-5.9-1.2-8.8-1.7-2.4-.4-4.9-.6-7.4-.8-9-1-18.1-1.9-26.8-4.8-3.2-1.1-6.2-2.5-8.9-4.4-1.8-1.3-3.3-2.8-4.4-4.7-1.5-2.5-1.6-5-.3-7.6 1.8-3.6 4.5-6.2 8.2-7.8 4.9-2.1 10-3.5 15.3-4 4.1-.4 7.9-1.9 11.5-3.8 3.3-1.7 6.8-2.6 10.5-2.8 1.5 0 3.1.5 4.6 1 1.1.4 2.1 1 3.3 1.4-.4-.4-.8-.9-1.2-1.3-1-1.3-.8-2.5.6-3.3 1.6-.9 3.5-1.3 5.3-1.4 4.8-.4 9.3.7 13.8 2.4 8.5 3.3 15.7 8.4 22.2 14.8.6.6 1.2 1.2 2 1.6-.2-.4-.3-.8-.5-1.2-3.3-6.3-5.2-13-6.3-20-.8-5.1-1.3-10.2-1.2-15.3.2-9.4 2.6-18.2 7.9-26 2.3-3.4 5-6.4 8.5-8.7 3.3-2.2 6.4-4.7 9.3-7.4 1.6-1.4 3.3-2.6 5.4-3.3 3.2-.9 6.2-.3 9 1.2 3.1 1.8 5.8 4 7.9 7 2.6 4 10.4 20.4 11.8 25.1 1 3.5 1.5 7 1.8 10.6.2 2.8.4 5.7.5 8.5.2 3.7-.1 7.3-.7 10.9 0 .4-.1.7-.2 1.1 0 .1 0 .3.5.7 0-.3.1-.5.3-.8 2.2-3 5-5.5 8-7.7 4.1-2.9 8.2-5.7 12.4-8.5 5.3-3.5 11.2-5.5 17.5-6.7 7-1.3 14-3 21-4.6 4.1-.9 8.2-1.7 12.4-1.4 1.3 0 2.5.3 3.7.6 3.1.7 5.5 3 5.8 7.4.2 3.2-.4 6.3-1.8 9.2-.7 1.5-1.5 2.9-2.2 4.4-.4.8-.7 1.6-1.1 2.3 1.5 3.4 1.1 6.8.5 10.1-1.6 8.4-5.8 15.6-11.2 22.1-4.7 5.6-10 10.5-15.4 15.3-7.7 6.9-16.6 11.9-25.1 17.4-3.6 2.3-7.2 4.7-10.6 7.2-1.7 1.3-3.2 2.9-4.7 4.4-.4.4-.6.9-1 1.5 1.7.3 2.9 0 4.1-1 5.2-4.8 10.6-9.4 16.8-13 6.3-3.6 12.9-6.3 20-7.8 3.9-.8 7.8-1 11.8-.6 4.6.5 9.2.7 13.8 1.1 4.6.4 9.3.7 13.7 2.5 3.2 1.3 5.9 3.2 8.3 5.8.7.8 1.3 1.8 1.8 2.8.6 1.3.4 2.6-.5 3.7-.3.4-.6.7-1 1.2 1.5.2 2.9.2 4.2.5 1.3.2 2.6.5 3.8 1.1 2.7 1.4 5.3 2.9 7.9 4.4 2.3 1.4 4.2 3.2 5.8 5.4 1.3 1.8 2 3.7 1.7 6 0 .6-.4 1.2-.5 1.6-1.4.6-2.5 0-3.6-.3-3-1.1-5.9-2.3-9-3-2.7-.7-5.6-.9-8.4-1.2-1.8-.2-3.6-.3-5.4-.3-12.7.1-24.9 2.6-36.4 8.1-3.6 1.7-7.2 3.4-10.8 4.9-3.9 1.6-7.9 2.7-12.4 2.2 0 .5.1 1 .2 1.4 2.1 9.4.7 18.3-3.8 26.7-.8 1.5-1.9 2.8-3.1 4-1.5 1.5-2 3.2-2.1 5.3-.1 3.5-.5 7.1-1.9 10.4-1.5 3.4-4 5.7-7.7 6.4-2.1.4-4.2 0-6-1-1.5-.9-2.9-1.9-4.2-3.1-1.5-1.5-2.8-3.2-4.2-4.7-2.9-3.1-5.6-6.4-8.8-9.1-2.8-2.4-5.8-4.6-9.3-6.1-2.7-1.1-5.3-2.5-7.8-3.8-1.3-.7-2.5-1.5-3.7-2.4-3.2-2.4-4.6-5.8-4.8-9.8-.2-4 1.1-7.6 3.2-10.9.3-.4.6-.9 1-1.5zm19.8-14.2c.5-.4.8-.6 1.1-.9 1.3-1.1 2.4-2.4 3.8-3.4 1.7-1.3 2.9-3 3.6-4.9 1-2.5 1.9-5 2.9-7.6 1.6-4.3 3.5-8.5 6.1-12.3 4-5.8 9.9-9.4 15.8-13 1.3-.8 2.8-1.3 4.2-1.9 6.3-2.7 12.8-4.6 19.3-6.6 6-1.9 11.8-4.3 16.9-8.1.8-.6 1.5-1.2 2.1-1.9 5-6.6 8.5-13.8 9.4-22 .2-1.6.2-3.4-.3-4.8-.6-1.7-.4-3 .4-4.5 1-1.9 1.9-3.8 2.8-5.7 1-2.3 1.6-4.8 1.4-7.4-.4-3.8-1.7-6.1-5.5-7-1.1-.3-2.3-.4-3.4-.5-3.5-.2-6.9.4-10.4 1.1-7.9 1.8-15.9 3.6-23.8 5.2-4.6 1-9.1 2.3-13.2 4.7-5.5 3.2-10.7 6.7-15.8 10.6-4.6 3.5-8.2 7.9-10.9 13.1-3.1 5.9-5.3 12.1-7.3 18.4-1.4 4.5-2.5 9.1-3.1 13.7-.5 4.1-.8 8.3-1.1 12.3.7 1.3 1.4 2.6 2.1 3.8.2.3.3.5.6.7 1.8 1.7 2.8 3.8 3.4 6.1 1.4 5.3 1.3 10.7.4 16-.4 2.2-1 4.3-1.6 6.6zm-5.8-34.1c.2-2.6.4-5 .7-7.4.2-2.4.3-4.8.8-7.1 1.8-9.6 4.6-18.8 8.9-27.5 3-6 4.2-12.4 4.2-19 0-3.4-.3-6.9-.5-10.3-.3-4.8-1.3-9.4-3.3-13.8-2.7-6.1-5.7-12.1-8.6-18.1-1.7-3.5-4.3-6.2-7.4-8.5-.9-.7-2-1.3-3-1.7-3.7-1.6-7.2-1.3-10.4 1.2-.8.6-1.5 1.3-2.3 1.9-2.5 2-5 4.1-7.6 6-2.3 1.7-4.5 3.3-6.4 5.5-6.4 7.6-9.9 16.4-10.5 26.3-.4 6.5 0 13 1.2 19.4 1.2 6.1 2.8 12.1 5.7 17.7 1.8 3.5 3.8 6.9 6.1 10.2 6.1 8.4 10.3 17.5 12.1 27.8.3 2 .8 4 1.2 6.1.9-1.6 1.7-3.1 2.7-4.5 1-1.4 2.4-2.4 4.2-2.6 1.3-2 3.3-2.8 5.6-3.3s4.3.7 6.6 1.5zm-18.9 30l.2-.2c0-.3-.2-.6-.3-.9-1.5-5.1-2.1-10.2-1-15.5.4-1.8.4-3.4-.2-5.1-.2-.7-.4-1.4-.5-2.2-.8-4.9-2-9.7-3.7-14.4-3.4-9-8.6-16.8-15.2-23.8-7-7.5-15.1-13.4-24.9-16.9-4.3-1.5-8.6-2.6-13.2-1.7-1.6.3-3.2.5-4.5 2 .5.6.9 1.1 1.3 1.6.9 1 1.9 2 2.7 3.1.3.3.3.9.5 1.3l-.3.3c-.5-.2-1.1-.4-1.6-.7-1.7-1-3.3-2-5.1-3-1.7-.9-3.4-1.4-5.3-1.1-3.3.4-6.5 1.1-9.4 2.7-3.9 2.1-8.1 3.4-12.5 3.9-4.9.5-9.6 1.9-14.2 3.8-3.5 1.4-6 3.9-7.7 7.2-1.2 2.3-1.1 4.6.3 6.8 1.3 2.1 3.1 3.8 5.2 5.1 1.5.9 3.1 1.8 4.9 2.1 4.5.6 9 1.1 13.6 1 4.4 0 8.9-.2 13.3-.4 2.8-.2 5.7-.6 8.5-.9 2.9-.3 5.9-.5 8.8-.7 5.7-.5 11.3-.5 16.9.5 8.1 1.4 15.3 4.5 21.2 10.5 3.6 3.7 6.6 7.7 8.4 12.5 1.2 3.2 2.5 6.3 3.7 9.4 1.9 5.1 5.2 9.1 9 12.9.3.3.6.5.8.7zm68.1 25.6v-2.5c-.6-4.9-1.9-9.5-4.3-13.8-3.1-5.6-7.2-10.5-12.9-13.7-4-2.2-8.1-2.5-12.2-.6-2.3 1.1-4.6 2.5-6.6 4.1-3.4 2.8-6.4 6-9.7 8.9-1.4 1.3-3 2.4-4.6 3.4-2.4 1.4-5 2.4-7.3 3.8-5.3 3.1-8.2 7.9-8.6 14-.3 4.3 1 7.9 4.6 10.6 1 .8 2.1 1.5 3.2 2.1 2.4 1.3 4.9 2.6 7.4 3.6 4.2 1.8 7.8 4.5 11.1 7.5 3.2 2.8 5.8 6.2 8.6 9.3 1.3 1.4 2.4 2.9 3.8 4.1 1.3 1.1 2.8 2.1 4.3 2.9 2.1 1 4.3.9 6.4 0 2.2-1 3.7-2.7 4.7-4.9 1.2-2.8 1.7-5.8 1.8-8.8.1-3.1.7-5.9 3.2-8.1 1.3-1.2 2.3-2.9 3.1-4.6 2.7-5.3 3.8-11.1 3.8-17zm-60.2-16.4c-2.1-.9-3.5-2.5-4.8-4.2-1.2-1.5-2.4-3-3.7-4.3-1.7-1.7-3.5-3.3-5.2-4.9-7.4-7.2-15.7-12.8-25.6-15.9-3-.9-6-1.8-9.1-2-8-.5-15.7.7-23.1 3.9-2.6 1.1-5.2 2-7.9 2.8-5.6 1.6-10.8 4-15.7 7-1.7 1-3.4 2.2-4.9 3.5-1.5 1.3-2.8 2.7-4 4.2-1 1.1-1.4 2.6-1.6 4.1-.1 1.6.4 3 1.8 3.8 1.1.6 2.3 1.1 3.5 1.6 3.3 1.1 6.6.5 9.9-.1 5.6-1.1 11.3-2.3 16.9-3.5 4.4-.9 8.8-1.2 13.2-.2 3.2.8 6.4 1.6 9.4 2.7 6.5 2.4 13.1 3.6 20 3.7.7 0 1.5.1 2.2.2 2.9.3 5.7.9 8.7.8 1.4 0 2.9.2 4.3.4 4.8.8 9.6 1.9 13.6 4.8 2.3-1.6 4.6-3.2 7.1-5-2.3-.1-3.8-1.3-4.7-3.2zm121.3-21c.3-.6.4-1 .6-1.3.3-.4.8-.7 1.1-1.1 1.2-1.3 1.3-2.3.4-3.7-.5-.9-1.2-1.7-2-2.5-2.9-3-6.5-4.9-10.5-5.9-4.5-1.2-9.1-1.2-13.7-1.6-3-.3-6-.5-9-.8-3.9-.4-7.8-.5-11.7.3-7.4 1.4-14.3 4.3-20.9 8.1-5.9 3.4-11 7.9-16 12.4-.2.2-.3.4-.5.7.6.2 1.1.4 1.6.6 2.8 1 5.3 2.4 7.5 4.4 3.8 3.5 6.9 7.6 9.1 12.3.8 1.8 1.6 3.7 2.4 5.5.6.1 1.1.2 1.6.3h.6c4.5-.3 8.8-1.5 12.4-4.4 2.5-2 5-4.1 7.4-6.2 5.1-4.4 10.4-8.5 16.4-11.7 6.7-3.6 13.7-3.9 20.6-1 3.1 1.3 6.1 3 9 4.7 4.9 2.8 9.9 5.3 15 7.5.7.3 1.5.5 2.4.8.2-.8.4-1.4.4-2 .1-1.7-.7-3.1-1.6-4.4-1.5-2.2-3.4-3.9-5.7-5.2-2.5-1.5-5.1-2.9-7.7-4.4-1.4-.7-2.9-1-4.4-1.1-1.5 0-3-.2-5-.4zM15.2 279.5c.2.1.3.2.4.3.5.2 1.1.4 1.6.6 7.4 2.2 15 3 22.6 3.8 3.2.3 6.4.6 9.6 1.1 4 .6 7.9 1.4 11.9 2.3 10.1 2.6 19.2 7.2 27.3 13.6 1.3 1 2.5 2.3 3.7 3.4.7.6 1.3 1.2 2.1 1.6 4.6 2.3 8.8 5.2 12.7 8.6.3.2.5.4 1 .7 0-.4 0-.5-.2-.7-1.9-4.5-4-8.9-5.7-13.4-2.4-6.4-6.6-11.4-11.8-15.6-2.2-1.8-4.8-3.1-7.4-4.3-5.9-2.8-12.2-3.6-18.7-3.8-2.3 0-4.5 0-6.8.3-4.2.3-8.4.7-12.6 1-5.1.4-10.1.8-15.2 1.1-2 .1-4 0-6-.2-2.9-.1-5.8-.3-8.7-.5zm198.4-8v-.2c-1.3.7-2.4 1.3-3.5 2-4.9 2.7-10.2 4.4-15.5 6.1-7.5 2.4-15.1 4.6-21.9 8.9-4.5 2.8-8.8 5.8-12.2 10-2.8 3.6-4.7 7.6-6.4 11.8-1.1 2.9-2.2 5.7-3.3 8.6-.1.4-.3.7-.4 1.2 2.5-1.2 5-2.3 7.2-3.3 1.2-1.5 2.3-3.1 3.6-4.4 1.3-1.4 2.8-2.6 4.3-3.7 3-2.1 6.1-4.2 9.2-6.2 8.5-5.5 17.3-10.4 24.8-17.2 4.6-4.1 9.2-8.3 13.3-12.9.2-.2.4-.5.6-.7zm-91.7 48.1c.2 1.6.3 3.3.6 4.9.7 3.2 1.6 6.2 3.5 8.9 1 1.5 2.6 2.1 4.1 1.7 4.8-1 8.5-3.4 10.2-8.3 2.1-6.4 2.9-12.9 1.6-19.5-.4-1.9-1.1-3.8-1.9-5.5-1-2-2.8-3.2-5.1-3.5-1.4-.2-2.5.2-3.5 1.4-.8.9-1.6 1.8-2.6 2.5-1.9 1.4-3.2 3.1-4 5.2-1.5 3.9-2.7 7.9-2.8 12.2zm134.8 5.3c-.2-.2-.5-.4-.8-.5-2.2-1.3-4.4-2.6-6.6-3.8-2.4-1.3-4.8-2.6-7.4-3.6-6-2.3-12.1-2.1-17.8 1-3 1.6-5.9 3.5-8.8 5.4-4.9 3.3-9.2 7.4-13.7 11.3v.4c17.2-9.4 35.4-12.7 55-10.2zM95.5 336.4v-.5h-3.8c-5.1-.1-10.1-.8-15-2.4-2.9-.9-5.7-2-8.6-2.9-5-1.5-10-2.1-15.2-1.1-3.5.7-6.9 1.4-10.4 2.1-2 .4-3.9.8-5.9 1.2.9.3 1.7.3 2.6.3 5.3 0 10.5.4 15.6 1.6 4.7 1.1 9.3 2.3 13.9 3.6 4.9 1.4 9.8 1.9 14.9.8 3.3-.7 6.7-1.6 10-2.4.6-.1 1.3-.2 1.9-.4zm32-34.8c.3-.9 0-1.6-.5-2.1-.3-.3-.6-.7-.9-1.1-1.8-2.1-3.6-2.1-5.5-.2-1.4 1.4-2.1 3.1-2.8 4.9-1.9 5.4-2.1 11-.9 16.6.9 3.9 2.4 7.4 5.2 10.3.3.3.6.5.9.7 0-.6-.1-1.1-.3-1.6-1.8-4.9-2.4-10-1.1-15.1 1.1-4.6 2-9.3 5.9-12.4zm-3-5.9c.6.4 1.2.7 1.6 1.1 1.2 1.4 2.8 1.8 4.7 1.7 1.6-1.9 3.8-1.4 5.9-1.1-1.3-3.9-8.3-6.1-12.2-1.8z"/></g><g fill="#fff"><path d="M312.6 274.9c.6.6 1.1 1 1.4 1.5 1.2 1.9 2.5 3.7 3.4 5.7 3.1 6.4 5.3 13.1 7.2 19.9 2.3 8.4 4.4 16.8 6.6 25.2.5 1.9.8 3.8 1.1 5.7-1.9-7-3.7-14-5.6-21-2.5-9-5-17.9-8.6-26.5-1.4-3.4-3-6.7-5.4-9.5-.1-.1-.2-.3-.2-.4 0 0 0-.2.1-.7zm104.6 93c14-11.9 26-25.3 38.1-38.7-1.3 1.7-2.6 3.4-4 5-6.9 8.2-14.2 16.2-21.8 23.7-3 3-6.2 5.8-9.4 8.8-.7.7-1.5 1.3-2.9 1.2zM326 403.7c-.7.2-1.3.5-2 .7-2 .4-3.9.7-5.9.9-4.5.4-9.1.4-13.6 0-5.5-.5-10.9-1.7-16.2-3.3-4.2-1.3-8.4-2.8-12.6-4.3-.5-.2-1-.4-1.4-.8.3 0 .6.2.9.3 7.6 2.8 15.4 5.1 23.4 6.5 2.4.4 4.8.6 7.2.8 3.3.3 6.5.4 9.8 0 3-.4 6.1-.8 9.1-1.1.4 0 .7 0 1.1-.1 0 .2 0 .3.1.5zm-21-99.1c1.2 4 2.3 8.1 3.6 12.1 1.3 4 2.7 8 4.3 11.9 1.6 3.9 3.4 7.7 5.3 11.5s4.1 7.4 6.2 11.1c2.1 3.6 4.6 6.9 6.7 10.6-2.3-2.2-4.1-4.9-5.8-7.6-9.7-15.3-16.5-31.8-20.3-49.6zm109.2 5.2c-2.7 8.3-6.5 16-10.4 23.6-3.5 6.7-7.5 13.1-12.2 19.1-1.5 1.9-3.2 3.7-4.8 5.5-.4.4-.8.8-1.4 1.3-.2-.9.4-1.2.7-1.6 4.7-5 8.7-10.5 12.3-16.3 6-9.8 11-20.1 15.4-30.7.1-.3.3-.6.4-.9zm-78.4 155c1.5-2 3.1-3.9 4.6-6 2.6-3.5 5-7.1 7.7-10.5 3.2-4 5.8-8.4 8.1-13 1.5-3.1 2.8-6.4 4.1-9.6.1-.3.3-.7.7-1 0 .5 0 .9-.1 1.3-1.2 3.2-2.4 6.4-3.8 9.5-1.9 4.2-4.3 8.2-7.1 12-4 5.3-8.3 10.6-12.4 15.8-.4.6-1 1-1.5 1.6l-.2-.2zm-41.6-133.6c2.4 4.7 4.7 9.3 7.1 14 3.4 6.5 7.5 12.6 12.6 18 2.5 2.7 5.1 5.2 8.1 7.3.3.2.5.5.7.7l-.2.3c-.6-.3-1.3-.6-1.8-1-3.8-2.8-7-6.2-10-9.9-5.4-6.5-9.4-13.9-13-21.5-1.3-2.6-2.4-5.3-3.6-7.9h.2zM224 388.8c.9.2 1.6.9 2.3 1.5 4.4 3.6 9.3 6.5 14.6 8.6 4.7 1.8 9.5 3.6 14.3 5.3 2.9 1 5.9 1.8 8.8 2.9-2.1-.5-4.2-.9-6.3-1.5-6.3-1.9-12.6-4-18.6-6.6-5.3-2.2-10.1-5.2-14.4-8.9l-.9-.9s.2-.2.2-.3zm174.3 41.3c.2.3.4.7.6 1 3.3 7.6 8.2 14.2 13.7 20.3 3.5 3.9 7.1 7.7 10.8 11.6-.2-.1-.4-.1-.5-.2-7.4-6.7-14.3-13.9-19.9-22.2-1.8-2.7-3.2-5.7-4.7-8.6-.3-.5-.4-1.2-.5-1.7h.4zm17.1-16c.5 0 1.1 0 1.6.1 5.4 1.1 10.7 2.9 15.9 4.8 6.8 2.5 13.5 5.1 20 8.3.6.3 1.3.7 1.9 1.1-6.5-2.6-13-5.2-19.5-7.6-6.5-2.5-13.1-4.6-19.9-6.2v-.5zm10.4-57.9c-.4.5-.9 1-1.3 1.5-5.6 6-11.7 11.4-17.8 16.9-2.5 2.2-5.1 4.4-7.9 6.1-.8.5-1.7 1-2.7 1.1 0-.1-.1-.2-.2-.3l.9-.6c2.3-1.6 4.8-2.9 6.9-4.7 5-4.3 9.8-8.8 14.7-13.2 2.2-2 4.3-4.1 6.4-6.1.3-.3.6-.5.9-.8l.2.2zm-62.3 105.4c2.3-6.1 4.4-12.2 6.3-18.4 1.7-5.9 2.4-12 2.1-18.2 0-1.1-.4-2.1-.6-3.3 1 .3 1.1 1.1 1.1 1.6.2 2.8.5 5.7.3 8.5-.9 10-4.3 19.3-8.4 28.4-.2.4-.4.8-.6 1.1 0 0-.1.2-.2.2zm10.4-111.3c3.3-6.6 6.1-13.1 8.2-19.8 2.1-6.7 4-13.4 5.8-19.6.1 1.4-2.2 10.6-5.2 19.9-3.1 9.6-6.9 18.3-8.8 19.5zm10.4-92.2c.2 1.1.4 2.2.5 3.3.1 3.9 0 7.7-.5 11.5-.5 3.6-.8 7.3-1.4 11-.4 3-1.1 6.1-1.8 9.1.2-2 .5-4.1.7-6.1.3-2.4.6-4.8.8-7.2.3-2.6.6-5.2.8-7.9.3-4.1.8-8.2.2-12.3v-1.3h.6zM364.6 327c.1-1.1.2-2.2.4-3.2.7-5.2 1.5-10.4 2.1-15.7.6-5.2 1-10.4 1.3-15.6.3-5.2.4-10.3.5-15.7.1 1.1.3 2 .3 2.9 0 5.2 0 10.5-.4 15.7-.3 4.6-.9 9.1-1.5 13.7-.5 4.1-1.1 8.3-1.7 12.4-.3 1.9-.6 3.7-1 5.6h-.2zm78.1-1.9c6.4-8.8 13.2-17.3 17-27.8.6.7.5 1.3.3 1.8-.7 1.7-1.3 3.5-2.2 5.1-4 7.1-8.6 13.8-14 19.9-.3.4-.7.7-1.1 1zm-47.6-.6c4.6-12.4 9.7-24.3 11.1-37.4 0 .3.3.6.2.9-.3 2.7-.4 5.4-1.1 8-2.3 9.7-5.7 19-9.9 28 0 0-.1.2-.4.6zm-27.7 145.1c-.1.3-.2.6-.3.8-3.2 6.7-7 12.9-12 18.4-1.4 1.6-3.1 2.9-4.7 4.2-.5.4-1.1 1-2.2.6.7-.5 1.2-.9 1.8-1.3 3.9-3.1 7.1-6.8 9.8-10.9 2.4-3.6 4.6-7.3 6.9-11l.6-.9h.2zm-28.8-117.4c0-.4 0-.7.1-1.1 1-3.5 1.3-7.1.9-10.7-.2-1.8-.3-3.6-.4-5.4-.4-3.7-.8-7.4-1.2-11.2-.1-1.3-.3-2.5-.3-3.8 1 4.3 1.7 8.6 2.1 13 .3 3.9.8 7.8.9 11.7 0 2-.5 4.1-.9 6.1 0 .5-.2 1.2-1.2 1.2zm67.7 120.3c6 7.7 12.1 15.3 20.5 20.7l-.2.4c-.3 0-.7 0-1-.3-1.6-1.1-3.3-2.1-4.8-3.4-5.3-4.7-9.9-9.9-13.6-15.9-.3-.5-.6-1-.8-1.5zm-85.1-94.8c-.3 0-.7.1-.9 0-1.8-.9-3.9-1.1-5.6-2.5-2.1-1.6-4.5-2.7-6.7-4.3-6.1-4.4-11.8-9.5-17-15-.1-.1-.2-.3-.2-.5.3.3.7.5 1 .8 5 4.8 10 9.4 15.6 13.4 2.6 1.8 5.4 3.3 8.1 5 1.8 1.1 3.6 2.2 5.8 2.6v.4zm34.6-98.5c-1.2 10.4-1.4 20.8-1.6 31.2-1.1-10.5-.3-28.4 1.6-31.2zm-72.4 55c-1.1-1.8-2.2-3.6-3.2-5.4-2.8-5.6-5.4-11.2-6.9-17.3-.5-2-.7-4.1-1-6.2 0-.4.1-.8.4-1.2 1.2 10.9 6.1 20.4 10.7 30.1zm2.3 161.5c.3-.7.4-1.4.8-1.9 1.2-1.6 2.3-3.3 3.6-4.8 4.9-5.5 9.8-10.9 15.4-15.8.2-.2.5-.4.7-.5-6.9 7.6-14.5 14.6-20.2 23.2l-.4-.2zm-9.5-124.4c-8.1-4-15.9-8.7-24.6-11.9 0-.5.6-.5 1-.4 1.1.3 2.3.5 3.3 1 5.5 2.6 11.1 5.3 16.2 8.6 1.4.9 2.7 1.8 4.1 2.7zm189.7-23.4c-1 1.3-1.9 2.7-2.9 3.9-4.3 5.1-9.5 9.1-14.8 13-1.4 1-2.9 1.9-4.5 2.7 2.6-2 5.2-3.9 7.7-6 2.6-2.2 5.2-4.3 7.6-6.7 2.3-2.3 4.4-4.9 6.5-7.3l.4.4zm-34.6 98.8c-8.6-3.9-23.4-14.5-25.6-19 1.2.5 1.9 1.6 2.9 2.4 1 .9 2 1.9 3.1 2.8 1 .9 2 1.7 3.1 2.5 1.1.9 2.2 1.7 3.3 2.5 1.1.8 2.1 1.5 3.2 2.3 1.1.7 2.2 1.5 3.3 2.2 1.1.8 2.2 1.6 3.4 2.3 1.1.7 2.3 1.3 3.4 1.9zm-12.5-121.4c2.9-8.5 6-16.9 6.9-26 .9.5.7 1.3.6 2-.3 3.4-1.1 6.8-2.1 10-1.2 4.2-2.6 8.2-4.5 12.1l-.9 1.8zM383.4 415c.4-1.2.9-2.3 1.2-3.6.8-3.2.2-6.3-.5-9.4-.9-3.9-2.7-7.4-4.4-11-.4-.9-.9-1.8-1.2-2.8.2.2.4.5.6.7 2.7 4.7 5.2 9.4 6.3 14.8.6 3 .8 6.1-.2 9.1-.3.9-.6 1.8-1.7 2.1zm-120.5 7c9.5 1.5 18.7-.2 28.1-1.4-2.2.5-4.3 1.1-6.5 1.4-5 .7-9.9 1.5-14.9 1.3-1.9 0-3.9-.4-5.8-.6-.3 0-.6-.3-.9-.4v-.4zm179.3-8.5c8.3 2.5 15.8 6.5 22.8 11.4 0 .1-.1.3-.2.4-.3 0-.7-.1-1-.3-.9-.5-1.8-.9-2.6-1.5-5.8-3.9-12.1-6.9-18.5-9.7-.2 0-.4-.2-.5-.3zm30.6 37.3c-7-4.3-13.7-8.6-20.5-12.8v-.2c1.9.9 3.7 1.7 5.4 2.7l13.8 8.4c.6.4 1.3.7 1.3 1.8zm-108.1-27.4c2-2.9 2.2-6.1 2.2-9.4 0-4.6-.5-9.1-1.2-13.7 0-.4 0-.7.2-1.1.4 2 .9 4 1.2 6 .5 3.7.9 7.4.7 11.2 0 2.1-.5 4.1-1.4 6-.3.6-.6 1.3-1.6 1.1zm-52.8-87.2c5 9.2 9.8 18.5 17.1 26.2-.1.1-.3.2-.4.3-.6-.6-1.3-1.1-1.8-1.8-2.2-2.9-4.5-5.7-6.3-8.7-2.9-4.8-5.4-9.9-8.1-14.9-.2-.4-.3-.7-.5-1.1zm-53.3 82.3c7.8.5 15.6.4 23.3-.3-3.9.9-7.8 1.4-11.7 1.4-3.9 0-7.8.4-11.7-.5v-.6zm151.5-35.6c1.4-1.3 2.8-2.6 4.4-3.8 1.4-1.1 3.1-2 4.4-3.2 1.8-1.6 3.9-2.5 6-3.3.5-.2 1-.2 1.5-.3.3 0 .5.2 1.1.4-1.3.5-2.5.7-3.5 1.2-1.3.6-2.4 1.4-3.6 2.1-3.4 2-6.5 4.3-9.5 6.7-.2.1-.4.3-.6.4 0 0-.1-.2-.2-.2zm-85.7-104.5c.4.4 1 .7 1.3 1.2.9 1.5 1.9 2.9 2.6 4.5 2.4 5 4.3 10.2 5.6 15.6v.8c-2.9-7.5-5.1-15.2-9.9-21.8 0 0 .2-.2.3-.2zm120.8 106.3c-.8.4-1.6.8-2.5 1.2-4.7 1.9-9.6 3.1-14.6 3.9-1.1.2-2.3 0-3.5 0-.4 0-.8-.2-1.1-.4v-.4c1.9 0 3.7 0 5.5-.3 1.8-.2 3.6-.7 5.4-1.1 1.8-.4 3.7-.9 5.5-1.4 1.8-.5 3.5-1.1 5.2-1.7v.2zm-116.4 61.4c-6.2 3.6-10.8 9-16.1 13.7.2-.3.4-.6.7-.9.2-.3.5-.6.7-.9 3.1-3.6 6.5-6.9 10.2-10 1-.8 2.1-1.4 3.2-2.1.4-.2.8-.2 1.3-.4 0 .1 0 .3.1.4zm-.6-40c-3.3-5.7-.9-15.4 5.1-21.7-.2.4-.5.8-.7 1.2-1.7 2.7-3.3 5.6-4.3 8.6-1.1 3.4-1.2 6.8-.4 10.3l.3 1.5zm22.4-28.9c-2.4 6.8-3.2 13.8-2.5 20.9-.2-1.5-.5-2.9-.6-4.4-.2-3.9 0-7.8.7-11.7.3-1.8 1.3-3.4 2.4-4.9z"/><path d="M324.4 401.5c-7.1 1.4-14 .4-20.9-1.4 2.3.3 4.7.7 7 .9 2.3.2 4.6.3 6.9.3 2.3 0 4.7-.2 7-.3v.5zm9.1 31.7c4.5-4.5 9.7-8.5 12-15.1.4.8.4 1.4 0 1.9-.7 1.4-1.3 2.9-2.3 4.1-2.7 3.6-6 6.7-9.8 9.1zm-27.2 11.5c-4.7 4.4-10 8.1-14.2 13.1.1-.4.1-1 .4-1.3.5-.8 1.1-1.5 1.8-2.2 3.7-3.6 7.6-6.9 12-9.6zm1.2-20.2c.4.1.9.2 1.3.3 2.9 1.2 6 1.1 9.1.7 2.8-.3 5.6-.9 8.4-1.3-2.2 1.1-4.6 1.6-7.1 1.9-2.1.3-4.2.3-6.3.4-1.7 0-3.2-.5-4.7-1.2-.3-.1-.5-.4-.8-.6 0 0 0-.2.1-.3zM236 373c4.6 3 9.2 6 13.8 8.9-5-2.1-9.7-4.6-13.9-8.1-.1-.1-.1-.4-.2-.7l.3-.2zm120 70.9c2.6-6.3 5.8-12.3 7.5-18.9h.3c0 .5 0 1-.2 1.4-.5 1.6-.9 3.3-1.6 4.8-1.6 3.6-3.4 7.2-5.1 10.7-.3.7-.7 1.3-1.1 1.9zm51.4-67.6c-3 4.2-7.5 6.2-12 8.4.2-.3.2-.6.5-.8.4-.3.9-.6 1.3-.8 3-1.7 5.9-3.4 8.5-5.7.5-.4 1.2-.7 1.7-1zM303.2 485.6c-3.5 5.4-9.7 11.8-11.6 12.1 3.8-3.9 7.6-7.9 11.6-12.1zM386 258.3c1.4 2.5 1.3 10.3 0 16.3v-16.3zM311.2 356c3.8 4.7 7.7 9.2 12.4 13 0 .1-.1.2-.2.3-.5-.3-1-.5-1.4-.9-4.2-3.6-7.8-7.7-10.9-12.3l.1-.2zm63.4 21.1c-3.7-3-7.4-5.7-12.4-6.2.6-.7 1.2-.8 1.9-.6 1 .3 2.1.5 3 1 1.5.7 3 1.5 4.4 2.5 1.2.8 2.3 1.9 3.4 2.9l-.3.4zm-4-15.4c1.5-1.3 3.2-1.9 5-2.4 2.1-.6 4.2-.9 6.4-.6 1.8.3 3.3 1.2 4.6 2.4-.3 0-.6-.2-.8-.3-3.6-2-7.3-1.8-11-.6-1.4.5-2.8 1-4.3 1.5zm91.8 78.1c4.4 2.1 8.2 4.6 11.9 7.4.5.4 1.1.8.7 1.5-4.1-2.9-8.2-5.8-12.6-8.8zm-105.3-59.7c-.7 4.9-1.5 9.8-.8 15-1.5-4.4-1.1-13.4.8-15zm33.1 49.3l1.8 7.8c.6 2.7 1.4 5.3 2.1 8-1.5-2.1-4.5-13.9-3.9-15.8zm-44.7 63.1c4-3 7.6-6.4 10.8-10.2-2.8 4.3-6 8-10.4 10.7-.1-.2-.3-.3-.4-.5zm39.9-94.7c2.2 4.2 3.5 12.7.8 14.8.6-2.6 1.1-5.1.6-7.6-.4-2.4-1-4.8-1.5-7.2zm-85.7 48.5c-2.8 2.6-5.6 5.3-8.7 8.1.1-.6 0-1 .2-1.1.8-.9 1.5-1.8 2.3-2.6 1.8-1.8 3.9-3.3 6.2-4.5zm107.8-19.6c4.6 3.2 8.9 6.3 13.4 9.4-3.9-1.6-12.3-7.5-13.4-9.4zm-18.4-17.2c4.7-.2 9.4-.4 13.5-.6-3.3 1.3-11.6 1.8-13.5.6zm-11.7-76.7c-1.2 5.6-2.7 11-5.2 16.2-.2-1.2.6-2.1.9-3.1.3-1.1.7-2.2 1.1-3.3.4-1.1.8-2.2 1.1-3.3.4-1.1.7-2.2 1-3.3.3-1.1.7-2.1 1-3.2zm-36.2 37.9c-1.8.4-3.7.5-5.3 1.5-1.5.9-3.2 1.8-4.9 2.7 2.7-3.4 7.5-5.4 10.2-4.2zm9-14.1c2.4 2.5 4.6 5.3 6 8.4.2.4.2.8.2 1.2l-.3.3c-2-3.3-4-6.6-5.9-9.9zm69.9 135.6c-2-.3-6.7-4.5-9.3-8.4 3.1 2.8 6.1 5.5 9.3 8.4zm-58-126.3c0-2.3 4-6.3 7.3-7.7-2.7 2.5-5.3 4.8-7.3 7.7zm-19.8 62c1.9-3.1 4.2-6 5-9.7h.4c0 .6.2 1.2 0 1.7-1 3.1-2.8 5.8-5.3 8zm-8.2-3.9c2.7-2 5.3-4 8-6.1.2.5-.2.9-.5 1.3-2 2.3-4.6 3.8-7.5 4.8zM369 311.4c.3-2.9.7-5.7 1-8.6.3-2.9.5-5.8.8-8.7.3 5.8-.7 11.5-1.8 17.2zm78.7 139.1c4.3 1.6 8 4.3 8.4 5.9-2.9-2-5.6-4-8.4-5.9zM277.1 312.7c-1.3-3.8-2.6-7.7-2.7-11.8h.3c.8 3.9 1.6 7.9 2.4 11.8zm176.2-6.8c1.3-3.1 2.6-6.3 4.1-9.8.1.6.3.8.2 1-.9 3.2-2.3 6.1-4.4 8.7zm-125.4 80.4c-1.5 3.7-3.4 7-3.4 11.2-1.1-2 .6-7.6 3.4-11.2zm-4.9 41.3c-3.2 1.5-9 1.7-10.7.6h5.3c1.8 0 3.6-.3 5.3-.5zm99.6-35.9h10.2c-3.8 1-8.8 1.3-10.3.4v-.4zm4.2-15c-2.8 1.3-5.5 2.5-8.2 3.7.3-.4.6-.6.9-.8 2-1.3 4-2.5 6.3-3 .3 0 .5 0 .8-.1 0 0 .2 0 .4.2zM327.5 279c2 2.6 3.4 5.5 4.5 8.6-1.6-2.8-3.1-5.6-4.7-8.4l.3-.2zm27.6 89.5c-1.3-2-2.5-4-3.8-6 1.9 1.3 3.9 4.2 4.1 5.8l-.3.2zm43 37.3c-2.2 1.2-4.6 2.1-7.2 2v-.4c2.4-.6 4.8-1.1 7.3-1.7zm-38.9-26.9c-.4 2.5-.8 5-1.2 7.2-.4-2.8 0-5.7 1.2-7.2zm-66.9 113.9c-1.3 1.7-2.7 3.3-4 5-.2-1 1.9-3.7 4-5zm-49.8-118.1c-1.7-.7-3.3-1.4-4.9-2.7 1.3 0 2.9.8 4.9 2.7zM409 513.4c-4.8-5.7-9-11.8-13.1-18.1-3.1-4.8-5.6-9.8-8-14.9-2-4.4-3.7-9-5.4-13.5-.2-.6-.4-1.3-.5-2 .5-.5 1-.9 1.4-1.4.3.3.5.4.7.6.2.3.3.6.5.8 3.2 4.7 5.1 10.1 7.4 15.2 1.2 2.6 2.7 5.1 4.1 7.7 4.7 8.9 10.4 17.2 17.1 24.8l.6.9h-1.3c-.3-.4-.5-.9-.8-1.3-2.3-3-4.9-5.9-7-9-3.4-5.1-6.7-10.2-9.9-15.5-1.5-2.5-2.9-5.2-3.9-8-.8-2.4-2.7-3.5-4.3-5.2.7 2.2 1.6 4.3 2.5 6.3 2.7 6.1 6.1 11.7 9.6 17.2 3.5 5.4 7.3 10.5 11.6 15.3H409z"/><path d="M286.5 366.6c-.4-.5-.8-1.1-1.2-1.6-6.8-9.4-11.9-19.6-15.2-30.7-1.6-5.3-2.1-10.8-1.7-16.3.2-4.1.8-8.1 2.5-11.9.3-.7.6-1.3.9-2 2.3-4.8 6.1-7.6 11.3-8.5.6 0 1.1-.2 1.7-.3 3.5-.7 6.2-2.4 8-5.5 1.2-2.1 2.3-4.1 3.5-6.2 1.3-2.4 2.8-4.6 4.9-6.4 1.8-1.6 3.8-2.8 6.2-3 1.9 0 3.8.2 5.6.6 1.9.4 3.7 1.2 5.5 1.9 2.1.8 4.2 1.4 6.5 1.4.7 0 1.5.1 2.2.4 4.8 1.8 9.1 4.3 11.9 8.8 2.8 4.3 4.8 9 6.3 14 .2.5.3 1 .6 1.8.3-1.4.4-2.5.6-3.6.6-3 1.8-5.8 3.7-8.2 2.1-2.8 3.3-5.8 3.8-9.3.2-1.4.6-2.8.9-4.2 1.1-4.7 3.5-8.7 6.4-12.4 3.4-4.3 8.1-6.6 13.3-7.7 4.3-.9 8.5-.4 12.6 1.1 5.2 1.9 9.7 4.9 13.7 8.7 1.8 1.7 3.6 3.5 5.2 5.3 1.8 2 3.9 3.8 6.2 5.2l.9.6c6.8 3.7 10.6 9.6 12.6 16.9 1.6 5.8 1.9 11.7 1.3 17.6-.1 1.4-.2 2.7-.2 4.1.6-1.3 1.2-2.6 1.7-3.8 3.3-7.2 8.5-12.6 15.6-16.1 4.6-2.3 9.5-2.9 14.5-1.2 2.7.9 5 2.5 7 4.5 5.8 5.8 9.7 12.6 10.6 21 .4 3.3.7 6.6 1.5 9.7 1.1 4.1 2.6 8.1 4 12.2 1.3 3.6 2.3 7.2 2.6 10.9.3 3.4-.2 6.6-1.1 9.9-2.1 7.2-5.3 13.9-9.6 20-4.9 6.9-11.4 11.7-18.9 15.4-6.2 3-12.6 5.2-19.4 6.4-.3 0-.6.2-.9.5.5.2 1 .3 1.6.4 9 1.9 16.6 6.3 23.3 12.6.2.2.5.4.7.7 2.8 3.6 6.6 6.1 10 8.9 1.4 1.1 2.8 2.3 4.1 3.5 4.6 4.2 8.1 9.2 9.4 15.3 1.1 5 .3 9.7-2.6 14.1-3.6 5.4-8.4 8.9-14.6 10.4-3.4.9-6.8 1.9-10.2 3-4.6 1.6-8.1 4.4-10.2 8.9-.2.5-.5.9-.7 1.4-2.4 5.1-6.7 7.4-12.1 8.1-6 .9-11.7-.5-17.2-2.5-11.3-4-20.9-10.6-28.5-19.9-1.6-2-3.1-4.2-4-6.6 0-.2-.2-.3-.4-.7-.2.5-.4.9-.6 1.4-3.8 10.9-9.5 20.8-17 29.5-1.6 1.9-3.5 3.6-5.3 5.2-2.6 2.3-5.7 3.8-8.9 5-3.8 1.5-7.7 1.2-11.5.2-6.4-1.7-12.8-3.6-19.2-5.4-3-.8-6-1.6-9-1.6-2.7 0-5.4.3-8 .7-3.6.5-7.2 1.4-10.9 1.1-1.4-.1-2.8-.4-4.2-.8-2.2-.7-3.7-2.3-4.3-4.5-.3-1.3-.5-2.6-.6-3.9-.1-1.5 0-3.1 0-4.6-.2-4.7-.4-9.3-.6-14-.2-5.2-.7-10.5 0-15.7.8-6.2 2.1-12.2 4.9-17.8 1.1-2.1 2.6-4 3.9-6 .3-.4.6-.7 1.1-1.3-1.6.3-2.9.6-4.3.9-6.4 1.3-12.7.6-18.8-1.3-12-3.8-23-9.6-31.9-18.8-7.4-7.7-12.6-16.8-16-26.9-.8-2.4-1.1-4.9-.9-7.5.3-3.3 1.9-4.9 5.3-5.1 2.1 0 4.2-.1 6.4 0 2.5.2 4-.8 5.3-3 4.1-7.5 10.6-11.7 19-13 7.5-1.1 14.5.3 21 4.2 2.5 1.5 4.8 3.3 7.2 4.9.3.2.6.4.8.6l.2-.2zm62.2-19.9v-1c-.3-3.4-.7-6.8-.9-10.3-.2-3.4-.3-6.9-.3-10.3 0-5.7-.7-11.4-1.6-17-1.1-6.4-3.2-12.5-6.3-18.2-2.7-4.9-6.7-8.1-11.8-10.1-1.3-.5-2.7-.8-4-.9-1.9 0-3.6-.6-5.4-1.2-2.1-.8-4.3-1.5-6.4-2.2-4.2-1.3-7.7 0-10.7 3-1.1 1.1-2 2.3-2.8 3.6-1.1 1.6-1.9 3.4-2.9 5.1-.9 1.5-1.8 3-2.8 4.4-1.2 1.8-2.9 3.1-5 3.7-1.1.4-2.2.8-3.3.9-6.4.8-10.4 4.6-12.7 10.4-1.2 3-1.9 6.1-2.1 9.2-.6 6.4-.1 12.7 1.8 18.8 3.1 10 7.6 19.4 13.6 28 2.1 3 4.5 5.9 7 8.6 2.2 2.4 4.6 4.6 7 6.9 3.9 3.6 7.8 7.2 11.8 10.6 2.9 2.5 6.2 4.6 9.7 6.2.7.3 1.4.5 2.4.9-.2-.8-.3-1.3-.5-1.8-1.8-6.7-2.4-13.5-.7-20.4 1.3-5.2 3.7-9.7 8.5-12.5.1 0 .2-.2.4-.4 0-2.7 1.1-4.9 3.5-6.1 4.9-2.5 9.1-6.4 14.6-8.1zm48 31.3h.3c.4-.5.7-1 1.1-1.5 2.7-3.4 4.8-7.2 6.3-11.3 2.2-5.7 4.4-11.5 6.6-17.1 1.8-4.6 4.5-8.8 8.1-12.2 2.6-2.4 4.1-5.2 4.9-8.5 2-8 3.2-16.1 2.5-24.5-.4-5-2.8-8.7-7.5-10.7-1.1-.5-2.3-.9-3.4-1.3-2.4-.9-4.8-1.7-7.1-2.7-4.5-1.9-7.7-5.2-9.4-9.8-.8-2-1.5-4.1-2.2-6.1-1.4-3.8-3.3-7.3-6.1-10.3-.5-.6-1.2-1.1-1.9-1.4-3.9-1.7-8-2.8-12.3-2.1-5.8.8-10.7 3.1-14.5 7.7-2.8 3.5-4.5 7.7-6.1 11.9-.3.7-.4 1.4-.5 2.2-1.8 7.6-.9 6.5-5.1 12.6-3.4 5-3.9 10.6-3.3 16.5.5 4.7 1.1 9.3 1.3 14 .3 5.1.3 10.3.4 15.4 0 1.6.2 3.3.4 4.9.1.9.4 1.7.6 2.5 5.6-.7 10.6 0 15 3 1.4-.3 2.6-.6 3.8-.8 3.5-.3 6.6 1.1 9.2 3.3 4.2 3.5 8.3 7 12.2 10.8 3.5 3.4 5.7 7.6 6.2 12.5 0 .9.2 1.9.3 2.8zm-10.3 51.4c.3 2.7.7 5.2.7 7.6 0 3.2-.1 6.4-.2 9.7-.2 4.8-1.2 9.5-2.4 14.2-.3 1.1-.3 2.2.2 3.2 1 2.4 2.3 4.5 3.9 6.5 6.8 8.5 15.4 14.6 25.4 18.8 5.6 2.3 11.4 3.9 17.5 3.8 2 0 3.6-.7 4.9-2.2 1.6-1.9 3-3.9 3.5-6.3.6-2.8 1-5.7 1.3-8.6.3-3.3.8-6.6 1.8-9.8 1.5-4.6 4.5-7.6 9-9 3.5-1.1 7.1-1.3 10.8-1.1 1.2 0 2.4.1 3.6.1 1.1 0 2-.4 2.4-1.5.7-1.5 1.7-2.6 3-3.7.7-.5 1.3-1.1 1.9-1.7 4-3.9 5-9.3 1.3-14.1-1.4-1.8-3.1-3.4-4.8-4.9-2-1.8-4.2-3.3-6.3-5-.7-.6-1.4-1.2-2-1.8-8.4-9.8-19.1-15.1-31.8-16.6-3.8-.5-7.6-.9-11-2.7-.2-.1-.5 0-.8-.1-.3 1-.6 2-.8 3-1.3 5.3-3 10.3-5.9 15-1.9 3-4.4 5.3-7.3 7.2-1.7 1.1-3.6 1.7-5.6 1.6-2.5-.1-5.1-.3-7.6-.6-1.6-.2-3.2-.5-4.9-.8zm-83-1.7c-5.7 1.1-10.5 5.1-11.9 11.4-1.1 5-.9 10.1.2 15.1.9 4.7 1.9 9.3 2.8 14 .4 2.3.2 4.6-.4 6.9-.8 3-2.5 5.4-4.3 7.9-1.3 1.8-2.6 3.7-3.8 5.7-1 1.7-1.1 3.6-.6 5.5 1 3.8 3.1 4.1 5.9 3.7.7-.1 1.3-.4 1.9-.7 1.3-.7 2.6-1.4 3.9-2.2 3.1-2.1 6-4.3 9.1-6.4 3.4-2.3 7-4.2 11-5 2.4-.5 4.8-.9 7.2-1.1 3.4-.3 6.8.2 10 1.5 1.9.8 2.2 1.5 1.7 3.5-.3 1.2-.8 2.3-1.1 3.5-.1.4-.1.8-.2 1.2 1.5-.4 2.9-.8 4.3-1 2.1-.3 4 .4 5.8 1.1 3.4 1.3 7 1.6 10.6 1 7.6-1.3 13.3-5.6 18.4-11.1.6-.6 1-1.3 1.5-2.1 3.8-6.4 6.5-13.3 8.4-20.5 1.5-5.7 2.4-11.5 2.3-17.4 0-3.4-.2-6.9-.4-10.3 0-.9-.4-1.8-.6-2.7-5.2-1.7-9.9-4.1-14.1-7.3-3.8 3.3-8.1 4.3-12.9 3.4-.5 1.8-.9 3.4-1.3 5-.9 3.7-2.4 7-5.1 9.7-2.1 2.1-4.6 3.3-7.6 3.4-1.9 0-3.9.3-5.7 1.1-3.5 1.6-7.3 2.1-11.1 2.1-7.2 0-13-2.9-17.3-8.6-1.8-2.4-3.2-5.1-4.8-7.6-.5-.8-1-1.7-1.5-2.5zm115.5-25c1.9 1.3 3.9 1.9 5.9 2.3 3.3.7 6.5 1.2 9.9.4 1.7-.4 3.5-.8 5.2-1.2 6.9-1.6 13.1-4.4 18-9.7 3-3.2 5.8-6.6 7.5-10.7 2.5-6.1 2.8-12.4 2.1-18.8-.6-5.5-1.2-10.9-1.9-16.4-.4-3.3-.2-6.7.3-10 .7-3.8 1.6-7.5 2.5-11.3 1.4-5.8 2.1-11.6 1.1-17.6-.6-3.8-2.5-6.9-5.3-9.3-5.1-4.4-10.9-5.3-17.1-2.9-10.1 3.9-15.7 12-19.2 21.7-1.2 3.3-1.9 6.7-2.9 10-.8 2.5-2.1 4.7-4 6.5-4 3.7-7 8.1-9 13.1-2.3 5.7-4.5 11.5-6.7 17.3-2 5.3-5.1 9.9-8.5 13.9-.7 3.1-1.1 5.9-2 8.6-1 2.6-.8 5-.8 7.9.3-.5.4-.7.5-.9 2.6-7.1 6.9-13.2 11.7-18.9 3-3.6 6.8-6.5 11.1-8.5 1.5-.7 3.1-1.1 4.7-1.5 2.4-.5 5 .7 5.6 2.6.5 1.6 1.1 3.2 1 5 0 1.2-.6 2.3-.7 3.5-.1 1.8-.6 3.4-1.3 5-1.7 4.1-3.5 8.3-5.3 12.4-1 2.3-1.9 4.7-2.4 7.3zm-95.4-5.4c-.9-.2-1.6-.3-2.4-.4-4-.5-8-.9-11.9-1.6-5.3-.9-10.4-2.7-15.1-5.4-4.1-2.4-7.2-5.7-9.1-10.1-.8-1.8-1.4-3.8-2.2-5.6-.9-2.2-1.7-4.6-2.9-6.7-2.7-4.8-6.7-8-12.2-9-3.7-.7-7.3-.8-11 0-6.1 1.2-11.3 3.8-15.1 8.9-1 1.4-1.9 2.8-2.8 4.2-1 1.8-2.6 2.6-4.5 2.7H231c-1.6 0-3.3 0-4.9.1-2.1.2-3 1.3-3.4 3.3-.5 2.1 0 4.2.4 6.3 1.9 7.7 5.8 14.2 12.5 18.6 2.3 1.5 4.7 2.8 7.1 4.2 1.5.9 3.1 1.6 4.6 2.5 5.7 3.2 10.7 7.3 15.2 12.1 2.9 3 6.2 5.6 9.8 7.7 3.8 2.2 7.9 3.6 12.4 3.2l3.3-.3c3.4-.6 6.8-1.3 9.9-3.2 1.2-.7 2.5-1.1 3.8-1.6.4-.2.7-.3 1.2-.5-.3-.6-.6-1-.8-1.5-1.2-2.2-1.9-4.6-2-7.1 0-2.7 1.4-4.1 4.1-4.2 1.9 0 3.7.5 5.4 1.2 1.8.8 3.7 1.7 5.5 2.4 3.1 1.2 6.3 2.1 9.7 1.6 3.6-.5 7.2-1.2 10.6-2.7.4-.2.8-.4 1.3-.7-6.4-4.7-10.3-11-13-18.2zm24.9-20.1c-.2 0-.3-.2-.5-.3-.8 1-1.6 1.9-2.4 2.9-1.4 1.8-2.4 3.8-3.2 6-1.8 5.1-2 10.3-1.3 15.7 1.2 8.7 5.3 15.5 12.5 20.4 2.5 1.7 5.2 2.5 8.2 2.3 4.5-.2 7.9-2.2 10.2-6.1 3.5-6.1 4.1-12.7 3-19.5-.9-5.2-3.1-9.9-5.9-14.3-.9-1.4-2.1-2.7-3.4-3.8-2-1.7-4.3-2.1-6.8-1.2-2 .7-3.9.6-5.8-.4-.7-.4-1.6-.7-2.2-1.2-.8-.7-1.6-.7-2.5-.6zm24.2 44.3c.4.3.6.6.9.8 4.6 3 9.5 5.3 14.9 6.4 2.5.5 5.1.6 7.7 1.1 1.6.3 2.8-.3 3.8-1.3 2-2 3.5-4.3 4.1-7 .9-4.5 1.8-9.1 2.5-13.7.9-5.8 3-11.1 7-15.5 2.1-2.3 4.3-4.5 6.3-6.9 1.7-2 3.4-4.1 4.9-6.2 1-1.5 1.8-3.3 2.4-5 1.1-3.1-1.1-6.1-4.4-6.1-1.7 0-3.2.5-4.7 1.2-4.5 2.2-8.3 5.3-11.6 9.2-4.8 5.7-8.8 11.8-11.4 18.9-1.2 3.2-2.3 6.3-3.8 9.4-3.6 7.5-9.1 12.6-17.4 14.4-.4 0-.8.3-1.3.5zm-35-5.3c-3.1 1.8-6.5 2.7-9.9 3.4-4.6.9-9.1.7-13.5-1.3-1.7-.8-3.4-1.6-5.1-2.2-1.4-.5-2.9-1-4.4-1.2-1.7-.3-2.7.3-3.6 1.9.3.7.7 1.4 1.1 2.2 2.3 4 5.8 6.7 10 8.5 5.1 2.2 9.4 5.4 13.6 8.9 2.3 1.9 4.9 3.5 7.4 5.1 1.7 1.1 3.7 1.5 5.8 1.3 1.4-.2 2.7-.3 4.1-.3 3.3-.2 6.1-1.5 8.3-4 2.5-2.9 3.9-6.4 4.6-10.1.2-1.1.3-2.3.4-3.1-1.7-1.1-3.1-2-4.5-3s-2.7-2.2-4.2-3.4c-3.6.4-6.9-.6-10.2-2.5zm132.8-108.5s-.2 0-.2.1v.7c.8 3.3 1 6.7.7 10.1-.3 4.2-1.2 8.2-2.3 12.3-1.1 4.3-2 8.6-2.1 13.1-.1 6.2.9 12.3 1.7 18.4.6 4.5.8 9 .2 13.6-.8 6-3 11.3-6.9 15.9-1.4 1.6-2.9 3.1-4.3 4.6-.3.3-.6.7-.9 1 .3.1.5 0 .7 0 3.8-2.1 7.5-4.4 10.6-7.5 4-3.9 7.3-8.3 9.9-13.3 2.1-4.1 3.9-8.2 5.2-12.6 1.1-3.8 1.4-7.7.8-11.6-.5-3.4-1.6-6.6-2.7-9.9-1.3-3.8-2.8-7.7-3.7-11.6-.8-3.4-1-6.9-1.5-10.3-.6-4.2-1.9-8.1-4.2-11.7-.3-.5-.6-.9-1-1.4zm-139.6 54.8c-2.7 1.6-4.5 3.8-5.9 6.4-1.8 3.4-2.6 7-2.8 10.8-.3 4.5 0 8.9 1.3 13.2 1.9 7 4.9 13.3 10 18.5 2.8 2.9 6.1 5.1 10.1 6 1 .2 2.1.5 3.4.2-.4-.6-.7-1-1-1.4-2.4-3.2-4.2-6.7-5.1-10.6-1.1-4.5-1.5-9.1-.9-13.7.7-5.2 2.3-10 5.8-14 1.7-1.9 3.4-2.5 5.7-1.4.5.2 1 .4 1.5.7 1.5-2.5 1.5-4 0-5.6-4.3 1.9-8.6 1.4-12.7-.4-4-1.7-7.6-3.9-9.3-8.5zm41.3 57.8c4-.8 7.5-2.1 10.4-4.4 6.7-5.4 10-12.4 10.4-20.9.2-4.3-1.4-8.2-4.1-11.6-1.3-1.6-2.4-3.4-3.5-5.1-.4-.6-.7-1.3-1.1-1.9-2.9-3.9-6.6-6.6-11.3-7.7-2.9-.7-5.8-.7-8.6.1-2 .6-3.1 2.6-2.4 4.5.8 2.3 2.1 4.4 4.1 5.9 1.7 1.3 3.1 2.7 4.2 4.5 4.4 7.2 7.2 14.9 6.3 23.6-.4 3.8-1.2 7.5-3.1 10.9-.3.6-.7 1.2-1.1 2.1zm-36.9 65.1c-1.2-.4-2.2-.9-3.3-1.2-3.9-1-7.9-.8-11.8-.2-5.3.8-10 3-14.3 6.1-2.8 2-5.5 3.9-8.3 5.8-1.8 1.2-3.7 2.2-5.9 2.6-.1 0-.3.2-.5.5 3.4.4 6.5.2 9.7-.3 2.6-.4 5.2-.9 7.8-1.1 5-.5 9.9.7 14.7 2 6.1 1.7 12.2 3.5 18.3 5.1 3.8 1 7.6.8 11.2-.9 3.7-1.7 7.1-3.8 9.9-6.7 2.8-2.9 5.4-5.9 7.7-9.3.3-.4.4-.8.7-1.2-1.4.7-2.6 1.6-3.8 2.5-4.8 3.6-10.3 5.3-16.3 5.2-2.7 0-5.2-.8-7.7-1.8-2.4-1-4.6-.8-6.9.2-.5.2-1 .5-1.5.6h-1.2c-.3-2.9 1.7-5.1 1.7-8zm143.3-47.1h-.4c0 .4 0 .8.2 1.1.8 3.1.1 6-1.7 8.6-1 1.3-2.2 2.5-3.3 3.6-1.3 1.2-2.6 2.3-3.3 4-.5 1.2-1.5 1.7-2.8 1.7-2.5 0-5.1-.1-7.6 0-1.8 0-3.7.2-5.5.7-5 1.2-8.5 4.1-9.9 9.2-.3 1.1-.7 2.2-.9 3.4-.5 3.6-.9 7.1-1.3 10.7-.5 3.8-1.7 7.2-4.2 10.1-.2.2-.3.5-.6 1 3.4-1.1 5.9-2.9 7.5-5.9.6-1.2 1.3-2.4 1.9-3.6 1.1-2.1 2.7-3.9 4.7-5.3s4.2-2.5 6.5-3.2c2.9-.9 5.9-1.8 8.8-2.6 5.6-1.5 10.1-4.3 13.5-9.1 3.1-4.2 4.2-8.8 3.3-13.9-.7-3.8-2.6-7.1-4.7-10.2zm-85.1-48.8c.3-.7.5-1.1.6-1.5.5-2.7 1.2-5.4 1.5-8.1.2-1.8.2-3.7-.1-5.5-.8-4.6-3.2-8.5-6.6-11.7-3.3-3.1-6.7-6-10.1-8.9-1.6-1.4-3.4-2.7-5.5-3.5-3.3-1.2-6.4-.9-9.1 1.4-2.5 2-4 4.7-4.7 7.7-.4 1.8-.4 3.9 1.2 5.1 1.1.9 2.2 1.7 2.8 3 0 0 .2 0 .3.2h.8c4-1 8-.6 11.8 1 4.1 1.6 7.2 4.5 9.6 8.1.7 1.1 1.2 2.4 2 3.4 2.1 2.9 4.5 5.6 5.6 9.5zM363.9 350c-.5-.3-.9-.6-1.3-.9-3.7-1.9-7.7-2.3-11.7-1.7-2.9.4-5.5 1.8-8 3.4-2.4 1.5-4.9 3-7.3 4.5-.6.4-1.3.8-1.8 1.2-1.6 1.3-2.2 3-1.8 5.1.5 2.3 1.6 4.1 3.5 5.4 3.1 2.2 6.3 3.9 10.1 4.3 4.1.4 7.8-.3 10.1-4.4.3-.6 1.1-.9 1.6-1.4.4-.3.9-.6 1.3-.9-2-6.3 1.1-10.6 5.2-14.7zm-86.6 11.8l-.3.4c3.6 3.1 5.3 7.3 6.9 11.6.6 1.6 1.1 3.3 1.8 4.9 2.1 4.9 5.7 8.4 10.4 10.9 6.2 3.2 12.8 4.8 19.7 5.7.8.1 1.6.2 2.5.3-.2-.4-.5-.6-.8-.8-1.5-1-3.1-2-4.6-3-4.8-3.4-9-7.6-13.2-11.6-2-1.8-3.8-3.9-5.8-5.6-2.8-2.4-5.6-4.8-8.6-7.1-2.5-2-5.2-3.7-7.9-5.6zm123.5 67.5c1.3 0 2.2-.6 3.1-1.1 2.9-1.9 5.4-4.2 7.2-7.2 2.6-4.3 4.2-9 5.4-13.8 1.4-5.5 3-10.9 5.5-16 1.7-3.5 3-7.3 4.5-11 .4-1 .6-2.1.8-3.2h-.3c-1.6 3.7-4.2 6.8-7 9.8-2.1 2.2-4.1 4.4-6.1 6.7-3 3.6-5.1 7.6-5.9 12.3-.7 4.2-1.4 8.3-2.2 12.5-.7 3.9-1.9 7.7-4.9 10.6-.1 0-.1.3-.3.5zm-115.5 58.4c1.8-2.6 3.5-5 5.3-7.4 3-4.1 3.8-8.6 2.9-13.5-.7-3.5-1.5-6.9-2.2-10.4-1.2-5.3-1.8-10.7-.8-16.2.2-1.2.6-2.3.8-3.5 0 0-.2 0-.3-.1-.5.9-1.1 1.9-1.6 2.8-3.3 6.9-5 14.1-5.1 21.7 0 6.9.4 13.7.7 20.6 0 1.9.2 3.9.3 5.9zm51-43.9c-1.7-.8-3.4-1.4-4.9-2.4-2.3-1.4-4.5-3-6.6-4.7-3.9-3.3-7.9-6.3-12.7-8.3-1-.4-1.9-1-2.8-1.5-3.3-1.8-5.9-4.4-7.8-7.8-.1-.2-.3-.5-.5-.7 0 1.3.3 2.6.6 3.7s.7 2.1 1.3 3.1c2.6 4.1 5.2 8.2 8 12.2 2.4 3.3 5.7 5.5 9.5 6.8 3.7 1.2 7.6 1.4 11.4.7 1.5-.3 3-.4 4.3-1.2zM393.5 263l-.2.2c.2.3.3.6.5.9 1.8 2.4 3.2 5.1 4.2 8 .7 1.9 1.4 3.9 2.1 5.8 1.7 4.6 4.9 7.9 9.5 9.7 2.3.9 4.6 1.7 7 2.6 2.9 1 5.6 2.2 7.8 4.5h.3v-.3c-1.7-5.3-4.3-9.9-9.1-13-1.1-.7-2.2-1.5-3.3-2.2-2.5-1.6-4.8-3.5-6.8-5.7-3.1-3.5-6.6-6.7-10.5-9.4-.5-.3-1-.6-1.5-1zM230.1 399.4c1.6 5 11 15.2 18.5 20.4 7.5 5.2 21.6 11.3 25.2 11.1-1.6-1-3.2-1.8-4.7-2.9-2.9-2-5.5-4.3-7.9-6.8-5.7-5.9-12.3-10.6-19.8-14.1-3.4-1.6-6.6-3.8-9.5-6.3-.5-.5-1.1-.9-1.7-1.5z"/></g></svg>