<?xml version="1.0" encoding="UTF-8"?><svg id="a" xmlns="http://www.w3.org/2000/svg" width="3.5in" height="1.4in" viewBox="0 0 254.1 97.7"><path d="M164.3,1.9c2.2,.2,4.3,1,6.3,2.2,4.4,2.6,8.1,6,11.4,9.9,.4,.4,.7,.8,1.1,1.3h.3c0-.5,0-1,0-1.4,0-2.4,0-4.9,0-7.3,0-1.1,.3-1.4,1.4-1.4,5,0,10.1,0,15.1,0,3.9,0,7.8,.6,11.5,2,6.1,2.3,10.5,6.4,12.3,12.8,1,3.4,1.1,6.8,.7,10.3-1,8.3-4.9,14.6-12.1,18.8-4.7,2.8-10,3.5-15.4,3.3-2.3,0-4.5-.4-6.7-.6v.2c.4,.3,.8,.6,1.3,.8,2.4,1.3,4.7,2.5,7.1,3.9,5.9,3.4,10.1,8.6,13.9,14.1,3,4.3,5.9,8.7,9.1,13,5.5,7.4,12.5,12.4,21.9,13.2,3.3,.3,6.6,.3,9.9,.4,.3,0,.6-.4,.9-.6-.3-.2-.5-.5-.8-.7-.1,0-.3,0-.5,0-4.8-.3-8.9-2.4-12-5.9-4.7-5.2-9.2-10.5-13.7-15.8-3.5-4.2-6.7-8.6-10.2-12.8-1.4-1.7-3.2-2.9-4.8-4.4,0,0,0-.1,.1-.1,.2,0,.4-.1,.6-.1,4.9-.7,9.3-2.7,13.1-5.8,9-7.4,11.9-17.2,9.9-28.4-1.6-9.3-7.8-15.1-16.2-18.8C213,.9,206,0,198.9,0c-9.7,0-19.5,0-29.2,0m16.7,34.2c0-2.6,.2-5.2,.1-7.8-.1-5.2-3.2-8.9-6.7-12.3,0,.3,0,.5,.2,.7,1.1,1.7,1.7,3.6,1.8,5.6,.2,4-1,7.6-2.9,11-2.9,5.2-6,10.4-9,15.5-2.8,4.7-5.6,9.3-7.2,14.6-.9,3.1-1.3,6.1-.5,9.3,1.2,4.9,4.1,8.7,8.4,11.1,2.3,1.3,2.6,2.8,2.5,5.1-.3,5.2-4,9-9.2,9.1-.5,0-1.1,0-1.6,0-.3,0-.6,.5-.9,.7,.3,.3,.5,.6,.9,.8,.2,.1,.6,0,.9,0,8.2,0,16.4,0,24.7,0,2.1,0,4.2,0,6.3,0,.3,0,.7-.5,1-.7-.3-.3-.6-.7-1-.8-.5-.1-1,0-1.5,0-5.4-.2-9.2-4-9.2-9.5,0-6.3,0-12.6,0-19,0-.7,0-1.2-.9-1.4-2.7-.6-5.3-1.4-7.9-2-.4-.1-.9-.1-1.5-.2v12.4c-.3,0-.5,0-.5-.2-2.9-2.8-5.4-5.9-6.3-10-.6-3,1.2-4.8,4.2-4.2,1.3,.2,2.6,.7,3.8,1,2.8,.9,5.5,2.2,8.6,2.1,1.8,0,2.8-.9,2.8-2.7,0-1.3-.3-2.5-.6-3.8-.2-1.1-.3-2.1,.8-2.7,.6-.4,.6-.9,.2-1.5-.2-.3,0-1,0-1.1,1.7-.7,1.4-2,1-3.3-.3-1.4-.1-1.7,1.2-2,.3,0,.6-.1,.8-.2,1.5-.5,1.8-1.3,.9-2.6-.6-.9-1.2-1.6-1.9-2.4-1.1-1.3-1.7-2.8-1.8-4.5m-22.1,40.1l.2-.2c-.6-.5-1.3-1-1.9-1.6-3.2-2.8-5.4-6.2-5.3-10.6,0-3.5,1.1-6.8,2.9-9.8,3.2-5.3,6.6-10.4,10-15.5,2.7-4.1,5.3-8.2,7.1-12.8,3.1-8.1,1.5-15.2-4.8-21.1-.6-.5-1.2-1-1.8-1.5,4.1,6.2,3.5,12.6,.8,18.9-1.4,3.3-3.1,6.5-5,9.5-3.3,5.3-6.9,10.5-10.3,15.8-2.2,3.4-4.2,7-5.2,11-.7,3-.6,5.8,1.2,8.4,3,4.5,7.4,7.2,12.2,9.3Z" fill="#295459"/><g id="b"><path d="M170.8,3.6c-1.2,.6-2.3,1.2-3.4,1.8-6.5,3.6-11.7,9.2-16.5,15.2-6.2,7.6-12.1,15.5-18.2,23.3-.3,.4-.5,.9-.9,1.8,6.6,.5,13,.2,19.2,1.5v1c-1.7,0-3.4,.2-5,.2-5,.1-10,.1-15,.3-.8,0-1.9,.5-2.4,1.2-4.9,7.5-9.9,15-14.6,22.8-2,3.4-3.4,7.2-5,10.9-.4,1-.6,2.2-.6,3.4,0,2.6,1.2,4.4,3.5,4.2,2.1-.2,4.5-.6,6.2-1.8,4.6-3.2,9.1-6.7,13.5-10.3,1.8-1.5,3.4-3.3,5.2-4.9,.6-.6,1.4-.9,2.1-1.4l.4,.5c-.2,.5-.3,1.2-.7,1.6-6.5,6.6-12.8,13.5-20.9,17.6-4.8,2.4-9.9,3.2-15.1,1.9-6.2-1.6-9.2-6.4-7.4-13.3,1.3-5,3.4-10,5.9-14.5,3.2-5.7,7.2-11,10.8-16.4,.3-.4,.5-.8,1-1.5-4.2,0-8,0-11.9,0-3.7,0-7.4,.3-11.1,.2-1.9,0-2.7,1.3-3.7,2.6-5.9,7.1-11.5,14.5-17.7,21.1-9.8,10.5-20.8,18.7-34,22.6-7.8,2.3-15.7,3.5-23.6,.7C3.5,93.5-.5,87.4,0,79.4c.4-6.3,5.4-11.4,10.9-11,3,.2,5.4,1.6,6.4,5,1.1,3.5,.5,6.6-1.7,9.4-.6,.7-1.3,1.4-1.8,2.1-2.9,3.9-1.9,8.5,2.4,9.9,2.6,.9,5.5,1.1,8.1,.7,7.8-1.1,14.1-5.8,20-11.3,8.6-8.2,15.6-18.1,22.4-28.2,1.4-2.1,2.8-4.1,4.3-6.4-6.1-.6-11.9,.6-17.6-.3v-1c.5-.2,1.1-.6,1.7-.7,5.3-.6,10.5-1.2,15.8-1.6,1.7-.1,2.8-.7,3.9-2.1,7.4-9.7,15.4-18.7,24.6-26.1,3.2-2.6,6.7-4.8,9.3-6.7-7.4,.3-15.6,.8-23.8,.9-8.8,.1-17.6-.5-26.3-.1-8.9,.4-17.4,2.7-24.9,8.4-8.3,6.3-11.7,15.3-10.2,26.4,1.2,8.8,6.4,13.7,13.5,16.4,.8,.3,1.6,.6,2.4,1.5-.6,0-1.1,.3-1.7,.2-8.5-1.8-18.7-10-20-21.7-1.1-10.3,2.1-19,9-25.7,7.1-7,15.7-9.7,24.7-11,9.5-1.3,19,0,28.5,.7,9.5,.6,19,.9,28.5,1.3,2.9,.1,5.5-1.3,7.9-3,1.9-1.3,2.2-1.2,4.3-.2-11.9,11.7-20.9,25.8-30.4,40.2,1.9,0,3.4,0,4.9,0,6,0,12-.2,18.1-.1,1.6,0,2.6-.6,3.7-1.9,10.8-13.3,22.3-26,36.1-35.4,5.3-3.6,10.8-6.5,16.6-8.1" fill="#295459"/></g></svg>